<svg width="971" height="756" viewBox="0 0 971 756" fill="none" xmlns="http://www.w3.org/2000/svg">
<rect width="971" height="756" fill="#F5F5F5"/>
<rect width="971" height="756" fill="white"/>
<rect x="26.5" y="71.5" width="430" height="661" fill="white" style="mix-blend-mode:multiply"/>
<rect x="27" y="72" width="429" height="660" fill="white"/>
<rect x="27" y="72" width="429" height="660" fill="#EDF5FF"/>
<g clip-path="url(#clip0_0_1)">
<path d="M43.148 100V90.228H46.704C49.252 90.228 50.918 91.866 50.918 95.114C50.918 98.362 49.252 100 46.704 100H43.148ZM44.996 98.362H46.704C48.076 98.362 48.958 97.55 48.958 95.884V94.344C48.958 92.678 48.076 91.866 46.704 91.866H44.996V98.362ZM54.6543 100.168C53.1703 100.168 52.3303 99.314 52.3303 98.012C52.3303 96.514 53.4643 95.772 55.4523 95.772H56.6983V95.24C56.6983 94.428 56.2923 93.952 55.3403 93.952C54.5003 93.952 54.0243 94.372 53.6743 94.876L52.6103 93.924C53.1423 93.084 53.9963 92.524 55.4663 92.524C57.4403 92.524 58.4903 93.462 58.4903 95.128V98.572H59.2183V100H58.2243C57.4543 100 56.9783 99.496 56.8663 98.74H56.7823C56.5443 99.678 55.7463 100.168 54.6543 100.168ZM55.2563 98.866C56.0543 98.866 56.6983 98.502 56.6983 97.816V96.85H55.5503C54.6123 96.85 54.1503 97.172 54.1503 97.746V97.984C54.1503 98.572 54.5563 98.866 55.2563 98.866ZM63.056 100C61.824 100 61.166 99.328 61.166 98.138V94.12H60.088V92.692H60.648C61.18 92.692 61.348 92.44 61.348 91.936V90.69H62.958V92.692H64.456V94.12H62.958V98.572H64.344V100H63.056ZM67.9763 100.168C66.4923 100.168 65.6523 99.314 65.6523 98.012C65.6523 96.514 66.7863 95.772 68.7743 95.772H70.0203V95.24C70.0203 94.428 69.6143 93.952 68.6623 93.952C67.8223 93.952 67.3463 94.372 66.9963 94.876L65.9323 93.924C66.4643 93.084 67.3183 92.524 68.7883 92.524C70.7623 92.524 71.8123 93.462 71.8123 95.128V98.572H72.5403V100H71.5463C70.7763 100 70.3003 99.496 70.1883 98.74H70.1043C69.8663 99.678 69.0683 100.168 67.9763 100.168ZM68.5783 98.866C69.3763 98.866 70.0203 98.502 70.0203 97.816V96.85H68.8723C67.9343 96.85 67.4723 97.172 67.4723 97.746V97.984C67.4723 98.572 67.8783 98.866 68.5783 98.866ZM81.3152 100H79.1872L76.7512 92.692H78.5152L79.5372 95.842L80.2512 98.446H80.3492L81.0632 95.842L82.0572 92.692H83.7652L81.3152 100ZM87.9096 100.168C85.8236 100.168 84.5216 98.684 84.5216 96.332C84.5216 93.994 85.8236 92.524 87.9096 92.524C90.0096 92.524 91.3116 93.994 91.3116 96.332C91.3116 98.684 90.0096 100.168 87.9096 100.168ZM87.9096 98.726C88.8476 98.726 89.4356 98.124 89.4356 97.018V95.66C89.4356 94.568 88.8476 93.966 87.9096 93.966C86.9856 93.966 86.3976 94.568 86.3976 95.66V97.018C86.3976 98.124 86.9856 98.726 87.9096 98.726ZM95.8183 100H94.8523C93.6343 100 93.0603 99.356 93.0603 98.236V89.64H94.8523V98.572H95.8183V100ZM101.704 100V98.782H101.634C101.382 99.51 100.794 100.168 99.5895 100.168C98.0915 100.168 97.2515 99.132 97.2515 97.312V92.692H99.0435V97.13C99.0435 98.138 99.4215 98.684 100.276 98.684C100.99 98.684 101.704 98.306 101.704 97.522V92.692H103.496V100H101.704ZM107.518 100H105.726V92.692H107.518V93.91H107.588C107.868 93.14 108.456 92.524 109.548 92.524C110.542 92.524 111.312 93.014 111.662 93.994H111.69C111.956 93.182 112.768 92.524 113.93 92.524C115.358 92.524 116.17 93.56 116.17 95.38V100H114.378V95.562C114.378 94.512 114 93.994 113.202 93.994C112.502 93.994 111.844 94.386 111.844 95.17V100H110.052V95.562C110.052 94.512 109.674 93.994 108.876 93.994C108.19 93.994 107.518 94.386 107.518 95.17V100ZM121.268 100.168C119.112 100.168 117.824 98.67 117.824 96.332C117.824 94.022 119.07 92.524 121.212 92.524C123.494 92.524 124.544 94.204 124.544 96.206V96.794H119.686V96.976C119.686 98.026 120.288 98.74 121.464 98.74C122.346 98.74 122.878 98.32 123.326 97.746L124.292 98.824C123.69 99.65 122.626 100.168 121.268 100.168ZM121.24 93.868C120.302 93.868 119.686 94.568 119.686 95.576V95.688H122.682V95.562C122.682 94.554 122.164 93.868 121.24 93.868Z" fill="black"/>
<line x1="28" y1="71" x2="28" y2="119" stroke="#0F62FE" stroke-width="4"/>
</g>
<rect x="26.5" y="71.5" width="430" height="661" stroke="#0F62FE"/>
<rect x="514.5" y="72.5" width="430" height="213" fill="white" style="mix-blend-mode:multiply"/>
<rect x="515" y="73" width="429" height="212" fill="white"/>
<rect x="515" y="73" width="429" height="212" fill="#EDF5FF"/>
<g clip-path="url(#clip1_0_1)">
<path d="M534.942 101.168C532.366 101.168 530.728 99.474 530.728 96.184C530.728 92.894 532.366 91.06 534.942 91.06C536.692 91.06 537.826 91.802 538.512 93.314L536.93 94.154C536.65 93.286 536.034 92.698 534.942 92.698C533.57 92.698 532.688 93.692 532.688 95.358V96.898C532.688 98.578 533.57 99.53 534.942 99.53C536.048 99.53 536.734 98.858 537.056 97.976L538.554 98.858C537.854 100.314 536.692 101.168 534.942 101.168ZM543.076 101.168C540.99 101.168 539.688 99.684 539.688 97.332C539.688 94.994 540.99 93.524 543.076 93.524C545.176 93.524 546.478 94.994 546.478 97.332C546.478 99.684 545.176 101.168 543.076 101.168ZM543.076 99.726C544.014 99.726 544.602 99.124 544.602 98.018V96.66C544.602 95.568 544.014 94.966 543.076 94.966C542.152 94.966 541.564 95.568 541.564 96.66V98.018C541.564 99.124 542.152 99.726 543.076 99.726ZM550.019 101H548.227V93.692H550.019V94.91H550.089C550.383 94.126 550.999 93.524 552.133 93.524C553.631 93.524 554.471 94.56 554.471 96.38V101H552.679V96.562C552.679 95.526 552.329 94.994 551.475 94.994C550.733 94.994 550.019 95.386 550.019 96.17V101ZM558.9 101C557.668 101 557.01 100.328 557.01 99.138V95.12H555.932V93.692H556.492C557.024 93.692 557.192 93.44 557.192 92.936V91.69H558.802V93.692H560.3V95.12H558.802V99.572H560.188V101H558.9ZM563.806 101H562.014V93.692H563.806V95.204H563.876C564.058 94.434 564.646 93.692 565.808 93.692H566.2V95.386H565.64C564.436 95.386 563.806 95.722 563.806 96.52V101ZM569.326 101.168C567.842 101.168 567.002 100.314 567.002 99.012C567.002 97.514 568.136 96.772 570.124 96.772H571.37V96.24C571.37 95.428 570.964 94.952 570.012 94.952C569.172 94.952 568.696 95.372 568.346 95.876L567.282 94.924C567.814 94.084 568.668 93.524 570.138 93.524C572.112 93.524 573.162 94.462 573.162 96.128V99.572H573.89V101H572.896C572.126 101 571.65 100.496 571.538 99.74H571.454C571.216 100.678 570.418 101.168 569.326 101.168ZM569.928 99.866C570.726 99.866 571.37 99.502 571.37 98.816V97.85H570.222C569.284 97.85 568.822 98.172 568.822 98.746V98.984C568.822 99.572 569.228 99.866 569.928 99.866ZM578.384 101.168C576.228 101.168 575.01 99.684 575.01 97.332C575.01 94.994 576.228 93.524 578.384 93.524C579.854 93.524 580.82 94.224 581.254 95.372L579.784 96.03C579.616 95.414 579.154 94.966 578.384 94.966C577.39 94.966 576.886 95.666 576.886 96.688V98.018C576.886 99.04 577.39 99.726 578.384 99.726C579.238 99.726 579.658 99.236 579.924 98.578L581.296 99.236C580.82 100.524 579.798 101.168 578.384 101.168ZM585.12 101C583.888 101 583.23 100.328 583.23 99.138V95.12H582.152V93.692H582.712C583.244 93.692 583.412 93.44 583.412 92.936V91.69H585.022V93.692H586.52V95.12H585.022V99.572H586.408V101H585.12Z" fill="black"/>
<line x1="516" y1="72" x2="516" y2="120" stroke="#0F62FE" stroke-width="4"/>
</g>
<rect x="514.5" y="72.5" width="430" height="213" stroke="#0F62FE"/>
<rect x="76" y="136" width="330" height="253" fill="white"/>
<g clip-path="url(#clip2_0_1)">
<path d="M92.078 154.228H93.898V160.234C93.898 161.76 94.43 162.53 95.83 162.53C97.23 162.53 97.762 161.76 97.762 160.234V154.228H99.582V159.996C99.582 162.866 98.56 164.168 95.816 164.168C93.072 164.168 92.078 162.866 92.078 159.996V154.228ZM103.654 164H101.862V156.692H103.654V157.91H103.724C104.018 157.126 104.634 156.524 105.768 156.524C107.266 156.524 108.106 157.56 108.106 159.38V164H106.314V159.562C106.314 158.526 105.964 157.994 105.11 157.994C104.368 157.994 103.654 158.386 103.654 159.17V164ZM113.206 164.168C111.05 164.168 109.762 162.67 109.762 160.332C109.762 158.022 111.008 156.524 113.15 156.524C115.432 156.524 116.482 158.204 116.482 160.206V160.794H111.624V160.976C111.624 162.026 112.226 162.74 113.402 162.74C114.284 162.74 114.816 162.32 115.264 161.746L116.23 162.824C115.628 163.65 114.564 164.168 113.206 164.168ZM113.178 157.868C112.24 157.868 111.624 158.568 111.624 159.576V159.688H114.62V159.562C114.62 158.554 114.102 157.868 113.178 157.868ZM120.011 164H118.219V156.692H120.011V157.91H120.081C120.375 157.126 120.991 156.524 122.125 156.524C123.623 156.524 124.463 157.56 124.463 159.38V164H122.671V159.562C122.671 158.526 122.321 157.994 121.467 157.994C120.725 157.994 120.011 158.386 120.011 159.17V164ZM129.494 164.168C127.338 164.168 126.12 162.684 126.12 160.332C126.12 157.994 127.338 156.524 129.494 156.524C130.964 156.524 131.93 157.224 132.364 158.372L130.894 159.03C130.726 158.414 130.264 157.966 129.494 157.966C128.5 157.966 127.996 158.666 127.996 159.688V161.018C127.996 162.04 128.5 162.726 129.494 162.726C130.348 162.726 130.768 162.236 131.034 161.578L132.406 162.236C131.93 163.524 130.908 164.168 129.494 164.168ZM135.739 164H133.947V156.692H135.739V158.204H135.809C135.991 157.434 136.579 156.692 137.741 156.692H138.133V158.386H137.573C136.369 158.386 135.739 158.722 135.739 159.52V164ZM142.919 160.556L144.193 156.692H145.873L142.933 165.302C142.569 166.352 142.051 166.8 140.847 166.8H139.769V165.372H141.085L141.421 164.35L138.803 156.692H140.581L141.855 160.556L142.331 162.404H142.415L142.919 160.556ZM147.215 166.8V156.692H149.007V157.896H149.063C149.329 157.056 150.113 156.524 151.079 156.524C152.927 156.524 153.949 157.896 153.949 160.332C153.949 162.782 152.927 164.168 151.079 164.168C150.113 164.168 149.343 163.608 149.063 162.782H149.007V166.8H147.215ZM150.505 162.684C151.429 162.684 152.073 162.012 152.073 160.976V159.716C152.073 158.68 151.429 157.994 150.505 157.994C149.651 157.994 149.007 158.456 149.007 159.17V161.494C149.007 162.25 149.651 162.684 150.505 162.684ZM157.969 164C156.737 164 156.079 163.328 156.079 162.138V158.12H155.001V156.692H155.561C156.093 156.692 156.261 156.44 156.261 155.936V154.69H157.871V156.692H159.369V158.12H157.871V162.572H159.257V164H157.969ZM163.983 164.168C161.827 164.168 160.539 162.67 160.539 160.332C160.539 158.022 161.785 156.524 163.927 156.524C166.209 156.524 167.259 158.204 167.259 160.206V160.794H162.401V160.976C162.401 162.026 163.003 162.74 164.179 162.74C165.061 162.74 165.593 162.32 166.041 161.746L167.007 162.824C166.405 163.65 165.341 164.168 163.983 164.168ZM163.955 157.868C163.017 157.868 162.401 158.568 162.401 159.576V159.688H165.397V159.562C165.397 158.554 164.879 157.868 163.955 157.868ZM173.531 164V162.782H173.461C173.195 163.608 172.411 164.168 171.445 164.168C169.611 164.168 168.589 162.782 168.589 160.332C168.589 157.896 169.611 156.524 171.445 156.524C172.411 156.524 173.209 157.056 173.461 157.896H173.531V153.64H175.323V164H173.531ZM172.019 162.684C172.873 162.684 173.531 162.25 173.531 161.494V159.17C173.531 158.456 172.873 157.994 172.019 157.994C171.095 157.994 170.465 158.68 170.465 159.716V160.976C170.465 162.012 171.095 162.684 172.019 162.684ZM182.81 164H181.018V156.692H182.81V157.91H182.88C183.16 157.14 183.748 156.524 184.84 156.524C185.834 156.524 186.604 157.014 186.954 157.994H186.982C187.248 157.182 188.06 156.524 189.222 156.524C190.65 156.524 191.462 157.56 191.462 159.38V164H189.67V159.562C189.67 158.512 189.292 157.994 188.494 157.994C187.794 157.994 187.136 158.386 187.136 159.17V164H185.344V159.562C185.344 158.512 184.966 157.994 184.168 157.994C183.482 157.994 182.81 158.386 182.81 159.17V164ZM196.56 164.168C194.404 164.168 193.116 162.67 193.116 160.332C193.116 158.022 194.362 156.524 196.504 156.524C198.786 156.524 199.836 158.204 199.836 160.206V160.794H194.978V160.976C194.978 162.026 195.58 162.74 196.756 162.74C197.638 162.74 198.17 162.32 198.618 161.746L199.584 162.824C198.982 163.65 197.918 164.168 196.56 164.168ZM196.532 157.868C195.594 157.868 194.978 158.568 194.978 159.576V159.688H197.974V159.562C197.974 158.554 197.456 157.868 196.532 157.868ZM203.855 164C202.623 164 201.965 163.328 201.965 162.138V158.12H200.887V156.692H201.447C201.979 156.692 202.147 156.44 202.147 155.936V154.69H203.757V156.692H205.255V158.12H203.757V162.572H205.143V164H203.855ZM208.775 164.168C207.291 164.168 206.451 163.314 206.451 162.012C206.451 160.514 207.585 159.772 209.573 159.772H210.819V159.24C210.819 158.428 210.413 157.952 209.461 157.952C208.621 157.952 208.145 158.372 207.795 158.876L206.731 157.924C207.263 157.084 208.117 156.524 209.587 156.524C211.561 156.524 212.611 157.462 212.611 159.128V162.572H213.339V164H212.345C211.575 164 211.099 163.496 210.987 162.74H210.903C210.665 163.678 209.867 164.168 208.775 164.168ZM209.377 162.866C210.175 162.866 210.819 162.502 210.819 161.816V160.85H209.671C208.733 160.85 208.271 161.172 208.271 161.746V161.984C208.271 162.572 208.677 162.866 209.377 162.866ZM219.486 164V162.782H219.416C219.15 163.608 218.366 164.168 217.4 164.168C215.566 164.168 214.544 162.782 214.544 160.332C214.544 157.896 215.566 156.524 217.4 156.524C218.366 156.524 219.164 157.056 219.416 157.896H219.486V153.64H221.278V164H219.486ZM217.974 162.684C218.828 162.684 219.486 162.25 219.486 161.494V159.17C219.486 158.456 218.828 157.994 217.974 157.994C217.05 157.994 216.42 158.68 216.42 159.716V160.976C216.42 162.012 217.05 162.684 217.974 162.684ZM225.31 164.168C223.826 164.168 222.986 163.314 222.986 162.012C222.986 160.514 224.12 159.772 226.108 159.772H227.354V159.24C227.354 158.428 226.948 157.952 225.996 157.952C225.156 157.952 224.68 158.372 224.33 158.876L223.266 157.924C223.798 157.084 224.652 156.524 226.122 156.524C228.096 156.524 229.146 157.462 229.146 159.128V162.572H229.874V164H228.88C228.11 164 227.634 163.496 227.522 162.74H227.438C227.2 163.678 226.402 164.168 225.31 164.168ZM225.912 162.866C226.71 162.866 227.354 162.502 227.354 161.816V160.85H226.206C225.268 160.85 224.806 161.172 224.806 161.746V161.984C224.806 162.572 225.212 162.866 225.912 162.866ZM233.712 164C232.48 164 231.822 163.328 231.822 162.138V158.12H230.744V156.692H231.304C231.836 156.692 232.004 156.44 232.004 155.936V154.69H233.614V156.692H235.112V158.12H233.614V162.572H235V164H233.712ZM238.632 164.168C237.148 164.168 236.308 163.314 236.308 162.012C236.308 160.514 237.442 159.772 239.43 159.772H240.676V159.24C240.676 158.428 240.27 157.952 239.318 157.952C238.478 157.952 238.002 158.372 237.652 158.876L236.588 157.924C237.12 157.084 237.974 156.524 239.444 156.524C241.418 156.524 242.468 157.462 242.468 159.128V162.572H243.196V164H242.202C241.432 164 240.956 163.496 240.844 162.74H240.76C240.522 163.678 239.724 164.168 238.632 164.168ZM239.234 162.866C240.032 162.866 240.676 162.502 240.676 161.816V160.85H239.528C238.59 160.85 238.128 161.172 238.128 161.746V161.984C238.128 162.572 238.534 162.866 239.234 162.866ZM248.275 166.8V156.692H250.067V157.896H250.123C250.389 157.056 251.173 156.524 252.139 156.524C253.987 156.524 255.009 157.896 255.009 160.332C255.009 162.782 253.987 164.168 252.139 164.168C251.173 164.168 250.403 163.608 250.123 162.782H250.067V166.8H248.275ZM251.565 162.684C252.489 162.684 253.133 162.012 253.133 160.976V159.716C253.133 158.68 252.489 157.994 251.565 157.994C250.711 157.994 250.067 158.456 250.067 159.17V161.494C250.067 162.25 250.711 162.684 251.565 162.684ZM258.635 164.168C257.151 164.168 256.311 163.314 256.311 162.012C256.311 160.514 257.445 159.772 259.433 159.772H260.679V159.24C260.679 158.428 260.273 157.952 259.321 157.952C258.481 157.952 258.005 158.372 257.655 158.876L256.591 157.924C257.123 157.084 257.977 156.524 259.447 156.524C261.421 156.524 262.471 157.462 262.471 159.128V162.572H263.199V164H262.205C261.435 164 260.959 163.496 260.847 162.74H260.763C260.525 163.678 259.727 164.168 258.635 164.168ZM259.237 162.866C260.035 162.866 260.679 162.502 260.679 161.816V160.85H259.531C258.593 160.85 258.131 161.172 258.131 161.746V161.984C258.131 162.572 258.537 162.866 259.237 162.866ZM266.602 164H264.81V156.692H266.602V158.204H266.672C266.854 157.434 267.442 156.692 268.604 156.692H268.996V158.386H268.436C267.232 158.386 266.602 158.722 266.602 159.52V164ZM272.803 164C271.571 164 270.913 163.328 270.913 162.138V158.12H269.835V156.692H270.395C270.927 156.692 271.095 156.44 271.095 155.936V154.69H272.705V156.692H274.203V158.12H272.705V162.572H274.091V164H272.803ZM276.813 155.628C276.071 155.628 275.763 155.25 275.763 154.732V154.452C275.763 153.934 276.071 153.556 276.813 153.556C277.541 153.556 277.863 153.934 277.863 154.452V154.732C277.863 155.25 277.541 155.628 276.813 155.628ZM275.917 164V156.692H277.709V164H275.917ZM282.228 164C280.996 164 280.338 163.328 280.338 162.138V158.12H279.26V156.692H279.82C280.352 156.692 280.52 156.44 280.52 155.936V154.69H282.13V156.692H283.628V158.12H282.13V162.572H283.516V164H282.228ZM286.238 155.628C285.496 155.628 285.188 155.25 285.188 154.732V154.452C285.188 153.934 285.496 153.556 286.238 153.556C286.966 153.556 287.288 153.934 287.288 154.452V154.732C287.288 155.25 286.966 155.628 286.238 155.628ZM285.342 164V156.692H287.134V164H285.342ZM292.269 164.168C290.183 164.168 288.881 162.684 288.881 160.332C288.881 157.994 290.183 156.524 292.269 156.524C294.369 156.524 295.671 157.994 295.671 160.332C295.671 162.684 294.369 164.168 292.269 164.168ZM292.269 162.726C293.207 162.726 293.795 162.124 293.795 161.018V159.66C293.795 158.568 293.207 157.966 292.269 157.966C291.345 157.966 290.757 158.568 290.757 159.66V161.018C290.757 162.124 291.345 162.726 292.269 162.726ZM299.212 164H297.42V156.692H299.212V157.91H299.282C299.576 157.126 300.192 156.524 301.326 156.524C302.824 156.524 303.664 157.56 303.664 159.38V164H301.872V159.562C301.872 158.526 301.522 157.994 300.668 157.994C299.926 157.994 299.212 158.386 299.212 159.17V164Z" fill="black"/>
<line x1="77" y1="135" x2="77" y2="183" stroke="#0F62FE" stroke-width="4"/>
</g>
<rect x="75.5" y="135.5" width="331" height="254" stroke="#0F62FE"/>
<rect x="75" y="422" width="330" height="277" fill="white"/>
<g clip-path="url(#clip3_0_1)">
<path d="M97.588 450H91.148V440.228H97.588V441.866H92.996V444.232H97.056V445.87H92.996V448.362H97.588V450ZM101.383 450H99.5905V442.692H101.383V443.91H101.453C101.747 443.126 102.363 442.524 103.497 442.524C104.995 442.524 105.835 443.56 105.835 445.38V450H104.043V445.562C104.043 444.526 103.693 443.994 102.839 443.994C102.097 443.994 101.383 444.386 101.383 445.17V450ZM110.865 450.168C108.709 450.168 107.491 448.684 107.491 446.332C107.491 443.994 108.709 442.524 110.865 442.524C112.335 442.524 113.301 443.224 113.735 444.372L112.265 445.03C112.097 444.414 111.635 443.966 110.865 443.966C109.871 443.966 109.367 444.666 109.367 445.688V447.018C109.367 448.04 109.871 448.726 110.865 448.726C111.719 448.726 112.139 448.236 112.405 447.578L113.777 448.236C113.301 449.524 112.279 450.168 110.865 450.168ZM117.111 450H115.319V442.692H117.111V444.204H117.181C117.363 443.434 117.951 442.692 119.113 442.692H119.505V444.386H118.945C117.741 444.386 117.111 444.722 117.111 445.52V450ZM124.29 446.556L125.564 442.692H127.244L124.304 451.302C123.94 452.352 123.422 452.8 122.218 452.8H121.14V451.372H122.456L122.792 450.35L120.174 442.692H121.952L123.226 446.556L123.702 448.404H123.786L124.29 446.556ZM128.586 452.8V442.692H130.378V443.896H130.434C130.7 443.056 131.484 442.524 132.45 442.524C134.298 442.524 135.32 443.896 135.32 446.332C135.32 448.782 134.298 450.168 132.45 450.168C131.484 450.168 130.714 449.608 130.434 448.782H130.378V452.8H128.586ZM131.876 448.684C132.8 448.684 133.444 448.012 133.444 446.976V445.716C133.444 444.68 132.8 443.994 131.876 443.994C131.022 443.994 130.378 444.456 130.378 445.17V447.494C130.378 448.25 131.022 448.684 131.876 448.684ZM139.34 450C138.108 450 137.45 449.328 137.45 448.138V444.12H136.372V442.692H136.932C137.464 442.692 137.632 442.44 137.632 441.936V440.69H139.242V442.692H140.74V444.12H139.242V448.572H140.628V450H139.34ZM145.354 450.168C143.198 450.168 141.91 448.67 141.91 446.332C141.91 444.022 143.156 442.524 145.298 442.524C147.58 442.524 148.63 444.204 148.63 446.206V446.794H143.772V446.976C143.772 448.026 144.374 448.74 145.55 448.74C146.432 448.74 146.964 448.32 147.412 447.746L148.378 448.824C147.776 449.65 146.712 450.168 145.354 450.168ZM145.326 443.868C144.388 443.868 143.772 444.568 143.772 445.576V445.688H146.768V445.562C146.768 444.554 146.25 443.868 145.326 443.868ZM154.903 450V448.782H154.833C154.567 449.608 153.783 450.168 152.817 450.168C150.983 450.168 149.961 448.782 149.961 446.332C149.961 443.896 150.983 442.524 152.817 442.524C153.783 442.524 154.581 443.056 154.833 443.896H154.903V439.64H156.695V450H154.903ZM153.391 448.684C154.245 448.684 154.903 448.25 154.903 447.494V445.17C154.903 444.456 154.245 443.994 153.391 443.994C152.467 443.994 151.837 444.68 151.837 445.716V446.976C151.837 448.012 152.467 448.684 153.391 448.684ZM164.784 450.168C163.398 450.168 162.488 449.664 161.76 448.824L162.852 447.76C163.384 448.376 164.028 448.754 164.854 448.754C165.708 448.754 166.072 448.432 166.072 447.914C166.072 447.494 165.82 447.228 165.176 447.144L164.448 447.046C162.88 446.85 162.012 446.164 162.012 444.834C162.012 443.42 163.118 442.524 164.784 442.524C166.212 442.524 166.94 442.944 167.64 443.672L166.59 444.722C166.17 444.274 165.554 443.938 164.84 443.938C164.07 443.938 163.734 444.246 163.734 444.694C163.734 445.184 164 445.408 164.686 445.52L165.428 445.618C167.024 445.842 167.794 446.556 167.794 447.774C167.794 449.188 166.604 450.168 164.784 450.168ZM172.49 450.168C170.334 450.168 169.046 448.67 169.046 446.332C169.046 444.022 170.292 442.524 172.434 442.524C174.716 442.524 175.766 444.204 175.766 446.206V446.794H170.908V446.976C170.908 448.026 171.51 448.74 172.686 448.74C173.568 448.74 174.1 448.32 174.548 447.746L175.514 448.824C174.912 449.65 173.848 450.168 172.49 450.168ZM172.462 443.868C171.524 443.868 170.908 444.568 170.908 445.576V445.688H173.904V445.562C173.904 444.554 173.386 443.868 172.462 443.868ZM180.387 450.168C178.231 450.168 177.013 448.684 177.013 446.332C177.013 443.994 178.231 442.524 180.387 442.524C181.857 442.524 182.823 443.224 183.257 444.372L181.787 445.03C181.619 444.414 181.157 443.966 180.387 443.966C179.393 443.966 178.889 444.666 178.889 445.688V447.018C178.889 448.04 179.393 448.726 180.387 448.726C181.241 448.726 181.661 448.236 181.927 447.578L183.299 448.236C182.823 449.524 181.801 450.168 180.387 450.168ZM187.67 450.168C185.584 450.168 184.282 448.684 184.282 446.332C184.282 443.994 185.584 442.524 187.67 442.524C189.77 442.524 191.072 443.994 191.072 446.332C191.072 448.684 189.77 450.168 187.67 450.168ZM187.67 448.726C188.608 448.726 189.196 448.124 189.196 447.018V445.66C189.196 444.568 188.608 443.966 187.67 443.966C186.746 443.966 186.158 444.568 186.158 445.66V447.018C186.158 448.124 186.746 448.726 187.67 448.726ZM194.613 450H192.821V442.692H194.613V443.91H194.683C194.977 443.126 195.593 442.524 196.727 442.524C198.225 442.524 199.065 443.56 199.065 445.38V450H197.273V445.562C197.273 444.526 196.923 443.994 196.069 443.994C195.327 443.994 194.613 444.386 194.613 445.17V450ZM205.747 450V448.782H205.677C205.411 449.608 204.627 450.168 203.661 450.168C201.827 450.168 200.805 448.782 200.805 446.332C200.805 443.896 201.827 442.524 203.661 442.524C204.627 442.524 205.425 443.056 205.677 443.896H205.747V439.64H207.539V450H205.747ZM204.235 448.684C205.089 448.684 205.747 448.25 205.747 447.494V445.17C205.747 444.456 205.089 443.994 204.235 443.994C203.311 443.994 202.681 444.68 202.681 445.716V446.976C202.681 448.012 203.311 448.684 204.235 448.684ZM213.235 452.8V442.692H215.027V443.896H215.083C215.349 443.056 216.133 442.524 217.099 442.524C218.947 442.524 219.969 443.896 219.969 446.332C219.969 448.782 218.947 450.168 217.099 450.168C216.133 450.168 215.363 449.608 215.083 448.782H215.027V452.8H213.235ZM216.525 448.684C217.449 448.684 218.093 448.012 218.093 446.976V445.716C218.093 444.68 217.449 443.994 216.525 443.994C215.671 443.994 215.027 444.456 215.027 445.17V447.494C215.027 448.25 215.671 448.684 216.525 448.684ZM223.595 450.168C222.111 450.168 221.271 449.314 221.271 448.012C221.271 446.514 222.405 445.772 224.393 445.772H225.639V445.24C225.639 444.428 225.233 443.952 224.281 443.952C223.441 443.952 222.965 444.372 222.615 444.876L221.551 443.924C222.083 443.084 222.937 442.524 224.407 442.524C226.381 442.524 227.431 443.462 227.431 445.128V448.572H228.159V450H227.165C226.395 450 225.919 449.496 225.807 448.74H225.723C225.485 449.678 224.687 450.168 223.595 450.168ZM224.197 448.866C224.995 448.866 225.639 448.502 225.639 447.816V446.85H224.491C223.553 446.85 223.091 447.172 223.091 447.746V447.984C223.091 448.572 223.497 448.866 224.197 448.866ZM231.561 450H229.769V442.692H231.561V444.204H231.631C231.813 443.434 232.401 442.692 233.563 442.692H233.955V444.386H233.395C232.191 444.386 231.561 444.722 231.561 445.52V450ZM237.762 450C236.53 450 235.872 449.328 235.872 448.138V444.12H234.794V442.692H235.354C235.886 442.692 236.054 442.44 236.054 441.936V440.69H237.664V442.692H239.162V444.12H237.664V448.572H239.05V450H237.762ZM241.772 441.628C241.03 441.628 240.722 441.25 240.722 440.732V440.452C240.722 439.934 241.03 439.556 241.772 439.556C242.5 439.556 242.822 439.934 242.822 440.452V440.732C242.822 441.25 242.5 441.628 241.772 441.628ZM240.876 450V442.692H242.668V450H240.876ZM247.188 450C245.956 450 245.298 449.328 245.298 448.138V444.12H244.22V442.692H244.78C245.312 442.692 245.48 442.44 245.48 441.936V440.69H247.09V442.692H248.588V444.12H247.09V448.572H248.476V450H247.188ZM251.198 441.628C250.456 441.628 250.148 441.25 250.148 440.732V440.452C250.148 439.934 250.456 439.556 251.198 439.556C251.926 439.556 252.248 439.934 252.248 440.452V440.732C252.248 441.25 251.926 441.628 251.198 441.628ZM250.302 450V442.692H252.094V450H250.302ZM257.229 450.168C255.143 450.168 253.841 448.684 253.841 446.332C253.841 443.994 255.143 442.524 257.229 442.524C259.329 442.524 260.631 443.994 260.631 446.332C260.631 448.684 259.329 450.168 257.229 450.168ZM257.229 448.726C258.167 448.726 258.755 448.124 258.755 447.018V445.66C258.755 444.568 258.167 443.966 257.229 443.966C256.305 443.966 255.717 444.568 255.717 445.66V447.018C255.717 448.124 256.305 448.726 257.229 448.726ZM264.172 450H262.38V442.692H264.172V443.91H264.242C264.536 443.126 265.152 442.524 266.286 442.524C267.784 442.524 268.624 443.56 268.624 445.38V450H266.832V445.562C266.832 444.526 266.482 443.994 265.628 443.994C264.886 443.994 264.172 444.386 264.172 445.17V450ZM273.903 445.632C273.903 442.93 274.967 440.578 276.367 439.36H278.061C276.549 440.76 275.583 442.86 275.583 445.128V446.164C275.583 448.488 276.563 450.574 278.061 451.932H276.367C274.995 450.756 273.903 448.362 273.903 445.632ZM283.652 450V448.782H283.582C283.316 449.608 282.532 450.168 281.566 450.168C279.732 450.168 278.71 448.782 278.71 446.332C278.71 443.896 279.732 442.524 281.566 442.524C282.532 442.524 283.33 443.056 283.582 443.896H283.652V439.64H285.444V450H283.652ZM282.14 448.684C282.994 448.684 283.652 448.25 283.652 447.494V445.17C283.652 444.456 282.994 443.994 282.14 443.994C281.216 443.994 280.586 444.68 280.586 445.716V446.976C280.586 448.012 281.216 448.684 282.14 448.684ZM289.476 450.168C287.992 450.168 287.152 449.314 287.152 448.012C287.152 446.514 288.286 445.772 290.274 445.772H291.52V445.24C291.52 444.428 291.114 443.952 290.162 443.952C289.322 443.952 288.846 444.372 288.496 444.876L287.432 443.924C287.964 443.084 288.818 442.524 290.288 442.524C292.262 442.524 293.312 443.462 293.312 445.128V448.572H294.04V450H293.046C292.276 450 291.8 449.496 291.688 448.74H291.604C291.366 449.678 290.568 450.168 289.476 450.168ZM290.078 448.866C290.876 448.866 291.52 448.502 291.52 447.816V446.85H290.372C289.434 446.85 288.972 447.172 288.972 447.746V447.984C288.972 448.572 289.378 448.866 290.078 448.866ZM297.878 450C296.646 450 295.988 449.328 295.988 448.138V444.12H294.91V442.692H295.47C296.002 442.692 296.17 442.44 296.17 441.936V440.69H297.78V442.692H299.278V444.12H297.78V448.572H299.166V450H297.878ZM302.798 450.168C301.314 450.168 300.474 449.314 300.474 448.012C300.474 446.514 301.608 445.772 303.596 445.772H304.842V445.24C304.842 444.428 304.436 443.952 303.484 443.952C302.644 443.952 302.168 444.372 301.818 444.876L300.754 443.924C301.286 443.084 302.14 442.524 303.61 442.524C305.584 442.524 306.634 443.462 306.634 445.128V448.572H307.362V450H306.368C305.598 450 305.122 449.496 305.01 448.74H304.926C304.688 449.678 303.89 450.168 302.798 450.168ZM303.4 448.866C304.198 448.866 304.842 448.502 304.842 447.816V446.85H303.694C302.756 446.85 302.294 447.172 302.294 447.746V447.984C302.294 448.572 302.7 448.866 303.4 448.866ZM312.441 452.8V442.692H314.233V443.896H314.289C314.555 443.056 315.339 442.524 316.305 442.524C318.153 442.524 319.175 443.896 319.175 446.332C319.175 448.782 318.153 450.168 316.305 450.168C315.339 450.168 314.569 449.608 314.289 448.782H314.233V452.8H312.441ZM315.731 448.684C316.655 448.684 317.299 448.012 317.299 446.976V445.716C317.299 444.68 316.655 443.994 315.731 443.994C314.877 443.994 314.233 444.456 314.233 445.17V447.494C314.233 448.25 314.877 448.684 315.731 448.684ZM322.802 450.168C321.318 450.168 320.478 449.314 320.478 448.012C320.478 446.514 321.612 445.772 323.6 445.772H324.846V445.24C324.846 444.428 324.44 443.952 323.488 443.952C322.648 443.952 322.172 444.372 321.822 444.876L320.758 443.924C321.29 443.084 322.144 442.524 323.614 442.524C325.588 442.524 326.638 443.462 326.638 445.128V448.572H327.366V450H326.372C325.602 450 325.126 449.496 325.014 448.74H324.93C324.692 449.678 323.894 450.168 322.802 450.168ZM323.404 448.866C324.202 448.866 324.846 448.502 324.846 447.816V446.85H323.698C322.76 446.85 322.298 447.172 322.298 447.746V447.984C322.298 448.572 322.704 448.866 323.404 448.866ZM330.768 450H328.976V442.692H330.768V444.204H330.838C331.02 443.434 331.608 442.692 332.77 442.692H333.162V444.386H332.602C331.398 444.386 330.768 444.722 330.768 445.52V450ZM336.969 450C335.737 450 335.079 449.328 335.079 448.138V444.12H334.001V442.692H334.561C335.093 442.692 335.261 442.44 335.261 441.936V440.69H336.871V442.692H338.369V444.12H336.871V448.572H338.257V450H336.969ZM340.979 441.628C340.237 441.628 339.929 441.25 339.929 440.732V440.452C339.929 439.934 340.237 439.556 340.979 439.556C341.707 439.556 342.029 439.934 342.029 440.452V440.732C342.029 441.25 341.707 441.628 340.979 441.628ZM340.083 450V442.692H341.875V450H340.083ZM346.394 450C345.162 450 344.504 449.328 344.504 448.138V444.12H343.426V442.692H343.986C344.518 442.692 344.686 442.44 344.686 441.936V440.69H346.296V442.692H347.794V444.12H346.296V448.572H347.682V450H346.394ZM350.404 441.628C349.662 441.628 349.354 441.25 349.354 440.732V440.452C349.354 439.934 349.662 439.556 350.404 439.556C351.132 439.556 351.454 439.934 351.454 440.452V440.732C351.454 441.25 351.132 441.628 350.404 441.628ZM349.508 450V442.692H351.3V450H349.508ZM356.436 450.168C354.35 450.168 353.048 448.684 353.048 446.332C353.048 443.994 354.35 442.524 356.436 442.524C358.536 442.524 359.838 443.994 359.838 446.332C359.838 448.684 358.536 450.168 356.436 450.168ZM356.436 448.726C357.374 448.726 357.962 448.124 357.962 447.018V445.66C357.962 444.568 357.374 443.966 356.436 443.966C355.512 443.966 354.924 444.568 354.924 445.66V447.018C354.924 448.124 355.512 448.726 356.436 448.726ZM363.378 450H361.586V442.692H363.378V443.91H363.448C363.742 443.126 364.358 442.524 365.492 442.524C366.99 442.524 367.83 443.56 367.83 445.38V450H366.038V445.562C366.038 444.526 365.688 443.994 364.834 443.994C364.092 443.994 363.378 444.386 363.378 445.17V450ZM372.959 445.632C372.959 448.362 371.867 450.756 370.495 451.932H368.801C370.299 450.574 371.279 448.488 371.279 446.164V445.128C371.279 442.86 370.313 440.76 368.801 439.36H370.495C371.895 440.578 372.959 442.93 372.959 445.632Z" fill="black"/>
<line x1="76" y1="421" x2="76" y2="469" stroke="#0F62FE" stroke-width="4"/>
</g>
<rect x="74.5" y="421.5" width="331" height="278" stroke="#0F62FE"/>
<rect x="119.5" y="199.5" width="243" height="162" fill="white" style="mix-blend-mode:multiply"/>
<rect x="120" y="200" width="242" height="161" fill="white"/>
<rect x="120" y="200" width="242" height="161" fill="#EDF5FF"/>
<g clip-path="url(#clip4_0_1)">
<path d="M139.732 228H137.632L135.364 218.228H137.212L138.178 222.918L138.78 225.914H138.822L139.522 222.918L140.642 218.228H142.686L143.806 222.918L144.492 225.914H144.534L145.15 222.918L146.144 218.228H147.908L145.57 228H143.484L142.238 222.834L141.636 220.258H141.608L140.978 222.834L139.732 228ZM151.14 228H149.348V220.692H151.14V222.204H151.21C151.392 221.434 151.98 220.692 153.142 220.692H153.534V222.386H152.974C151.77 222.386 151.14 222.722 151.14 223.52V228ZM156.66 228.168C155.176 228.168 154.336 227.314 154.336 226.012C154.336 224.514 155.47 223.772 157.458 223.772H158.704V223.24C158.704 222.428 158.298 221.952 157.346 221.952C156.506 221.952 156.03 222.372 155.68 222.876L154.616 221.924C155.148 221.084 156.002 220.524 157.472 220.524C159.446 220.524 160.496 221.462 160.496 223.128V226.572H161.224V228H160.23C159.46 228 158.984 227.496 158.872 226.74H158.788C158.55 227.678 157.752 228.168 156.66 228.168ZM157.262 226.866C158.06 226.866 158.704 226.502 158.704 225.816V224.85H157.556C156.618 224.85 156.156 225.172 156.156 225.746V225.984C156.156 226.572 156.562 226.866 157.262 226.866ZM162.834 230.8V220.692H164.626V221.896H164.682C164.948 221.056 165.732 220.524 166.698 220.524C168.546 220.524 169.568 221.896 169.568 224.332C169.568 226.782 168.546 228.168 166.698 228.168C165.732 228.168 164.962 227.608 164.682 226.782H164.626V230.8H162.834ZM166.124 226.684C167.048 226.684 167.692 226.012 167.692 224.976V223.716C167.692 222.68 167.048 221.994 166.124 221.994C165.27 221.994 164.626 222.456 164.626 223.17V225.494C164.626 226.25 165.27 226.684 166.124 226.684ZM171.389 230.8V220.692H173.181V221.896H173.237C173.503 221.056 174.287 220.524 175.253 220.524C177.101 220.524 178.123 221.896 178.123 224.332C178.123 226.782 177.101 228.168 175.253 228.168C174.287 228.168 173.517 227.608 173.237 226.782H173.181V230.8H171.389ZM174.679 226.684C175.603 226.684 176.247 226.012 176.247 224.976V223.716C176.247 222.68 175.603 221.994 174.679 221.994C173.825 221.994 173.181 222.456 173.181 223.17V225.494C173.181 226.25 173.825 226.684 174.679 226.684ZM182.897 228.168C180.741 228.168 179.453 226.67 179.453 224.332C179.453 222.022 180.699 220.524 182.841 220.524C185.123 220.524 186.173 222.204 186.173 224.206V224.794H181.315V224.976C181.315 226.026 181.917 226.74 183.093 226.74C183.975 226.74 184.507 226.32 184.955 225.746L185.921 226.824C185.319 227.65 184.255 228.168 182.897 228.168ZM182.869 221.868C181.931 221.868 181.315 222.568 181.315 223.576V223.688H184.311V223.562C184.311 222.554 183.793 221.868 182.869 221.868ZM192.446 228V226.782H192.376C192.11 227.608 191.326 228.168 190.36 228.168C188.526 228.168 187.504 226.782 187.504 224.332C187.504 221.896 188.526 220.524 190.36 220.524C191.326 220.524 192.124 221.056 192.376 221.896H192.446V217.64H194.238V228H192.446ZM190.934 226.684C191.788 226.684 192.446 226.25 192.446 225.494V223.17C192.446 222.456 191.788 221.994 190.934 221.994C190.01 221.994 189.38 222.68 189.38 223.716V224.976C189.38 226.012 190.01 226.684 190.934 226.684ZM199.933 228V217.64H201.725V221.896H201.781C202.047 221.056 202.831 220.524 203.797 220.524C205.645 220.524 206.667 221.896 206.667 224.332C206.667 226.782 205.645 228.168 203.797 228.168C202.831 228.168 202.061 227.608 201.781 226.782H201.725V228H199.933ZM203.223 226.684C204.147 226.684 204.791 226.012 204.791 224.976V223.716C204.791 222.68 204.147 221.994 203.223 221.994C202.369 221.994 201.725 222.456 201.725 223.17V225.494C201.725 226.25 202.369 226.684 203.223 226.684ZM211.571 224.556L212.845 220.692H214.525L211.585 229.302C211.221 230.352 210.703 230.8 209.499 230.8H208.421V229.372H209.737L210.073 228.35L207.455 220.692H209.233L210.507 224.556L210.983 226.404H211.067L211.571 224.556ZM221.127 228H219.335V220.692H221.127V222.204H221.197C221.379 221.434 221.967 220.692 223.129 220.692H223.521V222.386H222.961C221.757 222.386 221.127 222.722 221.127 223.52V228ZM227.821 228.168C225.735 228.168 224.433 226.684 224.433 224.332C224.433 221.994 225.735 220.524 227.821 220.524C229.921 220.524 231.223 221.994 231.223 224.332C231.223 226.684 229.921 228.168 227.821 228.168ZM227.821 226.726C228.759 226.726 229.347 226.124 229.347 225.018V223.66C229.347 222.568 228.759 221.966 227.821 221.966C226.897 221.966 226.309 222.568 226.309 223.66V225.018C226.309 226.124 226.897 226.726 227.821 226.726ZM235.869 228.168C233.783 228.168 232.481 226.684 232.481 224.332C232.481 221.994 233.783 220.524 235.869 220.524C237.969 220.524 239.271 221.994 239.271 224.332C239.271 226.684 237.969 228.168 235.869 228.168ZM235.869 226.726C236.807 226.726 237.395 226.124 237.395 225.018V223.66C237.395 222.568 236.807 221.966 235.869 221.966C234.945 221.966 234.357 222.568 234.357 223.66V225.018C234.357 226.124 234.945 226.726 235.869 226.726ZM243.247 228C242.015 228 241.357 227.328 241.357 226.138V222.12H240.279V220.692H240.839C241.371 220.692 241.539 220.44 241.539 219.936V218.69H243.149V220.692H244.647V222.12H243.149V226.572H244.535V228H243.247ZM249.83 228V217.64H251.622V223.884H251.692L252.658 222.568L254.296 220.692H256.326L253.806 223.52L256.592 228H254.464L252.588 224.724L251.622 225.774V228H249.83ZM260.464 228.168C258.308 228.168 257.02 226.67 257.02 224.332C257.02 222.022 258.266 220.524 260.408 220.524C262.69 220.524 263.74 222.204 263.74 224.206V224.794H258.882V224.976C258.882 226.026 259.484 226.74 260.66 226.74C261.542 226.74 262.074 226.32 262.522 225.746L263.488 226.824C262.886 227.65 261.822 228.168 260.464 228.168ZM260.436 221.868C259.498 221.868 258.882 222.568 258.882 223.576V223.688H261.878V223.562C261.878 222.554 261.36 221.868 260.436 221.868ZM268.601 224.556L269.875 220.692H271.555L268.615 229.302C268.251 230.352 267.733 230.8 266.529 230.8H265.451V229.372H266.767L267.103 228.35L264.485 220.692H266.263L267.537 224.556L268.013 226.404H268.097L268.601 224.556Z" fill="black"/>
<line x1="121" y1="199" x2="121" y2="247" stroke="#0F62FE" stroke-width="4"/>
</g>
<rect x="119.5" y="199.5" width="243" height="162" stroke="#0F62FE"/>
<rect x="193" y="267" width="95" height="40" rx="20" fill="#0F62FE"/>
<path d="M222.546 291.168C220.978 291.168 219.872 290.524 219.088 289.46L219.956 288.732C220.642 289.642 221.454 290.132 222.588 290.132C223.988 290.132 224.744 289.404 224.744 288.284C224.744 287.36 224.226 286.898 222.938 286.604L222.14 286.422C220.362 286.016 219.382 285.232 219.382 283.734C219.382 281.998 220.698 281.06 222.616 281.06C224.086 281.06 225.122 281.62 225.85 282.656L224.968 283.3C224.436 282.558 223.694 282.096 222.56 282.096C221.314 282.096 220.544 282.642 220.544 283.692C220.544 284.616 221.146 285.036 222.378 285.316L223.176 285.498C225.08 285.932 225.906 286.772 225.906 288.228C225.906 290.02 224.646 291.168 222.546 291.168ZM230.563 291.168C228.603 291.168 227.315 289.684 227.315 287.388C227.315 285.092 228.603 283.608 230.563 283.608C232.495 283.608 233.685 285.092 233.685 287.136V287.668H228.491V288.004C228.491 289.25 229.289 290.188 230.633 290.188C231.543 290.188 232.243 289.74 232.621 288.942L233.419 289.516C232.957 290.496 231.921 291.168 230.563 291.168ZM230.563 284.546C229.345 284.546 228.491 285.47 228.491 286.73V286.828H232.481V286.674C232.481 285.4 231.711 284.546 230.563 284.546ZM238.269 291.168C236.309 291.168 235.021 289.684 235.021 287.388C235.021 285.092 236.309 283.608 238.269 283.608C240.201 283.608 241.391 285.092 241.391 287.136V287.668H236.197V288.004C236.197 289.25 236.995 290.188 238.339 290.188C239.249 290.188 239.949 289.74 240.327 288.942L241.125 289.516C240.663 290.496 239.627 291.168 238.269 291.168ZM238.269 284.546C237.051 284.546 236.197 285.47 236.197 286.73V286.828H240.187V286.674C240.187 285.4 239.417 284.546 238.269 284.546ZM247.879 291V289.824H247.823C247.389 290.72 246.703 291.168 245.709 291.168C243.903 291.168 242.769 289.698 242.769 287.388C242.769 285.078 243.903 283.608 245.709 283.608C246.703 283.608 247.445 284.042 247.823 284.952H247.879V280.64H248.999V291H247.879ZM246.017 290.16C247.039 290.16 247.879 289.628 247.879 288.69V286.002C247.879 285.204 247.039 284.616 246.017 284.616C244.757 284.616 243.973 285.484 243.973 286.772V288.004C243.973 289.292 244.757 290.16 246.017 290.16ZM256.134 285.372H257.198C258.514 285.372 259.186 284.686 259.186 283.748V283.65C259.186 282.628 258.472 282.11 257.436 282.11C256.428 282.11 255.826 282.586 255.42 283.328L254.552 282.656C255.042 281.872 255.896 281.06 257.464 281.06C259.116 281.06 260.432 281.942 260.432 283.524C260.432 284.784 259.592 285.54 258.556 285.806V285.862C259.606 286.072 260.614 286.856 260.614 288.326C260.614 290.006 259.284 291.168 257.296 291.168C255.602 291.168 254.734 290.342 254.132 289.502L255.014 288.83C255.518 289.6 256.092 290.118 257.282 290.118C258.654 290.118 259.382 289.46 259.382 288.312V288.2C259.382 287.052 258.654 286.394 257.282 286.394H256.134V285.372Z" fill="white"/>
<rect x="618" y="159" width="95" height="40" rx="20" fill="#0F62FE"/>
<path d="M647.546 183.168C645.978 183.168 644.872 182.524 644.088 181.46L644.956 180.732C645.642 181.642 646.454 182.132 647.588 182.132C648.988 182.132 649.744 181.404 649.744 180.284C649.744 179.36 649.226 178.898 647.938 178.604L647.14 178.422C645.362 178.016 644.382 177.232 644.382 175.734C644.382 173.998 645.698 173.06 647.616 173.06C649.086 173.06 650.122 173.62 650.85 174.656L649.968 175.3C649.436 174.558 648.694 174.096 647.56 174.096C646.314 174.096 645.544 174.642 645.544 175.692C645.544 176.616 646.146 177.036 647.378 177.316L648.176 177.498C650.08 177.932 650.906 178.772 650.906 180.228C650.906 182.02 649.646 183.168 647.546 183.168ZM655.563 183.168C653.603 183.168 652.315 181.684 652.315 179.388C652.315 177.092 653.603 175.608 655.563 175.608C657.495 175.608 658.685 177.092 658.685 179.136V179.668H653.491V180.004C653.491 181.25 654.289 182.188 655.633 182.188C656.543 182.188 657.243 181.74 657.621 180.942L658.419 181.516C657.957 182.496 656.921 183.168 655.563 183.168ZM655.563 176.546C654.345 176.546 653.491 177.47 653.491 178.73V178.828H657.481V178.674C657.481 177.4 656.711 176.546 655.563 176.546ZM663.269 183.168C661.309 183.168 660.021 181.684 660.021 179.388C660.021 177.092 661.309 175.608 663.269 175.608C665.201 175.608 666.391 177.092 666.391 179.136V179.668H661.197V180.004C661.197 181.25 661.995 182.188 663.339 182.188C664.249 182.188 664.949 181.74 665.327 180.942L666.125 181.516C665.663 182.496 664.627 183.168 663.269 183.168ZM663.269 176.546C662.051 176.546 661.197 177.47 661.197 178.73V178.828H665.187V178.674C665.187 177.4 664.417 176.546 663.269 176.546ZM672.879 183V181.824H672.823C672.389 182.72 671.703 183.168 670.709 183.168C668.903 183.168 667.769 181.698 667.769 179.388C667.769 177.078 668.903 175.608 670.709 175.608C671.703 175.608 672.445 176.042 672.823 176.952H672.879V172.64H673.999V183H672.879ZM671.017 182.16C672.039 182.16 672.879 181.628 672.879 180.69V178.002C672.879 177.204 672.039 176.616 671.017 176.616C669.757 176.616 668.973 177.484 668.973 178.772V180.004C668.973 181.292 669.757 182.16 671.017 182.16ZM686.202 183H679.776V181.964H682.506V174.096H682.408L679.944 176.392L679.258 175.65L681.848 173.228H683.682V181.964H686.202V183Z" fill="white"/>
<rect x="645" y="527" width="149" height="40" rx="20" fill="#0F62FE"/>
<path d="M671.636 551H666.302V541.228H667.478V549.964H671.636V551ZM672.872 541.228H674.048V547.276C674.048 549.138 674.65 550.118 676.386 550.118C678.122 550.118 678.724 549.138 678.724 547.276V541.228H679.9V546.996C679.9 549.838 678.948 551.168 676.344 551.168C673.74 551.168 672.872 549.838 672.872 546.996V541.228ZM688.262 551L685.014 546.198L683.628 547.738V551H682.452V541.228H683.628V546.422H683.67L685.07 544.728L688.024 541.228H689.466L685.826 545.414L689.718 551H688.262ZM694.023 551.168C692.455 551.168 691.349 550.524 690.565 549.46L691.433 548.732C692.119 549.642 692.931 550.132 694.065 550.132C695.465 550.132 696.221 549.404 696.221 548.284C696.221 547.36 695.703 546.898 694.415 546.604L693.617 546.422C691.839 546.016 690.859 545.232 690.859 543.734C690.859 541.998 692.175 541.06 694.093 541.06C695.563 541.06 696.599 541.62 697.327 542.656L696.445 543.3C695.913 542.558 695.171 542.096 694.037 542.096C692.791 542.096 692.021 542.642 692.021 543.692C692.021 544.616 692.623 545.036 693.855 545.316L694.653 545.498C696.557 545.932 697.383 546.772 697.383 548.228C697.383 550.02 696.123 551.168 694.023 551.168ZM702.656 553.8V543.776H703.776V544.952H703.832C704.21 544.042 704.952 543.608 705.946 543.608C707.752 543.608 708.886 545.078 708.886 547.388C708.886 549.698 707.752 551.168 705.946 551.168C704.952 551.168 704.266 550.72 703.832 549.824H703.776V553.8H702.656ZM705.638 550.16C706.898 550.16 707.682 549.292 707.682 548.004V546.772C707.682 545.484 706.898 544.616 705.638 544.616C704.616 544.616 703.776 545.204 703.776 546.002V548.69C703.776 549.628 704.616 550.16 705.638 550.16ZM716.679 551H716.049C715.223 551 714.887 550.496 714.803 549.824H714.733C714.425 550.706 713.655 551.168 712.647 551.168C711.121 551.168 710.225 550.328 710.225 548.984C710.225 547.626 711.205 546.87 713.305 546.87H714.733V546.156C714.733 545.134 714.173 544.574 713.025 544.574C712.157 544.574 711.583 544.994 711.191 545.652L710.519 545.022C710.911 544.252 711.779 543.608 713.081 543.608C714.817 543.608 715.853 544.518 715.853 546.044V550.02H716.679V551ZM712.829 550.216C713.935 550.216 714.733 549.642 714.733 548.9V547.71H713.249C711.975 547.71 711.401 548.102 711.401 548.802V549.096C711.401 549.81 711.961 550.216 712.829 550.216ZM720.47 551.168C719.14 551.168 718.258 550.608 717.614 549.754L718.412 549.11C718.972 549.81 719.644 550.216 720.554 550.216C721.506 550.216 722.066 549.782 722.066 549.04C722.066 548.48 721.758 548.046 720.806 547.906L720.232 547.822C718.902 547.626 717.908 547.08 717.908 545.736C717.908 544.308 719.014 543.608 720.484 543.608C721.646 543.608 722.416 544.042 723.004 544.77L722.262 545.442C721.94 544.994 721.324 544.56 720.4 544.56C719.476 544.56 718.986 544.994 718.986 545.68C718.986 546.38 719.476 546.66 720.372 546.8L720.932 546.884C722.528 547.122 723.144 547.822 723.144 548.914C723.144 550.314 722.122 551.168 720.47 551.168ZM727.233 551.168C725.903 551.168 725.021 550.608 724.377 549.754L725.175 549.11C725.735 549.81 726.407 550.216 727.317 550.216C728.269 550.216 728.829 549.782 728.829 549.04C728.829 548.48 728.521 548.046 727.569 547.906L726.995 547.822C725.665 547.626 724.671 547.08 724.671 545.736C724.671 544.308 725.777 543.608 727.247 543.608C728.409 543.608 729.179 544.042 729.767 544.77L729.025 545.442C728.703 544.994 728.087 544.56 727.163 544.56C726.239 544.56 725.749 544.994 725.749 545.68C725.749 546.38 726.239 546.66 727.135 546.8L727.695 546.884C729.291 547.122 729.907 547.822 729.907 548.914C729.907 550.314 728.885 551.168 727.233 551.168ZM731.907 553.8V543.776H733.027V544.952H733.083C733.461 544.042 734.203 543.608 735.197 543.608C737.003 543.608 738.137 545.078 738.137 547.388C738.137 549.698 737.003 551.168 735.197 551.168C734.203 551.168 733.517 550.72 733.083 549.824H733.027V553.8H731.907ZM734.889 550.16C736.149 550.16 736.933 549.292 736.933 548.004V546.772C736.933 545.484 736.149 544.616 734.889 544.616C733.867 544.616 733.027 545.204 733.027 546.002V548.69C733.027 549.628 733.867 550.16 734.889 550.16ZM740.051 551V540.64H741.171V544.952H741.227C741.577 544.14 742.193 543.608 743.271 543.608C744.755 543.608 745.693 544.616 745.693 546.366V551H744.573V546.562C744.573 545.274 744.013 544.616 742.935 544.616C742.039 544.616 741.171 545.064 741.171 545.988V551H740.051ZM749.15 551H748.03V543.776H749.15V545.106H749.22C749.472 544.42 750.13 543.776 751.306 543.776H751.74V544.896H751.082C749.878 544.896 749.15 545.414 749.15 546.1V551ZM759.018 551H758.388C757.562 551 757.226 550.496 757.142 549.824H757.072C756.764 550.706 755.994 551.168 754.986 551.168C753.46 551.168 752.564 550.328 752.564 548.984C752.564 547.626 753.544 546.87 755.644 546.87H757.072V546.156C757.072 545.134 756.512 544.574 755.364 544.574C754.496 544.574 753.922 544.994 753.53 545.652L752.858 545.022C753.25 544.252 754.118 543.608 755.42 543.608C757.156 543.608 758.192 544.518 758.192 546.044V550.02H759.018V551ZM755.168 550.216C756.274 550.216 757.072 549.642 757.072 548.9V547.71H755.588C754.314 547.71 753.74 548.102 753.74 548.802V549.096C753.74 549.81 754.3 550.216 755.168 550.216ZM762.809 551.168C761.479 551.168 760.597 550.608 759.953 549.754L760.751 549.11C761.311 549.81 761.983 550.216 762.893 550.216C763.845 550.216 764.405 549.782 764.405 549.04C764.405 548.48 764.097 548.046 763.145 547.906L762.571 547.822C761.241 547.626 760.247 547.08 760.247 545.736C760.247 544.308 761.353 543.608 762.823 543.608C763.985 543.608 764.755 544.042 765.343 544.77L764.601 545.442C764.279 544.994 763.663 544.56 762.739 544.56C761.815 544.56 761.325 544.994 761.325 545.68C761.325 546.38 761.815 546.66 762.711 546.8L763.271 546.884C764.867 547.122 765.483 547.822 765.483 548.914C765.483 550.314 764.461 551.168 762.809 551.168ZM770.2 551.168C768.24 551.168 766.952 549.684 766.952 547.388C766.952 545.092 768.24 543.608 770.2 543.608C772.132 543.608 773.322 545.092 773.322 547.136V547.668H768.128V548.004C768.128 549.25 768.926 550.188 770.27 550.188C771.18 550.188 771.88 549.74 772.258 548.942L773.056 549.516C772.594 550.496 771.558 551.168 770.2 551.168ZM770.2 544.546C768.982 544.546 768.128 545.47 768.128 546.73V546.828H772.118V546.674C772.118 545.4 771.348 544.546 770.2 544.546Z" fill="white"/>
<rect x="746" y="159" width="95" height="40" rx="20" fill="#0F62FE"/>
<path d="M775.546 183.168C773.978 183.168 772.872 182.524 772.088 181.46L772.956 180.732C773.642 181.642 774.454 182.132 775.588 182.132C776.988 182.132 777.744 181.404 777.744 180.284C777.744 179.36 777.226 178.898 775.938 178.604L775.14 178.422C773.362 178.016 772.382 177.232 772.382 175.734C772.382 173.998 773.698 173.06 775.616 173.06C777.086 173.06 778.122 173.62 778.85 174.656L777.968 175.3C777.436 174.558 776.694 174.096 775.56 174.096C774.314 174.096 773.544 174.642 773.544 175.692C773.544 176.616 774.146 177.036 775.378 177.316L776.176 177.498C778.08 177.932 778.906 178.772 778.906 180.228C778.906 182.02 777.646 183.168 775.546 183.168ZM783.563 183.168C781.603 183.168 780.315 181.684 780.315 179.388C780.315 177.092 781.603 175.608 783.563 175.608C785.495 175.608 786.685 177.092 786.685 179.136V179.668H781.491V180.004C781.491 181.25 782.289 182.188 783.633 182.188C784.543 182.188 785.243 181.74 785.621 180.942L786.419 181.516C785.957 182.496 784.921 183.168 783.563 183.168ZM783.563 176.546C782.345 176.546 781.491 177.47 781.491 178.73V178.828H785.481V178.674C785.481 177.4 784.711 176.546 783.563 176.546ZM791.269 183.168C789.309 183.168 788.021 181.684 788.021 179.388C788.021 177.092 789.309 175.608 791.269 175.608C793.201 175.608 794.391 177.092 794.391 179.136V179.668H789.197V180.004C789.197 181.25 789.995 182.188 791.339 182.188C792.249 182.188 792.949 181.74 793.327 180.942L794.125 181.516C793.663 182.496 792.627 183.168 791.269 183.168ZM791.269 176.546C790.051 176.546 789.197 177.47 789.197 178.73V178.828H793.187V178.674C793.187 177.4 792.417 176.546 791.269 176.546ZM800.879 183V181.824H800.823C800.389 182.72 799.703 183.168 798.709 183.168C796.903 183.168 795.769 181.698 795.769 179.388C795.769 177.078 796.903 175.608 798.709 175.608C799.703 175.608 800.445 176.042 800.823 176.952H800.879V172.64H801.999V183H800.879ZM799.017 182.16C800.039 182.16 800.879 181.628 800.879 180.69V178.002C800.879 177.204 800.039 176.616 799.017 176.616C797.757 176.616 796.973 177.484 796.973 178.772V180.004C796.973 181.292 797.757 182.16 799.017 182.16ZM814.006 181.964V183H807.594V181.796L810.786 178.856C811.696 178.016 812.396 177.036 812.396 176.098V175.93C812.396 174.852 811.794 174.11 810.59 174.11C809.386 174.11 808.826 174.838 808.56 175.762L807.51 175.356C807.888 174.208 808.756 173.06 810.646 173.06C812.55 173.06 813.642 174.236 813.642 175.902C813.642 177.414 812.746 178.478 811.5 179.598L808.868 181.964H814.006Z" fill="white"/>
<rect width="554" height="8" transform="translate(240 327)" fill="white" style="mix-blend-mode:multiply"/>
<rect width="554" height="0" transform="translate(240 331)" fill="white" style="mix-blend-mode:multiply"/>
<path d="M240 331H794" stroke="black"/>
<rect width="132" height="8" transform="matrix(0 -1 1 0 790 331)" fill="white" style="mix-blend-mode:multiply"/>
<rect width="132" height="0" transform="matrix(0 -1 1 0 794 331)" fill="white" style="mix-blend-mode:multiply"/>
<path d="M794 331V199" stroke="black"/>
<rect width="132" height="8" transform="matrix(0 -1 1 0 662 331)" fill="white" style="mix-blend-mode:multiply"/>
<rect width="132" height="0" transform="matrix(0 -1 1 0 666 331)" fill="white" style="mix-blend-mode:multiply"/>
<path d="M666 331V199" stroke="black"/>
<rect width="196" height="8" transform="matrix(0 -1 1 0 716 527)" fill="white" style="mix-blend-mode:multiply"/>
<rect width="8" height="8" transform="matrix(0 1 1 0 716 519)" fill="white" style="mix-blend-mode:multiply"/>
<path d="M716 519L720 527L724 519H716Z" fill="black"/>
<rect width="189" height="0" transform="matrix(0 -1 1 0 720 520)" fill="white" style="mix-blend-mode:multiply"/>
<path d="M720 520V331" stroke="black"/>
<rect width="239" height="8" transform="translate(406 543)" fill="white" style="mix-blend-mode:multiply"/>
<rect width="8" height="8" transform="matrix(-1 0 0 1 414 543)" fill="white" style="mix-blend-mode:multiply"/>
<path d="M414 543L406 547L414 551V543Z" fill="black"/>
<rect width="232" height="0" transform="translate(413 547)" fill="white" style="mix-blend-mode:multiply"/>
<path d="M413 547H645" stroke="black"/>
<rect width="24" height="8" transform="matrix(0 -1 1 0 236 331)" fill="white" style="mix-blend-mode:multiply"/>
<rect width="24" height="0" transform="matrix(0 -1 1 0 240 331)" fill="white" style="mix-blend-mode:multiply"/>
<path d="M240 331V307" stroke="black"/>
<path d="M506.588 536H500.148V526.228H506.588V527.866H501.996V530.232H506.056V531.87H501.996V534.362H506.588V536ZM510.383 536H508.591V528.692H510.383V529.91H510.453C510.747 529.126 511.363 528.524 512.497 528.524C513.995 528.524 514.835 529.56 514.835 531.38V536H513.043V531.562C513.043 530.526 512.693 529.994 511.839 529.994C511.097 529.994 510.383 530.386 510.383 531.17V536ZM519.865 536.168C517.709 536.168 516.491 534.684 516.491 532.332C516.491 529.994 517.709 528.524 519.865 528.524C521.335 528.524 522.301 529.224 522.735 530.372L521.265 531.03C521.097 530.414 520.635 529.966 519.865 529.966C518.871 529.966 518.367 530.666 518.367 531.688V533.018C518.367 534.04 518.871 534.726 519.865 534.726C520.719 534.726 521.139 534.236 521.405 533.578L522.777 534.236C522.301 535.524 521.279 536.168 519.865 536.168ZM526.111 536H524.319V528.692H526.111V530.204H526.181C526.363 529.434 526.951 528.692 528.113 528.692H528.505V530.386H527.945C526.741 530.386 526.111 530.722 526.111 531.52V536ZM533.29 532.556L534.564 528.692H536.244L533.304 537.302C532.94 538.352 532.422 538.8 531.218 538.8H530.14V537.372H531.456L531.792 536.35L529.174 528.692H530.952L532.226 532.556L532.702 534.404H532.786L533.29 532.556ZM537.586 538.8V528.692H539.378V529.896H539.434C539.7 529.056 540.484 528.524 541.45 528.524C543.298 528.524 544.32 529.896 544.32 532.332C544.32 534.782 543.298 536.168 541.45 536.168C540.484 536.168 539.714 535.608 539.434 534.782H539.378V538.8H537.586ZM540.876 534.684C541.8 534.684 542.444 534.012 542.444 532.976V531.716C542.444 530.68 541.8 529.994 540.876 529.994C540.022 529.994 539.378 530.456 539.378 531.17V533.494C539.378 534.25 540.022 534.684 540.876 534.684ZM548.34 536C547.108 536 546.45 535.328 546.45 534.138V530.12H545.372V528.692H545.932C546.464 528.692 546.632 528.44 546.632 527.936V526.69H548.242V528.692H549.74V530.12H548.242V534.572H549.628V536H548.34ZM553.849 536.168C552.463 536.168 551.553 535.664 550.825 534.824L551.917 533.76C552.449 534.376 553.093 534.754 553.919 534.754C554.773 534.754 555.137 534.432 555.137 533.914C555.137 533.494 554.885 533.228 554.241 533.144L553.513 533.046C551.945 532.85 551.077 532.164 551.077 530.834C551.077 529.42 552.183 528.524 553.849 528.524C555.277 528.524 556.005 528.944 556.705 529.672L555.655 530.722C555.235 530.274 554.619 529.938 553.905 529.938C553.135 529.938 552.799 530.246 552.799 530.694C552.799 531.184 553.065 531.408 553.751 531.52L554.493 531.618C556.089 531.842 556.859 532.556 556.859 533.774C556.859 535.188 555.669 536.168 553.849 536.168Z" fill="black"/>
<path d="M741.378 434V432.488H741.322C741.154 433.44 740.23 434.168 738.76 434.168C736.464 434.168 734.728 432.418 734.728 429.142C734.728 425.866 736.478 424.06 739.082 424.06C740.818 424.06 742.078 424.858 742.778 426.286L741.28 427.168C740.93 426.328 740.244 425.698 739.082 425.698C737.64 425.698 736.688 426.608 736.688 428.33V429.898C736.688 431.606 737.64 432.53 739.11 432.53C740.258 432.53 741.196 431.97 741.196 430.864V430.234H739.278V428.68H742.974V434H741.378ZM748.117 434.168C745.961 434.168 744.673 432.67 744.673 430.332C744.673 428.022 745.919 426.524 748.061 426.524C750.343 426.524 751.393 428.204 751.393 430.206V430.794H746.535V430.976C746.535 432.026 747.137 432.74 748.313 432.74C749.195 432.74 749.727 432.32 750.175 431.746L751.141 432.824C750.539 433.65 749.475 434.168 748.117 434.168ZM748.089 427.868C747.151 427.868 746.535 428.568 746.535 429.576V429.688H749.531V429.562C749.531 428.554 749.013 427.868 748.089 427.868ZM754.921 434H753.129V426.692H754.921V427.91H754.991C755.285 427.126 755.901 426.524 757.035 426.524C758.533 426.524 759.373 427.56 759.373 429.38V434H757.581V429.562C757.581 428.526 757.231 427.994 756.377 427.994C755.635 427.994 754.921 428.386 754.921 429.17V434ZM764.474 434.168C762.318 434.168 761.03 432.67 761.03 430.332C761.03 428.022 762.276 426.524 764.418 426.524C766.7 426.524 767.75 428.204 767.75 430.206V430.794H762.892V430.976C762.892 432.026 763.494 432.74 764.67 432.74C765.552 432.74 766.084 432.32 766.532 431.746L767.498 432.824C766.896 433.65 765.832 434.168 764.474 434.168ZM764.446 427.868C763.508 427.868 762.892 428.568 762.892 429.576V429.688H765.888V429.562C765.888 428.554 765.37 427.868 764.446 427.868ZM771.279 434H769.487V426.692H771.279V428.204H771.349C771.531 427.434 772.119 426.692 773.281 426.692H773.673V428.386H773.113C771.909 428.386 771.279 428.722 771.279 429.52V434ZM776.798 434.168C775.314 434.168 774.474 433.314 774.474 432.012C774.474 430.514 775.608 429.772 777.596 429.772H778.842V429.24C778.842 428.428 778.436 427.952 777.484 427.952C776.644 427.952 776.168 428.372 775.818 428.876L774.754 427.924C775.286 427.084 776.14 426.524 777.61 426.524C779.584 426.524 780.634 427.462 780.634 429.128V432.572H781.362V434H780.368C779.598 434 779.122 433.496 779.01 432.74H778.926C778.688 433.678 777.89 434.168 776.798 434.168ZM777.4 432.866C778.198 432.866 778.842 432.502 778.842 431.816V430.85H777.694C776.756 430.85 776.294 431.172 776.294 431.746V431.984C776.294 432.572 776.7 432.866 777.4 432.866ZM785.2 434C783.968 434 783.31 433.328 783.31 432.138V428.12H782.232V426.692H782.792C783.324 426.692 783.492 426.44 783.492 425.936V424.69H785.102V426.692H786.6V428.12H785.102V432.572H786.488V434H785.2ZM791.214 434.168C789.058 434.168 787.77 432.67 787.77 430.332C787.77 428.022 789.016 426.524 791.158 426.524C793.44 426.524 794.49 428.204 794.49 430.206V430.794H789.632V430.976C789.632 432.026 790.234 432.74 791.41 432.74C792.292 432.74 792.824 432.32 793.272 431.746L794.238 432.824C793.636 433.65 792.572 434.168 791.214 434.168ZM791.186 427.868C790.248 427.868 789.632 428.568 789.632 429.576V429.688H792.628V429.562C792.628 428.554 792.11 427.868 791.186 427.868ZM798.62 434.168C797.234 434.168 796.324 433.664 795.596 432.824L796.688 431.76C797.22 432.376 797.864 432.754 798.69 432.754C799.544 432.754 799.908 432.432 799.908 431.914C799.908 431.494 799.656 431.228 799.012 431.144L798.284 431.046C796.716 430.85 795.848 430.164 795.848 428.834C795.848 427.42 796.954 426.524 798.62 426.524C800.048 426.524 800.776 426.944 801.476 427.672L800.426 428.722C800.006 428.274 799.39 427.938 798.676 427.938C797.906 427.938 797.57 428.246 797.57 428.694C797.57 429.184 797.836 429.408 798.522 429.52L799.264 429.618C800.86 429.842 801.63 430.556 801.63 431.774C801.63 433.188 800.44 434.168 798.62 434.168Z" fill="black"/>
<path d="M31.18 39H26.742V37.516H28.03V30.712H26.742V29.228H31.18V30.712H29.878V37.516H31.18V39ZM34.9079 39H33.1159V31.692H34.9079V32.91H34.9779C35.2719 32.126 35.8879 31.524 37.0219 31.524C38.5199 31.524 39.3599 32.56 39.3599 34.38V39H37.5679V34.562C37.5679 33.526 37.2179 32.994 36.3639 32.994C35.6219 32.994 34.9079 33.386 34.9079 34.17V39ZM43.7884 39C42.5564 39 41.8984 38.328 41.8984 37.138V33.12H40.8204V31.692H41.3804C41.9124 31.692 42.0804 31.44 42.0804 30.936V29.69H43.6904V31.692H45.1884V33.12H43.6904V37.572H45.0764V39H43.7884ZM49.802 39.168C47.646 39.168 46.358 37.67 46.358 35.332C46.358 33.022 47.604 31.524 49.746 31.524C52.028 31.524 53.078 33.204 53.078 35.206V35.794H48.22V35.976C48.22 37.026 48.822 37.74 49.998 37.74C50.88 37.74 51.412 37.32 51.86 36.746L52.826 37.824C52.224 38.65 51.16 39.168 49.802 39.168ZM49.774 32.868C48.836 32.868 48.22 33.568 48.22 34.576V34.688H51.216V34.562C51.216 33.554 50.698 32.868 49.774 32.868ZM61.4087 39.616C61.4087 41.142 60.3727 41.968 57.5727 41.968C55.1087 41.968 54.1707 41.324 54.1707 40.246C54.1707 39.434 54.6607 38.972 55.4727 38.846V38.692C54.8707 38.538 54.5347 38.062 54.5347 37.474C54.5347 36.718 55.1787 36.34 55.8787 36.186V36.13C54.9967 35.724 54.5487 34.968 54.5487 34.002C54.5487 32.518 55.5987 31.524 57.5727 31.524C58.0207 31.524 58.4827 31.58 58.8467 31.706V31.468C58.8467 30.754 59.2107 30.404 59.8827 30.404H61.0167V31.776H59.4627V31.972C60.2187 32.392 60.5967 33.106 60.5967 34.002C60.5967 35.472 59.5607 36.452 57.5727 36.452C57.1527 36.452 56.7747 36.41 56.4527 36.326C56.1727 36.452 55.9347 36.662 55.9347 36.984C55.9347 37.348 56.2427 37.53 56.8867 37.53H58.8467C60.6387 37.53 61.4087 38.3 61.4087 39.616ZM59.7287 39.826C59.7287 39.364 59.3927 39.084 58.4827 39.084H55.9907C55.7247 39.28 55.6127 39.546 55.6127 39.84C55.6127 40.4 56.0327 40.736 57.1527 40.736H58.0487C59.2107 40.736 59.7287 40.442 59.7287 39.826ZM57.5727 35.234C58.4267 35.234 58.8887 34.842 58.8887 34.114V33.876C58.8887 33.134 58.4267 32.756 57.5727 32.756C56.7187 32.756 56.2567 33.134 56.2567 33.876V34.114C56.2567 34.842 56.7187 35.234 57.5727 35.234ZM64.3956 39H62.6036V31.692H64.3956V33.204H64.4656C64.6476 32.434 65.2356 31.692 66.3976 31.692H66.7896V33.386H66.2296C65.0256 33.386 64.3956 33.722 64.3956 34.52V39ZM69.9153 39.168C68.4313 39.168 67.5913 38.314 67.5913 37.012C67.5913 35.514 68.7253 34.772 70.7133 34.772H71.9593V34.24C71.9593 33.428 71.5533 32.952 70.6013 32.952C69.7613 32.952 69.2853 33.372 68.9353 33.876L67.8713 32.924C68.4033 32.084 69.2573 31.524 70.7273 31.524C72.7013 31.524 73.7513 32.462 73.7513 34.128V37.572H74.4793V39H73.4853C72.7153 39 72.2393 38.496 72.1273 37.74H72.0433C71.8053 38.678 71.0073 39.168 69.9153 39.168ZM70.5173 37.866C71.3153 37.866 71.9593 37.502 71.9593 36.816V35.85H70.8113C69.8733 35.85 69.4113 36.172 69.4113 36.746V36.984C69.4113 37.572 69.8173 37.866 70.5173 37.866ZM78.3169 39C77.0849 39 76.4269 38.328 76.4269 37.138V33.12H75.3489V31.692H75.9089C76.4409 31.692 76.6089 31.44 76.6089 30.936V29.69H78.2189V31.692H79.7169V33.12H78.2189V37.572H79.6049V39H78.3169ZM82.3272 30.628C81.5852 30.628 81.2772 30.25 81.2772 29.732V29.452C81.2772 28.934 81.5852 28.556 82.3272 28.556C83.0552 28.556 83.3772 28.934 83.3772 29.452V29.732C83.3772 30.25 83.0552 30.628 82.3272 30.628ZM81.4312 39V31.692H83.2232V39H81.4312ZM88.3584 39.168C86.2724 39.168 84.9704 37.684 84.9704 35.332C84.9704 32.994 86.2724 31.524 88.3584 31.524C90.4584 31.524 91.7604 32.994 91.7604 35.332C91.7604 37.684 90.4584 39.168 88.3584 39.168ZM88.3584 37.726C89.2964 37.726 89.8844 37.124 89.8844 36.018V34.66C89.8844 33.568 89.2964 32.966 88.3584 32.966C87.4344 32.966 86.8464 33.568 86.8464 34.66V36.018C86.8464 37.124 87.4344 37.726 88.3584 37.726ZM95.301 39H93.509V31.692H95.301V32.91H95.371C95.665 32.126 96.281 31.524 97.415 31.524C98.913 31.524 99.753 32.56 99.753 34.38V39H97.961V34.562C97.961 33.526 97.611 32.994 96.757 32.994C96.015 32.994 95.301 33.386 95.301 34.17V39ZM106.67 39L104.654 31.692H106.376L107.118 34.702L107.692 37.208H107.748L108.42 34.702L109.274 31.692H110.898L111.78 34.702L112.466 37.208H112.522L113.096 34.702L113.824 31.692H115.49L113.488 39H111.556L110.618 35.78L110.072 33.792H110.03L109.498 35.78L108.574 39H106.67ZM117.895 30.628C117.153 30.628 116.845 30.25 116.845 29.732V29.452C116.845 28.934 117.153 28.556 117.895 28.556C118.623 28.556 118.945 28.934 118.945 29.452V29.732C118.945 30.25 118.623 30.628 117.895 30.628ZM116.999 39V31.692H118.791V39H116.999ZM123.31 39C122.078 39 121.42 38.328 121.42 37.138V33.12H120.342V31.692H120.902C121.434 31.692 121.602 31.44 121.602 30.936V29.69H123.212V31.692H124.71V33.12H123.212V37.572H124.598V39H123.31ZM126.424 39V28.64H128.216V32.91H128.286C128.58 32.126 129.196 31.524 130.33 31.524C131.828 31.524 132.668 32.56 132.668 34.38V39H130.876V34.562C130.876 33.526 130.526 32.994 129.672 32.994C128.93 32.994 128.216 33.386 128.216 34.17V39H126.424ZM138.283 39V28.64H140.075V34.884H140.145L141.111 33.568L142.749 31.692H144.779L142.259 34.52L145.045 39H142.917L141.041 35.724L140.075 36.774V39H138.283ZM148.917 39.168C146.761 39.168 145.473 37.67 145.473 35.332C145.473 33.022 146.719 31.524 148.861 31.524C151.143 31.524 152.193 33.204 152.193 35.206V35.794H147.335V35.976C147.335 37.026 147.937 37.74 149.113 37.74C149.995 37.74 150.527 37.32 150.975 36.746L151.941 37.824C151.339 38.65 150.275 39.168 148.917 39.168ZM148.889 32.868C147.951 32.868 147.335 33.568 147.335 34.576V34.688H150.331V34.562C150.331 33.554 149.813 32.868 148.889 32.868ZM157.053 35.556L158.327 31.692H160.007L157.067 40.302C156.703 41.352 156.185 41.8 154.981 41.8H153.903V40.372H155.219L155.555 39.35L152.937 31.692H154.715L155.989 35.556L156.465 37.404H156.549L157.053 35.556ZM166.61 39H164.818V31.692H166.61V32.91H166.68C166.96 32.14 167.548 31.524 168.64 31.524C169.634 31.524 170.404 32.014 170.754 32.994H170.782C171.048 32.182 171.86 31.524 173.022 31.524C174.45 31.524 175.262 32.56 175.262 34.38V39H173.47V34.562C173.47 33.512 173.092 32.994 172.294 32.994C171.594 32.994 170.936 33.386 170.936 34.17V39H169.144V34.562C169.144 33.512 168.766 32.994 167.968 32.994C167.282 32.994 166.61 33.386 166.61 34.17V39ZM179.212 39.168C177.728 39.168 176.888 38.314 176.888 37.012C176.888 35.514 178.022 34.772 180.01 34.772H181.256V34.24C181.256 33.428 180.85 32.952 179.898 32.952C179.058 32.952 178.582 33.372 178.232 33.876L177.168 32.924C177.7 32.084 178.554 31.524 180.024 31.524C181.998 31.524 183.048 32.462 183.048 34.128V37.572H183.776V39H182.782C182.012 39 181.536 38.496 181.424 37.74H181.34C181.102 38.678 180.304 39.168 179.212 39.168ZM179.814 37.866C180.612 37.866 181.256 37.502 181.256 36.816V35.85H180.108C179.17 35.85 178.708 36.172 178.708 36.746V36.984C178.708 37.572 179.114 37.866 179.814 37.866ZM187.178 39H185.386V31.692H187.178V32.91H187.248C187.542 32.126 188.158 31.524 189.292 31.524C190.79 31.524 191.63 32.56 191.63 34.38V39H189.838V34.562C189.838 33.526 189.488 32.994 188.634 32.994C187.892 32.994 187.178 33.386 187.178 34.17V39ZM195.582 39.168C194.098 39.168 193.258 38.314 193.258 37.012C193.258 35.514 194.392 34.772 196.38 34.772H197.626V34.24C197.626 33.428 197.22 32.952 196.268 32.952C195.428 32.952 194.952 33.372 194.602 33.876L193.538 32.924C194.07 32.084 194.924 31.524 196.394 31.524C198.368 31.524 199.418 32.462 199.418 34.128V37.572H200.146V39H199.152C198.382 39 197.906 38.496 197.794 37.74H197.71C197.472 38.678 196.674 39.168 195.582 39.168ZM196.184 37.866C196.982 37.866 197.626 37.502 197.626 36.816V35.85H196.478C195.54 35.85 195.078 36.172 195.078 36.746V36.984C195.078 37.572 195.484 37.866 196.184 37.866ZM208.351 39.616C208.351 41.142 207.315 41.968 204.515 41.968C202.051 41.968 201.113 41.324 201.113 40.246C201.113 39.434 201.603 38.972 202.415 38.846V38.692C201.813 38.538 201.477 38.062 201.477 37.474C201.477 36.718 202.121 36.34 202.821 36.186V36.13C201.939 35.724 201.491 34.968 201.491 34.002C201.491 32.518 202.541 31.524 204.515 31.524C204.963 31.524 205.425 31.58 205.789 31.706V31.468C205.789 30.754 206.153 30.404 206.825 30.404H207.959V31.776H206.405V31.972C207.161 32.392 207.539 33.106 207.539 34.002C207.539 35.472 206.503 36.452 204.515 36.452C204.095 36.452 203.717 36.41 203.395 36.326C203.115 36.452 202.877 36.662 202.877 36.984C202.877 37.348 203.185 37.53 203.829 37.53H205.789C207.581 37.53 208.351 38.3 208.351 39.616ZM206.671 39.826C206.671 39.364 206.335 39.084 205.425 39.084H202.933C202.667 39.28 202.555 39.546 202.555 39.84C202.555 40.4 202.975 40.736 204.095 40.736H204.991C206.153 40.736 206.671 40.442 206.671 39.826ZM204.515 35.234C205.369 35.234 205.831 34.842 205.831 34.114V33.876C205.831 33.134 205.369 32.756 204.515 32.756C203.661 32.756 203.199 33.134 203.199 33.876V34.114C203.199 34.842 203.661 35.234 204.515 35.234ZM212.418 39.168C210.262 39.168 208.974 37.67 208.974 35.332C208.974 33.022 210.22 31.524 212.362 31.524C214.644 31.524 215.694 33.204 215.694 35.206V35.794H210.836V35.976C210.836 37.026 211.438 37.74 212.614 37.74C213.496 37.74 214.028 37.32 214.476 36.746L215.442 37.824C214.84 38.65 213.776 39.168 212.418 39.168ZM212.39 32.868C211.452 32.868 210.836 33.568 210.836 34.576V34.688H213.832V34.562C213.832 33.554 213.314 32.868 212.39 32.868ZM219.222 39H217.43V31.692H219.222V32.91H219.292C219.572 32.14 220.16 31.524 221.252 31.524C222.246 31.524 223.016 32.014 223.366 32.994H223.394C223.66 32.182 224.472 31.524 225.634 31.524C227.062 31.524 227.874 32.56 227.874 34.38V39H226.082V34.562C226.082 33.512 225.704 32.994 224.906 32.994C224.206 32.994 223.548 33.386 223.548 34.17V39H221.756V34.562C221.756 33.512 221.378 32.994 220.58 32.994C219.894 32.994 219.222 33.386 219.222 34.17V39ZM232.972 39.168C230.816 39.168 229.528 37.67 229.528 35.332C229.528 33.022 230.774 31.524 232.916 31.524C235.198 31.524 236.248 33.204 236.248 35.206V35.794H231.39V35.976C231.39 37.026 231.992 37.74 233.168 37.74C234.05 37.74 234.582 37.32 235.03 36.746L235.996 37.824C235.394 38.65 234.33 39.168 232.972 39.168ZM232.944 32.868C232.006 32.868 231.39 33.568 231.39 34.576V34.688H234.386V34.562C234.386 33.554 233.868 32.868 232.944 32.868ZM239.777 39H237.985V31.692H239.777V32.91H239.847C240.141 32.126 240.757 31.524 241.891 31.524C243.389 31.524 244.229 32.56 244.229 34.38V39H242.437V34.562C242.437 33.526 242.087 32.994 241.233 32.994C240.491 32.994 239.777 33.386 239.777 34.17V39ZM248.657 39C247.425 39 246.767 38.328 246.767 37.138V33.12H245.689V31.692H246.249C246.781 31.692 246.949 31.44 246.949 30.936V29.69H248.559V31.692H250.057V33.12H248.559V37.572H249.945V39H248.657ZM257.634 39.168C256.248 39.168 255.338 38.664 254.61 37.824L255.702 36.76C256.234 37.376 256.878 37.754 257.704 37.754C258.558 37.754 258.922 37.432 258.922 36.914C258.922 36.494 258.67 36.228 258.026 36.144L257.298 36.046C255.73 35.85 254.862 35.164 254.862 33.834C254.862 32.42 255.968 31.524 257.634 31.524C259.062 31.524 259.79 31.944 260.49 32.672L259.44 33.722C259.02 33.274 258.404 32.938 257.69 32.938C256.92 32.938 256.584 33.246 256.584 33.694C256.584 34.184 256.85 34.408 257.536 34.52L258.278 34.618C259.874 34.842 260.644 35.556 260.644 36.774C260.644 38.188 259.454 39.168 257.634 39.168ZM265.34 39.168C263.184 39.168 261.896 37.67 261.896 35.332C261.896 33.022 263.142 31.524 265.284 31.524C267.566 31.524 268.616 33.204 268.616 35.206V35.794H263.758V35.976C263.758 37.026 264.36 37.74 265.536 37.74C266.418 37.74 266.95 37.32 267.398 36.746L268.364 37.824C267.762 38.65 266.698 39.168 265.34 39.168ZM265.312 32.868C264.374 32.868 263.758 33.568 263.758 34.576V34.688H266.754V34.562C266.754 33.554 266.236 32.868 265.312 32.868ZM272.145 39H270.353V31.692H272.145V33.204H272.215C272.397 32.434 272.985 31.692 274.147 31.692H274.539V33.386H273.979C272.775 33.386 272.145 33.722 272.145 34.52V39ZM279.814 39H277.686L275.25 31.692H277.014L278.036 34.842L278.75 37.446H278.848L279.562 34.842L280.556 31.692H282.264L279.814 39ZM284.516 30.628C283.774 30.628 283.466 30.25 283.466 29.732V29.452C283.466 28.934 283.774 28.556 284.516 28.556C285.244 28.556 285.566 28.934 285.566 29.452V29.732C285.566 30.25 285.244 30.628 284.516 30.628ZM283.62 39V31.692H285.412V39H283.62ZM290.533 39.168C288.377 39.168 287.159 37.684 287.159 35.332C287.159 32.994 288.377 31.524 290.533 31.524C292.003 31.524 292.969 32.224 293.403 33.372L291.933 34.03C291.765 33.414 291.303 32.966 290.533 32.966C289.539 32.966 289.035 33.666 289.035 34.688V36.018C289.035 37.04 289.539 37.726 290.533 37.726C291.387 37.726 291.807 37.236 292.073 36.578L293.445 37.236C292.969 38.524 291.947 39.168 290.533 39.168ZM297.873 39.168C295.717 39.168 294.429 37.67 294.429 35.332C294.429 33.022 295.675 31.524 297.817 31.524C300.099 31.524 301.149 33.204 301.149 35.206V35.794H296.291V35.976C296.291 37.026 296.893 37.74 298.069 37.74C298.951 37.74 299.483 37.32 299.931 36.746L300.897 37.824C300.295 38.65 299.231 39.168 297.873 39.168ZM297.845 32.868C296.907 32.868 296.291 33.568 296.291 34.576V34.688H299.287V34.562C299.287 33.554 298.769 32.868 297.845 32.868Z" fill="black"/>
<defs>
<clipPath id="clip0_0_1">
<rect width="431" height="48" fill="white" transform="translate(26 71)"/>
</clipPath>
<clipPath id="clip1_0_1">
<rect width="431" height="48" fill="white" transform="translate(514 72)"/>
</clipPath>
<clipPath id="clip2_0_1">
<rect width="332" height="48" fill="white" transform="translate(75 135)"/>
</clipPath>
<clipPath id="clip3_0_1">
<rect width="332" height="48" fill="white" transform="translate(74 421)"/>
</clipPath>
<clipPath id="clip4_0_1">
<rect width="244" height="48" fill="white" transform="translate(119 199)"/>
</clipPath>
</defs>
</svg>
