<svg width="1076" height="456" viewBox="0 0 1076 456" fill="none" xmlns="http://www.w3.org/2000/svg">
<g clip-path="url(#clip0_15_2483)">
<rect width="1076" height="456" fill="white"/>
<rect x="33.5" y="63.5" width="1008" height="356" fill="white" style="mix-blend-mode:multiply"/>
<rect x="34" y="64" width="1007" height="355" fill="white"/>
<rect x="34" y="64" width="1007" height="355" fill="#EDF5FF"/>
<g clip-path="url(#clip1_15_2483)">
<path d="M56.07 92V87.87H51.996V92H50.148V82.228H51.996V86.232H56.07V82.228H57.918V92H56.07ZM63.4645 88.556L64.7385 84.692H66.4185L63.4785 93.302C63.1145 94.352 62.5965 94.8 61.3925 94.8H60.3145V93.372H61.6305L61.9665 92.35L59.3485 84.692H61.1265L62.4005 88.556L62.8765 90.404H62.9605L63.4645 88.556ZM67.7603 94.8V84.692H69.5523V85.896H69.6083C69.8743 85.056 70.6583 84.524 71.6243 84.524C73.4723 84.524 74.4943 85.896 74.4943 88.332C74.4943 90.782 73.4723 92.168 71.6243 92.168C70.6583 92.168 69.8883 91.608 69.6083 90.782H69.5523V94.8H67.7603ZM71.0503 90.684C71.9743 90.684 72.6183 90.012 72.6183 88.976V87.716C72.6183 86.68 71.9743 85.994 71.0503 85.994C70.1963 85.994 69.5523 86.456 69.5523 87.17V89.494C69.5523 90.25 70.1963 90.684 71.0503 90.684ZM79.2688 92.168C77.1128 92.168 75.8248 90.67 75.8248 88.332C75.8248 86.022 77.0708 84.524 79.2128 84.524C81.4948 84.524 82.5448 86.204 82.5448 88.206V88.794H77.6868V88.976C77.6868 90.026 78.2888 90.74 79.4648 90.74C80.3468 90.74 80.8788 90.32 81.3268 89.746L82.2928 90.824C81.6908 91.65 80.6268 92.168 79.2688 92.168ZM79.2408 85.868C78.3028 85.868 77.6868 86.568 77.6868 87.576V87.688H80.6828V87.562C80.6828 86.554 80.1648 85.868 79.2408 85.868ZM86.0735 92H84.2815V84.692H86.0735V86.204H86.1435C86.3255 85.434 86.9135 84.692 88.0755 84.692H88.4675V86.386H87.9075C86.7035 86.386 86.0735 86.722 86.0735 87.52V92ZM95.3662 92H93.5182V82.228H97.9142C99.7202 82.228 100.812 83.446 100.812 85.252C100.812 87.072 99.7202 88.276 97.9142 88.276H95.3662V92ZM95.3662 83.838V86.68H97.7462C98.4602 86.68 98.8942 86.288 98.8942 85.574V84.93C98.8942 84.216 98.4602 83.838 97.7462 83.838H95.3662ZM104.19 92H102.398V84.692H104.19V86.204H104.26C104.442 85.434 105.03 84.692 106.192 84.692H106.584V86.386H106.024C104.82 86.386 104.19 86.722 104.19 87.52V92ZM110.884 92.168C108.798 92.168 107.496 90.684 107.496 88.332C107.496 85.994 108.798 84.524 110.884 84.524C112.984 84.524 114.286 85.994 114.286 88.332C114.286 90.684 112.984 92.168 110.884 92.168ZM110.884 90.726C111.822 90.726 112.41 90.124 112.41 89.018V87.66C112.41 86.568 111.822 85.966 110.884 85.966C109.96 85.966 109.372 86.568 109.372 87.66V89.018C109.372 90.124 109.96 90.726 110.884 90.726ZM118.262 92C117.03 92 116.372 91.328 116.372 90.138V86.12H115.294V84.692H115.854C116.386 84.692 116.554 84.44 116.554 83.936V82.69H118.164V84.692H119.662V86.12H118.164V90.572H119.55V92H118.262ZM124.276 92.168C122.12 92.168 120.832 90.67 120.832 88.332C120.832 86.022 122.078 84.524 124.22 84.524C126.502 84.524 127.552 86.204 127.552 88.206V88.794H122.694V88.976C122.694 90.026 123.296 90.74 124.472 90.74C125.354 90.74 125.886 90.32 126.334 89.746L127.3 90.824C126.698 91.65 125.634 92.168 124.276 92.168ZM124.248 85.868C123.31 85.868 122.694 86.568 122.694 87.576V87.688H125.69V87.562C125.69 86.554 125.172 85.868 124.248 85.868ZM132.172 92.168C130.016 92.168 128.798 90.684 128.798 88.332C128.798 85.994 130.016 84.524 132.172 84.524C133.642 84.524 134.608 85.224 135.042 86.372L133.572 87.03C133.404 86.414 132.942 85.966 132.172 85.966C131.178 85.966 130.674 86.666 130.674 87.688V89.018C130.674 90.04 131.178 90.726 132.172 90.726C133.026 90.726 133.446 90.236 133.712 89.578L135.084 90.236C134.608 91.524 133.586 92.168 132.172 92.168ZM138.908 92C137.676 92 137.018 91.328 137.018 90.138V86.12H135.94V84.692H136.5C137.032 84.692 137.2 84.44 137.2 83.936V82.69H138.81V84.692H140.308V86.12H138.81V90.572H140.196V92H138.908ZM149.971 92H147.871L144.679 82.228H146.569L148.067 86.988L148.935 90.236H148.977L149.831 86.988L151.329 82.228H153.163L149.971 92ZM155.475 83.628C154.733 83.628 154.425 83.25 154.425 82.732V82.452C154.425 81.934 154.733 81.556 155.475 81.556C156.203 81.556 156.525 81.934 156.525 82.452V82.732C156.525 83.25 156.203 83.628 155.475 83.628ZM154.579 92V84.692H156.371V92H154.579ZM160.4 92H158.608V84.692H160.4V86.204H160.47C160.652 85.434 161.24 84.692 162.402 84.692H162.794V86.386H162.234C161.03 86.386 160.4 86.722 160.4 87.52V92ZM166.601 92C165.369 92 164.711 91.328 164.711 90.138V86.12H163.633V84.692H164.193C164.725 84.692 164.893 84.44 164.893 83.936V82.69H166.503V84.692H168.001V86.12H166.503V90.572H167.889V92H166.601ZM174.083 92V90.782H174.013C173.761 91.51 173.173 92.168 171.969 92.168C170.471 92.168 169.631 91.132 169.631 89.312V84.692H171.423V89.13C171.423 90.138 171.801 90.684 172.655 90.684C173.369 90.684 174.083 90.306 174.083 89.522V84.692H175.875V92H174.083ZM179.911 92.168C178.427 92.168 177.587 91.314 177.587 90.012C177.587 88.514 178.721 87.772 180.709 87.772H181.955V87.24C181.955 86.428 181.549 85.952 180.597 85.952C179.757 85.952 179.281 86.372 178.931 86.876L177.867 85.924C178.399 85.084 179.253 84.524 180.723 84.524C182.697 84.524 183.747 85.462 183.747 87.128V90.572H184.475V92H183.481C182.711 92 182.235 91.496 182.123 90.74H182.039C181.801 91.678 181.003 92.168 179.911 92.168ZM180.513 90.866C181.311 90.866 181.955 90.502 181.955 89.816V88.85H180.807C179.869 88.85 179.407 89.172 179.407 89.746V89.984C179.407 90.572 179.813 90.866 180.513 90.866ZM188.844 92H187.878C186.66 92 186.086 91.356 186.086 90.236V81.64H187.878V90.572H188.844V92ZM196.979 92.168C195.313 92.168 194.165 91.51 193.339 90.544L194.585 89.34C195.257 90.124 196.083 90.544 197.091 90.544C198.225 90.544 198.813 89.998 198.813 89.172C198.813 88.514 198.505 88.108 197.483 87.926L196.559 87.786C194.585 87.478 193.633 86.54 193.633 84.944C193.633 83.194 194.991 82.06 197.175 82.06C198.645 82.06 199.737 82.564 200.521 83.502L199.261 84.692C198.785 84.09 198.113 83.684 197.077 83.684C196.027 83.684 195.481 84.104 195.481 84.832C195.481 85.574 195.901 85.882 196.839 86.05L197.749 86.218C199.723 86.568 200.647 87.45 200.647 89.06C200.647 90.908 199.317 92.168 196.979 92.168ZM205.502 92.168C203.346 92.168 202.058 90.67 202.058 88.332C202.058 86.022 203.304 84.524 205.446 84.524C207.728 84.524 208.778 86.204 208.778 88.206V88.794H203.92V88.976C203.92 90.026 204.522 90.74 205.698 90.74C206.58 90.74 207.112 90.32 207.56 89.746L208.526 90.824C207.924 91.65 206.86 92.168 205.502 92.168ZM205.474 85.868C204.536 85.868 203.92 86.568 203.92 87.576V87.688H206.916V87.562C206.916 86.554 206.398 85.868 205.474 85.868ZM212.307 92H210.515V84.692H212.307V86.204H212.377C212.559 85.434 213.147 84.692 214.309 84.692H214.701V86.386H214.141C212.937 86.386 212.307 86.722 212.307 87.52V92ZM219.976 92H217.848L215.412 84.692H217.176L218.198 87.842L218.912 90.446H219.01L219.724 87.842L220.718 84.692H222.426L219.976 92ZM226.627 92.168C224.471 92.168 223.183 90.67 223.183 88.332C223.183 86.022 224.429 84.524 226.571 84.524C228.853 84.524 229.903 86.204 229.903 88.206V88.794H225.045V88.976C225.045 90.026 225.647 90.74 226.823 90.74C227.705 90.74 228.237 90.32 228.685 89.746L229.651 90.824C229.049 91.65 227.985 92.168 226.627 92.168ZM226.599 85.868C225.661 85.868 225.045 86.568 225.045 87.576V87.688H228.041V87.562C228.041 86.554 227.523 85.868 226.599 85.868ZM233.431 92H231.639V84.692H233.431V86.204H233.501C233.683 85.434 234.271 84.692 235.433 84.692H235.825V86.386H235.265C234.061 86.386 233.431 86.722 233.431 87.52V92ZM241.66 83.628C240.918 83.628 240.61 83.25 240.61 82.732V82.452C240.61 81.934 240.918 81.556 241.66 81.556C242.388 81.556 242.71 81.934 242.71 82.452V82.732C242.71 83.25 242.388 83.628 241.66 83.628ZM240.764 92V84.692H242.556V92H240.764ZM246.585 92H244.793V84.692H246.585V85.91H246.655C246.949 85.126 247.565 84.524 248.699 84.524C250.197 84.524 251.037 85.56 251.037 87.38V92H249.245V87.562C249.245 86.526 248.895 85.994 248.041 85.994C247.299 85.994 246.585 86.386 246.585 87.17V92ZM255.578 92.168C254.192 92.168 253.282 91.664 252.554 90.824L253.646 89.76C254.178 90.376 254.822 90.754 255.648 90.754C256.502 90.754 256.866 90.432 256.866 89.914C256.866 89.494 256.614 89.228 255.97 89.144L255.242 89.046C253.674 88.85 252.806 88.164 252.806 86.834C252.806 85.42 253.912 84.524 255.578 84.524C257.006 84.524 257.734 84.944 258.434 85.672L257.384 86.722C256.964 86.274 256.348 85.938 255.634 85.938C254.864 85.938 254.528 86.246 254.528 86.694C254.528 87.184 254.794 87.408 255.48 87.52L256.222 87.618C257.818 87.842 258.588 88.556 258.588 89.774C258.588 91.188 257.398 92.168 255.578 92.168ZM262.502 92C261.27 92 260.612 91.328 260.612 90.138V86.12H259.534V84.692H260.094C260.626 84.692 260.794 84.44 260.794 83.936V82.69H262.404V84.692H263.902V86.12H262.404V90.572H263.79V92H262.502ZM267.423 92.168C265.939 92.168 265.099 91.314 265.099 90.012C265.099 88.514 266.233 87.772 268.221 87.772H269.467V87.24C269.467 86.428 269.061 85.952 268.109 85.952C267.269 85.952 266.793 86.372 266.443 86.876L265.379 85.924C265.911 85.084 266.765 84.524 268.235 84.524C270.209 84.524 271.259 85.462 271.259 87.128V90.572H271.987V92H270.993C270.223 92 269.747 91.496 269.635 90.74H269.551C269.313 91.678 268.515 92.168 267.423 92.168ZM268.025 90.866C268.823 90.866 269.467 90.502 269.467 89.816V88.85H268.319C267.381 88.85 266.919 89.172 266.919 89.746V89.984C266.919 90.572 267.325 90.866 268.025 90.866ZM275.389 92H273.597V84.692H275.389V85.91H275.459C275.753 85.126 276.369 84.524 277.503 84.524C279.001 84.524 279.841 85.56 279.841 87.38V92H278.049V87.562C278.049 86.526 277.699 85.994 276.845 85.994C276.103 85.994 275.389 86.386 275.389 87.17V92ZM284.872 92.168C282.716 92.168 281.498 90.684 281.498 88.332C281.498 85.994 282.716 84.524 284.872 84.524C286.342 84.524 287.308 85.224 287.742 86.372L286.272 87.03C286.104 86.414 285.642 85.966 284.872 85.966C283.878 85.966 283.374 86.666 283.374 87.688V89.018C283.374 90.04 283.878 90.726 284.872 90.726C285.726 90.726 286.146 90.236 286.412 89.578L287.784 90.236C287.308 91.524 286.286 92.168 284.872 92.168ZM292.211 92.168C290.055 92.168 288.767 90.67 288.767 88.332C288.767 86.022 290.013 84.524 292.155 84.524C294.437 84.524 295.487 86.204 295.487 88.206V88.794H290.629V88.976C290.629 90.026 291.231 90.74 292.407 90.74C293.289 90.74 293.821 90.32 294.269 89.746L295.235 90.824C294.633 91.65 293.569 92.168 292.211 92.168ZM292.183 85.868C291.245 85.868 290.629 86.568 290.629 87.576V87.688H293.625V87.562C293.625 86.554 293.107 85.868 292.183 85.868Z" fill="black"/>
<line x1="35" y1="63" x2="35" y2="111" stroke="#0F62FE" stroke-width="4"/>
</g>
<rect x="33.5" y="63.5" width="1008" height="356" stroke="#0F62FE"/>
<rect x="67" y="130" width="550" height="253" fill="white"/>
<g clip-path="url(#clip2_15_2483)">
<path d="M88.846 158H83.148V148.228H84.996V156.362H88.846V158ZM90.0876 148.228H91.9076V154.234C91.9076 155.76 92.4396 156.53 93.8396 156.53C95.2396 156.53 95.7716 155.76 95.7716 154.234V148.228H97.5916V153.996C97.5916 156.866 96.5696 158.168 93.8256 158.168C91.0816 158.168 90.0876 156.866 90.0876 153.996V148.228ZM105.92 158L103.134 153.576L101.832 155.116V158H99.9836V148.228H101.832V153.044H101.902L103.288 151.21L105.71 148.228H107.838L104.436 152.302L108.118 158H105.92ZM112.547 158.168C110.881 158.168 109.733 157.51 108.907 156.544L110.153 155.34C110.825 156.124 111.651 156.544 112.659 156.544C113.793 156.544 114.381 155.998 114.381 155.172C114.381 154.514 114.073 154.108 113.051 153.926L112.127 153.786C110.153 153.478 109.201 152.54 109.201 150.944C109.201 149.194 110.559 148.06 112.743 148.06C114.213 148.06 115.305 148.564 116.089 149.502L114.829 150.692C114.353 150.09 113.681 149.684 112.645 149.684C111.595 149.684 111.049 150.104 111.049 150.832C111.049 151.574 111.469 151.882 112.407 152.05L113.317 152.218C115.291 152.568 116.215 153.45 116.215 155.06C116.215 156.908 114.885 158.168 112.547 158.168ZM121.584 160.8V150.692H123.376V151.896H123.432C123.698 151.056 124.482 150.524 125.448 150.524C127.296 150.524 128.318 151.896 128.318 154.332C128.318 156.782 127.296 158.168 125.448 158.168C124.482 158.168 123.712 157.608 123.432 156.782H123.376V160.8H121.584ZM124.874 156.684C125.798 156.684 126.442 156.012 126.442 154.976V153.716C126.442 152.68 125.798 151.994 124.874 151.994C124.02 151.994 123.376 152.456 123.376 153.17V155.494C123.376 156.25 124.02 156.684 124.874 156.684ZM131.945 158.168C130.461 158.168 129.621 157.314 129.621 156.012C129.621 154.514 130.755 153.772 132.743 153.772H133.989V153.24C133.989 152.428 133.583 151.952 132.631 151.952C131.791 151.952 131.315 152.372 130.965 152.876L129.901 151.924C130.433 151.084 131.287 150.524 132.757 150.524C134.731 150.524 135.781 151.462 135.781 153.128V156.572H136.509V158H135.515C134.745 158 134.269 157.496 134.157 156.74H134.073C133.835 157.678 133.037 158.168 131.945 158.168ZM132.547 156.866C133.345 156.866 133.989 156.502 133.989 155.816V154.85H132.841C131.903 154.85 131.441 155.172 131.441 155.746V155.984C131.441 156.572 131.847 156.866 132.547 156.866ZM140.513 158.168C139.127 158.168 138.217 157.664 137.489 156.824L138.581 155.76C139.113 156.376 139.757 156.754 140.583 156.754C141.437 156.754 141.801 156.432 141.801 155.914C141.801 155.494 141.549 155.228 140.905 155.144L140.177 155.046C138.609 154.85 137.741 154.164 137.741 152.834C137.741 151.42 138.847 150.524 140.513 150.524C141.941 150.524 142.669 150.944 143.369 151.672L142.319 152.722C141.899 152.274 141.283 151.938 140.569 151.938C139.799 151.938 139.463 152.246 139.463 152.694C139.463 153.184 139.729 153.408 140.415 153.52L141.157 153.618C142.753 153.842 143.523 154.556 143.523 155.774C143.523 157.188 142.333 158.168 140.513 158.168ZM147.564 158.168C146.178 158.168 145.268 157.664 144.54 156.824L145.632 155.76C146.164 156.376 146.808 156.754 147.634 156.754C148.488 156.754 148.852 156.432 148.852 155.914C148.852 155.494 148.6 155.228 147.956 155.144L147.228 155.046C145.66 154.85 144.792 154.164 144.792 152.834C144.792 151.42 145.898 150.524 147.564 150.524C148.992 150.524 149.72 150.944 150.42 151.672L149.37 152.722C148.95 152.274 148.334 151.938 147.62 151.938C146.85 151.938 146.514 152.246 146.514 152.694C146.514 153.184 146.78 153.408 147.466 153.52L148.208 153.618C149.804 153.842 150.574 154.556 150.574 155.774C150.574 157.188 149.384 158.168 147.564 158.168ZM152.316 160.8V150.692H154.108V151.896H154.164C154.43 151.056 155.214 150.524 156.18 150.524C158.028 150.524 159.05 151.896 159.05 154.332C159.05 156.782 158.028 158.168 156.18 158.168C155.214 158.168 154.444 157.608 154.164 156.782H154.108V160.8H152.316ZM155.606 156.684C156.53 156.684 157.174 156.012 157.174 154.976V153.716C157.174 152.68 156.53 151.994 155.606 151.994C154.752 151.994 154.108 152.456 154.108 153.17V155.494C154.108 156.25 154.752 156.684 155.606 156.684ZM160.87 158V147.64H162.662V151.91H162.732C163.026 151.126 163.642 150.524 164.776 150.524C166.274 150.524 167.114 151.56 167.114 153.38V158H165.322V153.562C165.322 152.526 164.972 151.994 164.118 151.994C163.376 151.994 162.662 152.386 162.662 153.17V158H160.87ZM171.053 158H169.261V150.692H171.053V152.204H171.123C171.305 151.434 171.893 150.692 173.055 150.692H173.447V152.386H172.887C171.683 152.386 171.053 152.722 171.053 153.52V158ZM176.573 158.168C175.089 158.168 174.249 157.314 174.249 156.012C174.249 154.514 175.383 153.772 177.371 153.772H178.617V153.24C178.617 152.428 178.211 151.952 177.259 151.952C176.419 151.952 175.943 152.372 175.593 152.876L174.529 151.924C175.061 151.084 175.915 150.524 177.385 150.524C179.359 150.524 180.409 151.462 180.409 153.128V156.572H181.137V158H180.143C179.373 158 178.897 157.496 178.785 156.74H178.701C178.463 157.678 177.665 158.168 176.573 158.168ZM177.175 156.866C177.973 156.866 178.617 156.502 178.617 155.816V154.85H177.469C176.531 154.85 176.069 155.172 176.069 155.746V155.984C176.069 156.572 176.475 156.866 177.175 156.866ZM185.141 158.168C183.755 158.168 182.845 157.664 182.117 156.824L183.209 155.76C183.741 156.376 184.385 156.754 185.211 156.754C186.065 156.754 186.429 156.432 186.429 155.914C186.429 155.494 186.177 155.228 185.533 155.144L184.805 155.046C183.237 154.85 182.369 154.164 182.369 152.834C182.369 151.42 183.475 150.524 185.141 150.524C186.569 150.524 187.297 150.944 187.997 151.672L186.947 152.722C186.527 152.274 185.911 151.938 185.197 151.938C184.427 151.938 184.091 152.246 184.091 152.694C184.091 153.184 184.357 153.408 185.043 153.52L185.785 153.618C187.381 153.842 188.151 154.556 188.151 155.774C188.151 157.188 186.961 158.168 185.141 158.168ZM192.847 158.168C190.691 158.168 189.403 156.67 189.403 154.332C189.403 152.022 190.649 150.524 192.791 150.524C195.073 150.524 196.123 152.204 196.123 154.206V154.794H191.265V154.976C191.265 156.026 191.867 156.74 193.043 156.74C193.925 156.74 194.457 156.32 194.905 155.746L195.871 156.824C195.269 157.65 194.205 158.168 192.847 158.168ZM192.819 151.868C191.881 151.868 191.265 152.568 191.265 153.576V153.688H194.261V153.562C194.261 152.554 193.743 151.868 192.819 151.868ZM207.922 158.616C207.922 160.142 206.886 160.968 204.086 160.968C201.622 160.968 200.684 160.324 200.684 159.246C200.684 158.434 201.174 157.972 201.986 157.846V157.692C201.384 157.538 201.048 157.062 201.048 156.474C201.048 155.718 201.692 155.34 202.392 155.186V155.13C201.51 154.724 201.062 153.968 201.062 153.002C201.062 151.518 202.112 150.524 204.086 150.524C204.534 150.524 204.996 150.58 205.36 150.706V150.468C205.36 149.754 205.724 149.404 206.396 149.404H207.53V150.776H205.976V150.972C206.732 151.392 207.11 152.106 207.11 153.002C207.11 154.472 206.074 155.452 204.086 155.452C203.666 155.452 203.288 155.41 202.966 155.326C202.686 155.452 202.448 155.662 202.448 155.984C202.448 156.348 202.756 156.53 203.4 156.53H205.36C207.152 156.53 207.922 157.3 207.922 158.616ZM206.242 158.826C206.242 158.364 205.906 158.084 204.996 158.084H202.504C202.238 158.28 202.126 158.546 202.126 158.84C202.126 159.4 202.546 159.736 203.666 159.736H204.562C205.724 159.736 206.242 159.442 206.242 158.826ZM204.086 154.234C204.94 154.234 205.402 153.842 205.402 153.114V152.876C205.402 152.134 204.94 151.756 204.086 151.756C203.232 151.756 202.77 152.134 202.77 152.876V153.114C202.77 153.842 203.232 154.234 204.086 154.234ZM211.989 158.168C209.833 158.168 208.545 156.67 208.545 154.332C208.545 152.022 209.791 150.524 211.933 150.524C214.215 150.524 215.265 152.204 215.265 154.206V154.794H210.407V154.976C210.407 156.026 211.009 156.74 212.185 156.74C213.067 156.74 213.599 156.32 214.047 155.746L215.013 156.824C214.411 157.65 213.347 158.168 211.989 158.168ZM211.961 151.868C211.023 151.868 210.407 152.568 210.407 153.576V153.688H213.403V153.562C213.403 152.554 212.885 151.868 211.961 151.868ZM218.794 158H217.002V150.692H218.794V151.91H218.864C219.158 151.126 219.774 150.524 220.908 150.524C222.406 150.524 223.246 151.56 223.246 153.38V158H221.454V153.562C221.454 152.526 221.104 151.994 220.25 151.994C219.508 151.994 218.794 152.386 218.794 153.17V158ZM228.346 158.168C226.19 158.168 224.902 156.67 224.902 154.332C224.902 152.022 226.148 150.524 228.29 150.524C230.572 150.524 231.622 152.204 231.622 154.206V154.794H226.764V154.976C226.764 156.026 227.366 156.74 228.542 156.74C229.424 156.74 229.956 156.32 230.404 155.746L231.37 156.824C230.768 157.65 229.704 158.168 228.346 158.168ZM228.318 151.868C227.38 151.868 226.764 152.568 226.764 153.576V153.688H229.76V153.562C229.76 152.554 229.242 151.868 228.318 151.868ZM235.151 158H233.359V150.692H235.151V152.204H235.221C235.403 151.434 235.991 150.692 237.153 150.692H237.545V152.386H236.985C235.781 152.386 235.151 152.722 235.151 153.52V158ZM240.671 158.168C239.187 158.168 238.347 157.314 238.347 156.012C238.347 154.514 239.481 153.772 241.469 153.772H242.715V153.24C242.715 152.428 242.309 151.952 241.357 151.952C240.517 151.952 240.041 152.372 239.691 152.876L238.627 151.924C239.159 151.084 240.013 150.524 241.483 150.524C243.457 150.524 244.507 151.462 244.507 153.128V156.572H245.235V158H244.241C243.471 158 242.995 157.496 242.883 156.74H242.799C242.561 157.678 241.763 158.168 240.671 158.168ZM241.273 156.866C242.071 156.866 242.715 156.502 242.715 155.816V154.85H241.567C240.629 154.85 240.167 155.172 240.167 155.746V155.984C240.167 156.572 240.573 156.866 241.273 156.866ZM249.072 158C247.84 158 247.182 157.328 247.182 156.138V152.12H246.104V150.692H246.664C247.196 150.692 247.364 150.44 247.364 149.936V148.69H248.974V150.692H250.472V152.12H248.974V156.572H250.36V158H249.072ZM253.083 149.628C252.341 149.628 252.033 149.25 252.033 148.732V148.452C252.033 147.934 252.341 147.556 253.083 147.556C253.811 147.556 254.133 147.934 254.133 148.452V148.732C254.133 149.25 253.811 149.628 253.083 149.628ZM252.187 158V150.692H253.979V158H252.187ZM259.114 158.168C257.028 158.168 255.726 156.684 255.726 154.332C255.726 151.994 257.028 150.524 259.114 150.524C261.214 150.524 262.516 151.994 262.516 154.332C262.516 156.684 261.214 158.168 259.114 158.168ZM259.114 156.726C260.052 156.726 260.64 156.124 260.64 155.018V153.66C260.64 152.568 260.052 151.966 259.114 151.966C258.19 151.966 257.602 152.568 257.602 153.66V155.018C257.602 156.124 258.19 156.726 259.114 156.726ZM266.057 158H264.265V150.692H266.057V151.91H266.127C266.421 151.126 267.037 150.524 268.171 150.524C269.669 150.524 270.509 151.56 270.509 153.38V158H268.717V153.562C268.717 152.526 268.367 151.994 267.513 151.994C266.771 151.994 266.057 152.386 266.057 153.17V158ZM278.406 158C277.174 158 276.516 157.328 276.516 156.138V152.12H275.438V150.692H275.998C276.53 150.692 276.698 150.44 276.698 149.936V148.69H278.308V150.692H279.806V152.12H278.308V156.572H279.694V158H278.406ZM284.363 158.168C282.277 158.168 280.975 156.684 280.975 154.332C280.975 151.994 282.277 150.524 284.363 150.524C286.463 150.524 287.765 151.994 287.765 154.332C287.765 156.684 286.463 158.168 284.363 158.168ZM284.363 156.726C285.301 156.726 285.889 156.124 285.889 155.018V153.66C285.889 152.568 285.301 151.966 284.363 151.966C283.439 151.966 282.851 152.568 282.851 153.66V155.018C282.851 156.124 283.439 156.726 284.363 156.726ZM292.412 158.168C290.326 158.168 289.024 156.684 289.024 154.332C289.024 151.994 290.326 150.524 292.412 150.524C294.512 150.524 295.814 151.994 295.814 154.332C295.814 156.684 294.512 158.168 292.412 158.168ZM292.412 156.726C293.35 156.726 293.938 156.124 293.938 155.018V153.66C293.938 152.568 293.35 151.966 292.412 151.966C291.488 151.966 290.9 152.568 290.9 153.66V155.018C290.9 156.124 291.488 156.726 292.412 156.726ZM300.321 158H299.355C298.137 158 297.563 157.356 297.563 156.236V147.64H299.355V156.572H300.321V158Z" fill="black"/>
<line x1="68" y1="129" x2="68" y2="177" stroke="#0F62FE" stroke-width="4"/>
</g>
<rect x="66.5" y="129.5" width="551" height="254" stroke="#0F62FE"/>
<rect width="24" height="8" transform="translate(298 238)" fill="white" style="mix-blend-mode:multiply"/>
<rect width="24" height="0" transform="translate(298 242)" fill="white" style="mix-blend-mode:multiply"/>
<path d="M298 242H322" stroke="black"/>
<rect x="90" y="252" width="183" height="40" rx="20" fill="#0F62FE"/>
<path d="M102.046 276.168C100.478 276.168 99.372 275.524 98.588 274.46L99.456 273.732C100.142 274.642 100.954 275.132 102.088 275.132C103.488 275.132 104.244 274.404 104.244 273.284C104.244 272.36 103.726 271.898 102.438 271.604L101.64 271.422C99.862 271.016 98.882 270.232 98.882 268.734C98.882 266.998 100.198 266.06 102.116 266.06C103.586 266.06 104.622 266.62 105.35 267.656L104.468 268.3C103.936 267.558 103.194 267.096 102.06 267.096C100.814 267.096 100.044 267.642 100.044 268.692C100.044 269.616 100.646 270.036 101.878 270.316L102.676 270.498C104.58 270.932 105.406 271.772 105.406 273.228C105.406 275.02 104.146 276.168 102.046 276.168ZM110.063 276.168C108.103 276.168 106.815 274.684 106.815 272.388C106.815 270.092 108.103 268.608 110.063 268.608C111.995 268.608 113.185 270.092 113.185 272.136V272.668H107.991V273.004C107.991 274.25 108.789 275.188 110.133 275.188C111.043 275.188 111.743 274.74 112.121 273.942L112.919 274.516C112.457 275.496 111.421 276.168 110.063 276.168ZM110.063 269.546C108.845 269.546 107.991 270.47 107.991 271.73V271.828H111.981V271.674C111.981 270.4 111.211 269.546 110.063 269.546ZM117.769 276.168C115.809 276.168 114.521 274.684 114.521 272.388C114.521 270.092 115.809 268.608 117.769 268.608C119.701 268.608 120.891 270.092 120.891 272.136V272.668H115.697V273.004C115.697 274.25 116.495 275.188 117.839 275.188C118.749 275.188 119.449 274.74 119.827 273.942L120.625 274.516C120.163 275.496 119.127 276.168 117.769 276.168ZM117.769 269.546C116.551 269.546 115.697 270.47 115.697 271.73V271.828H119.687V271.674C119.687 270.4 118.917 269.546 117.769 269.546ZM127.379 276V274.824H127.323C126.889 275.72 126.203 276.168 125.209 276.168C123.403 276.168 122.269 274.698 122.269 272.388C122.269 270.078 123.403 268.608 125.209 268.608C126.203 268.608 126.945 269.042 127.323 269.952H127.379V265.64H128.499V276H127.379ZM125.517 275.16C126.539 275.16 127.379 274.628 127.379 273.69V271.002C127.379 270.204 126.539 269.616 125.517 269.616C124.257 269.616 123.473 270.484 123.473 271.772V273.004C123.473 274.292 124.257 275.16 125.517 275.16ZM140.506 274.964V276H134.094V274.796L137.286 271.856C138.196 271.016 138.896 270.036 138.896 269.098V268.93C138.896 267.852 138.294 267.11 137.09 267.11C135.886 267.11 135.326 267.838 135.06 268.762L134.01 268.356C134.388 267.208 135.256 266.06 137.146 266.06C139.05 266.06 140.142 267.236 140.142 268.902C140.142 270.414 139.246 271.478 138 272.598L135.368 274.964H140.506ZM145.954 271.632C145.954 268.93 147.06 266.578 148.488 265.36H149.552C147.998 266.76 147.004 269.084 147.004 271.044V272.248C147.004 274.208 148.04 276.574 149.552 277.918H148.488C147.102 276.742 145.954 274.362 145.954 271.632ZM151.869 276L149.937 268.776H151.029L151.799 271.898L152.569 275.062H152.597L153.479 271.898L154.389 268.776H155.383L156.321 271.898L157.217 275.062H157.245L157.987 271.898L158.771 268.776H159.821L157.903 276H156.517L155.509 272.528L154.879 270.33H154.851L154.235 272.528L153.227 276H151.869ZM164.124 276.168C162.192 276.168 160.862 274.684 160.862 272.388C160.862 270.092 162.192 268.608 164.124 268.608C166.056 268.608 167.386 270.092 167.386 272.388C167.386 274.684 166.056 276.168 164.124 276.168ZM164.124 275.174C165.328 275.174 166.182 274.432 166.182 272.906V271.87C166.182 270.344 165.328 269.602 164.124 269.602C162.92 269.602 162.066 270.344 162.066 271.87V272.906C162.066 274.432 162.92 275.174 164.124 275.174ZM170.37 276H169.25V268.776H170.37V270.106H170.44C170.692 269.42 171.35 268.776 172.526 268.776H172.96V269.896H172.302C171.098 269.896 170.37 270.414 170.37 271.1V276ZM174.413 276V265.64H175.533V272.206H175.589L176.695 270.974L178.739 268.776H180.097L177.423 271.632L180.363 276H179.005L176.611 272.318L175.533 273.424V276H174.413ZM184.002 276H183.008C182.238 276 181.818 275.51 181.818 274.838V265.64H182.938V275.02H184.002V276ZM188.385 276.168C186.453 276.168 185.123 274.684 185.123 272.388C185.123 270.092 186.453 268.608 188.385 268.608C190.317 268.608 191.647 270.092 191.647 272.388C191.647 274.684 190.317 276.168 188.385 276.168ZM188.385 275.174C189.589 275.174 190.443 274.432 190.443 272.906V271.87C190.443 270.344 189.589 269.602 188.385 269.602C187.181 269.602 186.327 270.344 186.327 271.87V272.906C186.327 274.432 187.181 275.174 188.385 275.174ZM199.391 276H198.761C197.935 276 197.599 275.496 197.515 274.824H197.445C197.137 275.706 196.367 276.168 195.359 276.168C193.833 276.168 192.937 275.328 192.937 273.984C192.937 272.626 193.917 271.87 196.017 271.87H197.445V271.156C197.445 270.134 196.885 269.574 195.737 269.574C194.869 269.574 194.295 269.994 193.903 270.652L193.231 270.022C193.623 269.252 194.491 268.608 195.793 268.608C197.529 268.608 198.565 269.518 198.565 271.044V275.02H199.391V276ZM195.541 275.216C196.647 275.216 197.445 274.642 197.445 273.9V272.71H195.961C194.687 272.71 194.113 273.102 194.113 273.802V274.096C194.113 274.81 194.673 275.216 195.541 275.216ZM205.632 276V274.824H205.576C205.142 275.72 204.456 276.168 203.462 276.168C201.656 276.168 200.522 274.698 200.522 272.388C200.522 270.078 201.656 268.608 203.462 268.608C204.456 268.608 205.198 269.042 205.576 269.952H205.632V265.64H206.752V276H205.632ZM203.77 275.16C204.792 275.16 205.632 274.628 205.632 273.69V271.002C205.632 270.204 204.792 269.616 203.77 269.616C202.51 269.616 201.726 270.484 201.726 271.772V273.004C201.726 274.292 202.51 275.16 203.77 275.16ZM214.657 276.168C213.327 276.168 212.445 275.608 211.801 274.754L212.599 274.11C213.159 274.81 213.831 275.216 214.741 275.216C215.693 275.216 216.253 274.782 216.253 274.04C216.253 273.48 215.945 273.046 214.993 272.906L214.419 272.822C213.089 272.626 212.095 272.08 212.095 270.736C212.095 269.308 213.201 268.608 214.671 268.608C215.833 268.608 216.603 269.042 217.191 269.77L216.449 270.442C216.127 269.994 215.511 269.56 214.587 269.56C213.663 269.56 213.173 269.994 213.173 270.68C213.173 271.38 213.663 271.66 214.559 271.8L215.119 271.884C216.715 272.122 217.331 272.822 217.331 273.914C217.331 275.314 216.309 276.168 214.657 276.168ZM222.047 276.168C220.087 276.168 218.799 274.684 218.799 272.388C218.799 270.092 220.087 268.608 222.047 268.608C223.979 268.608 225.169 270.092 225.169 272.136V272.668H219.975V273.004C219.975 274.25 220.773 275.188 222.117 275.188C223.027 275.188 223.727 274.74 224.105 273.942L224.903 274.516C224.441 275.496 223.405 276.168 222.047 276.168ZM222.047 269.546C220.829 269.546 219.975 270.47 219.975 271.73V271.828H223.965V271.674C223.965 270.4 223.195 269.546 222.047 269.546ZM229.725 276.168C227.695 276.168 226.505 274.698 226.505 272.388C226.505 270.078 227.695 268.608 229.725 268.608C231.153 268.608 232.007 269.308 232.427 270.302L231.489 270.778C231.223 270.036 230.607 269.602 229.725 269.602C228.395 269.602 227.709 270.512 227.709 271.772V273.004C227.709 274.264 228.395 275.174 229.725 275.174C230.635 275.174 231.293 274.74 231.685 273.914L232.497 274.46C232.035 275.496 231.097 276.168 229.725 276.168ZM237.097 276H235.697C234.927 276 234.507 275.51 234.507 274.81V269.756H233.317V268.776H233.989C234.465 268.776 234.619 268.608 234.619 268.118V266.774H235.627V268.776H237.209V269.756H235.627V275.02H237.097V276ZM239.591 267.082C239.115 267.082 238.905 266.83 238.905 266.452V266.27C238.905 265.892 239.115 265.64 239.591 265.64C240.067 265.64 240.277 265.892 240.277 266.27V266.452C240.277 266.83 240.067 267.082 239.591 267.082ZM239.031 276V268.776H240.151V276H239.031ZM245.284 276.168C243.352 276.168 242.022 274.684 242.022 272.388C242.022 270.092 243.352 268.608 245.284 268.608C247.216 268.608 248.546 270.092 248.546 272.388C248.546 274.684 247.216 276.168 245.284 276.168ZM245.284 275.174C246.488 275.174 247.342 274.432 247.342 272.906V271.87C247.342 270.344 246.488 269.602 245.284 269.602C244.08 269.602 243.226 270.344 243.226 271.87V272.906C243.226 274.432 244.08 275.174 245.284 275.174ZM251.53 276H250.41V268.776H251.53V269.952H251.586C251.936 269.14 252.552 268.608 253.63 268.608C255.114 268.608 256.052 269.616 256.052 271.366V276H254.932V271.562C254.932 270.274 254.372 269.616 253.294 269.616C252.398 269.616 251.53 270.064 251.53 270.988V276ZM260.728 271.632C260.728 274.362 259.58 276.742 258.194 277.918H257.13C258.642 276.574 259.678 274.208 259.678 272.248V271.044C259.678 269.084 258.684 266.76 257.13 265.36H258.194C259.622 266.578 260.728 268.93 260.728 271.632Z" fill="white"/>
<rect x="90" y="194" width="183" height="40" rx="20" fill="#0F62FE"/>
<path d="M102.046 218.168C100.478 218.168 99.372 217.524 98.588 216.46L99.456 215.732C100.142 216.642 100.954 217.132 102.088 217.132C103.488 217.132 104.244 216.404 104.244 215.284C104.244 214.36 103.726 213.898 102.438 213.604L101.64 213.422C99.862 213.016 98.882 212.232 98.882 210.734C98.882 208.998 100.198 208.06 102.116 208.06C103.586 208.06 104.622 208.62 105.35 209.656L104.468 210.3C103.936 209.558 103.194 209.096 102.06 209.096C100.814 209.096 100.044 209.642 100.044 210.692C100.044 211.616 100.646 212.036 101.878 212.316L102.676 212.498C104.58 212.932 105.406 213.772 105.406 215.228C105.406 217.02 104.146 218.168 102.046 218.168ZM110.063 218.168C108.103 218.168 106.815 216.684 106.815 214.388C106.815 212.092 108.103 210.608 110.063 210.608C111.995 210.608 113.185 212.092 113.185 214.136V214.668H107.991V215.004C107.991 216.25 108.789 217.188 110.133 217.188C111.043 217.188 111.743 216.74 112.121 215.942L112.919 216.516C112.457 217.496 111.421 218.168 110.063 218.168ZM110.063 211.546C108.845 211.546 107.991 212.47 107.991 213.73V213.828H111.981V213.674C111.981 212.4 111.211 211.546 110.063 211.546ZM117.769 218.168C115.809 218.168 114.521 216.684 114.521 214.388C114.521 212.092 115.809 210.608 117.769 210.608C119.701 210.608 120.891 212.092 120.891 214.136V214.668H115.697V215.004C115.697 216.25 116.495 217.188 117.839 217.188C118.749 217.188 119.449 216.74 119.827 215.942L120.625 216.516C120.163 217.496 119.127 218.168 117.769 218.168ZM117.769 211.546C116.551 211.546 115.697 212.47 115.697 213.73V213.828H119.687V213.674C119.687 212.4 118.917 211.546 117.769 211.546ZM127.379 218V216.824H127.323C126.889 217.72 126.203 218.168 125.209 218.168C123.403 218.168 122.269 216.698 122.269 214.388C122.269 212.078 123.403 210.608 125.209 210.608C126.203 210.608 126.945 211.042 127.323 211.952H127.379V207.64H128.499V218H127.379ZM125.517 217.16C126.539 217.16 127.379 216.628 127.379 215.69V213.002C127.379 212.204 126.539 211.616 125.517 211.616C124.257 211.616 123.473 212.484 123.473 213.772V215.004C123.473 216.292 124.257 217.16 125.517 217.16ZM140.702 218H134.276V216.964H137.006V209.096H136.908L134.444 211.392L133.758 210.65L136.348 208.228H138.182V216.964H140.702V218ZM145.954 213.632C145.954 210.93 147.06 208.578 148.488 207.36H149.552C147.998 208.76 147.004 211.084 147.004 213.044V214.248C147.004 216.208 148.04 218.574 149.552 219.918H148.488C147.102 218.742 145.954 216.362 145.954 213.632ZM153.409 218.168C151.449 218.168 150.161 216.684 150.161 214.388C150.161 212.092 151.449 210.608 153.409 210.608C155.341 210.608 156.531 212.092 156.531 214.136V214.668H151.337V215.004C151.337 216.25 152.135 217.188 153.479 217.188C154.389 217.188 155.089 216.74 155.467 215.942L156.265 216.516C155.803 217.496 154.767 218.168 153.409 218.168ZM153.409 211.546C152.191 211.546 151.337 212.47 151.337 213.73V213.828H155.327V213.674C155.327 212.4 154.557 211.546 153.409 211.546ZM159.519 218H158.399V210.776H159.519V211.952H159.575C159.925 211.14 160.541 210.608 161.619 210.608C163.103 210.608 164.041 211.616 164.041 213.366V218H162.921V213.562C162.921 212.274 162.361 211.616 161.283 211.616C160.387 211.616 159.519 212.064 159.519 212.988V218ZM169.167 218H167.865L165.331 210.776H166.451L167.711 214.36L168.495 216.824H168.565L169.349 214.36L170.637 210.776H171.715L169.167 218ZM178.683 218.168C177.353 218.168 176.471 217.608 175.827 216.754L176.625 216.11C177.185 216.81 177.857 217.216 178.767 217.216C179.719 217.216 180.279 216.782 180.279 216.04C180.279 215.48 179.971 215.046 179.019 214.906L178.445 214.822C177.115 214.626 176.121 214.08 176.121 212.736C176.121 211.308 177.227 210.608 178.697 210.608C179.859 210.608 180.629 211.042 181.217 211.77L180.475 212.442C180.153 211.994 179.537 211.56 178.613 211.56C177.689 211.56 177.199 211.994 177.199 212.68C177.199 213.38 177.689 213.66 178.585 213.8L179.145 213.884C180.741 214.122 181.357 214.822 181.357 215.914C181.357 217.314 180.335 218.168 178.683 218.168ZM186.074 218.168C184.114 218.168 182.826 216.684 182.826 214.388C182.826 212.092 184.114 210.608 186.074 210.608C188.006 210.608 189.196 212.092 189.196 214.136V214.668H184.002V215.004C184.002 216.25 184.8 217.188 186.144 217.188C187.054 217.188 187.754 216.74 188.132 215.942L188.93 216.516C188.468 217.496 187.432 218.168 186.074 218.168ZM186.074 211.546C184.856 211.546 184.002 212.47 184.002 213.73V213.828H187.992V213.674C187.992 212.4 187.222 211.546 186.074 211.546ZM193.752 218.168C191.722 218.168 190.532 216.698 190.532 214.388C190.532 212.078 191.722 210.608 193.752 210.608C195.18 210.608 196.034 211.308 196.454 212.302L195.516 212.778C195.25 212.036 194.634 211.602 193.752 211.602C192.422 211.602 191.736 212.512 191.736 213.772V215.004C191.736 216.264 192.422 217.174 193.752 217.174C194.662 217.174 195.32 216.74 195.712 215.914L196.524 216.46C196.062 217.496 195.124 218.168 193.752 218.168ZM201.124 218H199.724C198.954 218 198.534 217.51 198.534 216.81V211.756H197.344V210.776H198.016C198.492 210.776 198.646 210.608 198.646 210.118V208.774H199.654V210.776H201.236V211.756H199.654V217.02H201.124V218ZM203.618 209.082C203.142 209.082 202.932 208.83 202.932 208.452V208.27C202.932 207.892 203.142 207.64 203.618 207.64C204.094 207.64 204.304 207.892 204.304 208.27V208.452C204.304 208.83 204.094 209.082 203.618 209.082ZM203.058 218V210.776H204.178V218H203.058ZM209.311 218.168C207.379 218.168 206.049 216.684 206.049 214.388C206.049 212.092 207.379 210.608 209.311 210.608C211.243 210.608 212.573 212.092 212.573 214.388C212.573 216.684 211.243 218.168 209.311 218.168ZM209.311 217.174C210.515 217.174 211.369 216.432 211.369 214.906V213.87C211.369 212.344 210.515 211.602 209.311 211.602C208.107 211.602 207.253 212.344 207.253 213.87V214.906C207.253 216.432 208.107 217.174 209.311 217.174ZM215.557 218H214.437V210.776H215.557V211.952H215.613C215.963 211.14 216.579 210.608 217.657 210.608C219.141 210.608 220.079 211.616 220.079 213.366V218H218.959V213.562C218.959 212.274 218.399 211.616 217.321 211.616C216.425 211.616 215.557 212.064 215.557 212.988V218ZM224.754 213.632C224.754 216.362 223.606 218.742 222.22 219.918H221.156C222.668 218.574 223.704 216.208 223.704 214.248V213.044C223.704 211.084 222.71 208.76 221.156 207.36H222.22C223.648 208.578 224.754 210.93 224.754 213.632Z" fill="white"/>
<rect x="327" y="222" width="88" height="40" rx="20" fill="#8A3FFC"/>
<path d="M339.76 246H335.84V245.02H337.212V237.208H335.84V236.228H339.76V237.208H338.388V245.02H339.76V246ZM342.938 246H341.818V238.776H342.938V239.952H342.994C343.344 239.14 343.96 238.608 345.038 238.608C346.522 238.608 347.46 239.616 347.46 241.366V246H346.34V241.562C346.34 240.274 345.78 239.616 344.702 239.616C343.806 239.616 342.938 240.064 342.938 240.988V246ZM352.793 246H351.393C350.623 246 350.203 245.51 350.203 244.81V239.756H349.013V238.776H349.685C350.161 238.776 350.315 238.608 350.315 238.118V236.774H351.323V238.776H352.905V239.756H351.323V245.02H352.793V246ZM357.389 246.168C355.429 246.168 354.141 244.684 354.141 242.388C354.141 240.092 355.429 238.608 357.389 238.608C359.321 238.608 360.511 240.092 360.511 242.136V242.668H355.317V243.004C355.317 244.25 356.115 245.188 357.459 245.188C358.369 245.188 359.069 244.74 359.447 243.942L360.245 244.516C359.783 245.496 358.747 246.168 357.389 246.168ZM357.389 239.546C356.171 239.546 355.317 240.47 355.317 241.73V241.828H359.307V241.674C359.307 240.4 358.537 239.546 357.389 239.546ZM363.499 246H362.379V238.776H363.499V240.106H363.569C363.821 239.42 364.479 238.776 365.655 238.776H366.089V239.896H365.431C364.227 239.896 363.499 240.414 363.499 241.1V246ZM368.102 237.082C367.626 237.082 367.416 236.83 367.416 236.452V236.27C367.416 235.892 367.626 235.64 368.102 235.64C368.578 235.64 368.788 235.892 368.788 236.27V236.452C368.788 236.83 368.578 237.082 368.102 237.082ZM367.542 246V238.776H368.662V246H367.542ZM372.185 246H371.065V238.776H372.185V239.952H372.241C372.563 239.21 373.067 238.608 374.187 238.608C375.139 238.608 376.007 239.042 376.399 240.078H376.427C376.693 239.294 377.393 238.608 378.625 238.608C380.095 238.608 380.977 239.616 380.977 241.366V246H379.857V241.562C379.857 240.288 379.367 239.616 378.275 239.616C377.393 239.616 376.581 240.064 376.581 240.988V246H375.461V241.562C375.461 240.274 374.971 239.616 373.907 239.616C373.025 239.616 372.185 240.064 372.185 240.988V246ZM386.641 246V235.64H387.761V242.206H387.817L388.923 240.974L390.967 238.776H392.325L389.651 241.632L392.591 246H391.233L388.839 242.318L387.761 243.424V246H386.641ZM396.529 246.168C394.569 246.168 393.281 244.684 393.281 242.388C393.281 240.092 394.569 238.608 396.529 238.608C398.461 238.608 399.651 240.092 399.651 242.136V242.668H394.457V243.004C394.457 244.25 395.255 245.188 396.599 245.188C397.509 245.188 398.209 244.74 398.587 243.942L399.385 244.516C398.923 245.496 397.887 246.168 396.529 246.168ZM396.529 239.546C395.311 239.546 394.457 240.47 394.457 241.73V241.828H398.447V241.674C398.447 240.4 397.677 239.546 396.529 239.546ZM404.153 243.69L405.903 238.776H407.009L403.775 247.68C403.453 248.548 403.159 248.8 402.095 248.8H401.521V247.82H402.655L403.201 246.28L400.499 238.776H401.619L403.355 243.69L403.691 244.866H403.761L404.153 243.69Z" fill="white"/>
<rect x="471" y="266" width="125" height="40" rx="20" fill="#007D79"/>
<path d="M485.636 290H480.302V280.228H481.478V288.964H485.636V290ZM486.872 280.228H488.048V286.276C488.048 288.138 488.65 289.118 490.386 289.118C492.122 289.118 492.724 288.138 492.724 286.276V280.228H493.9V285.996C493.9 288.838 492.948 290.168 490.344 290.168C487.74 290.168 486.872 288.838 486.872 285.996V280.228ZM502.262 290L499.014 285.198L497.628 286.738V290H496.452V280.228H497.628V285.422H497.67L499.07 283.728L502.024 280.228H503.466L499.826 284.414L503.718 290H502.262ZM508.023 290.168C506.455 290.168 505.349 289.524 504.565 288.46L505.433 287.732C506.119 288.642 506.931 289.132 508.065 289.132C509.465 289.132 510.221 288.404 510.221 287.284C510.221 286.36 509.703 285.898 508.415 285.604L507.617 285.422C505.839 285.016 504.859 284.232 504.859 282.734C504.859 280.998 506.175 280.06 508.093 280.06C509.563 280.06 510.599 280.62 511.327 281.656L510.445 282.3C509.913 281.558 509.171 281.096 508.037 281.096C506.791 281.096 506.021 281.642 506.021 282.692C506.021 283.616 506.623 284.036 507.855 284.316L508.653 284.498C510.557 284.932 511.383 285.772 511.383 287.228C511.383 289.02 510.123 290.168 508.023 290.168ZM516.656 292.8V282.776H517.776V283.952H517.832C518.21 283.042 518.952 282.608 519.946 282.608C521.752 282.608 522.886 284.078 522.886 286.388C522.886 288.698 521.752 290.168 519.946 290.168C518.952 290.168 518.266 289.72 517.832 288.824H517.776V292.8H516.656ZM519.638 289.16C520.898 289.16 521.682 288.292 521.682 287.004V285.772C521.682 284.484 520.898 283.616 519.638 283.616C518.616 283.616 517.776 284.204 517.776 285.002V287.69C517.776 288.628 518.616 289.16 519.638 289.16ZM530.679 290H530.049C529.223 290 528.887 289.496 528.803 288.824H528.733C528.425 289.706 527.655 290.168 526.647 290.168C525.121 290.168 524.225 289.328 524.225 287.984C524.225 286.626 525.205 285.87 527.305 285.87H528.733V285.156C528.733 284.134 528.173 283.574 527.025 283.574C526.157 283.574 525.583 283.994 525.191 284.652L524.519 284.022C524.911 283.252 525.779 282.608 527.081 282.608C528.817 282.608 529.853 283.518 529.853 285.044V289.02H530.679V290ZM526.829 289.216C527.935 289.216 528.733 288.642 528.733 287.9V286.71H527.249C525.975 286.71 525.401 287.102 525.401 287.802V288.096C525.401 288.81 525.961 289.216 526.829 289.216ZM534.47 290.168C533.14 290.168 532.258 289.608 531.614 288.754L532.412 288.11C532.972 288.81 533.644 289.216 534.554 289.216C535.506 289.216 536.066 288.782 536.066 288.04C536.066 287.48 535.758 287.046 534.806 286.906L534.232 286.822C532.902 286.626 531.908 286.08 531.908 284.736C531.908 283.308 533.014 282.608 534.484 282.608C535.646 282.608 536.416 283.042 537.004 283.77L536.262 284.442C535.94 283.994 535.324 283.56 534.4 283.56C533.476 283.56 532.986 283.994 532.986 284.68C532.986 285.38 533.476 285.66 534.372 285.8L534.932 285.884C536.528 286.122 537.144 286.822 537.144 287.914C537.144 289.314 536.122 290.168 534.47 290.168ZM541.233 290.168C539.903 290.168 539.021 289.608 538.377 288.754L539.175 288.11C539.735 288.81 540.407 289.216 541.317 289.216C542.269 289.216 542.829 288.782 542.829 288.04C542.829 287.48 542.521 287.046 541.569 286.906L540.995 286.822C539.665 286.626 538.671 286.08 538.671 284.736C538.671 283.308 539.777 282.608 541.247 282.608C542.409 282.608 543.179 283.042 543.767 283.77L543.025 284.442C542.703 283.994 542.087 283.56 541.163 283.56C540.239 283.56 539.749 283.994 539.749 284.68C539.749 285.38 540.239 285.66 541.135 285.8L541.695 285.884C543.291 286.122 543.907 286.822 543.907 287.914C543.907 289.314 542.885 290.168 541.233 290.168ZM545.907 292.8V282.776H547.027V283.952H547.083C547.461 283.042 548.203 282.608 549.197 282.608C551.003 282.608 552.137 284.078 552.137 286.388C552.137 288.698 551.003 290.168 549.197 290.168C548.203 290.168 547.517 289.72 547.083 288.824H547.027V292.8H545.907ZM548.889 289.16C550.149 289.16 550.933 288.292 550.933 287.004V285.772C550.933 284.484 550.149 283.616 548.889 283.616C547.867 283.616 547.027 284.204 547.027 285.002V287.69C547.027 288.628 547.867 289.16 548.889 289.16ZM554.051 290V279.64H555.171V283.952H555.227C555.577 283.14 556.193 282.608 557.271 282.608C558.755 282.608 559.693 283.616 559.693 285.366V290H558.573V285.562C558.573 284.274 558.013 283.616 556.935 283.616C556.039 283.616 555.171 284.064 555.171 284.988V290H554.051ZM563.15 290H562.03V282.776H563.15V284.106H563.22C563.472 283.42 564.13 282.776 565.306 282.776H565.74V283.896H565.082C563.878 283.896 563.15 284.414 563.15 285.1V290ZM573.018 290H572.388C571.562 290 571.226 289.496 571.142 288.824H571.072C570.764 289.706 569.994 290.168 568.986 290.168C567.46 290.168 566.564 289.328 566.564 287.984C566.564 286.626 567.544 285.87 569.644 285.87H571.072V285.156C571.072 284.134 570.512 283.574 569.364 283.574C568.496 283.574 567.922 283.994 567.53 284.652L566.858 284.022C567.25 283.252 568.118 282.608 569.42 282.608C571.156 282.608 572.192 283.518 572.192 285.044V289.02H573.018V290ZM569.168 289.216C570.274 289.216 571.072 288.642 571.072 287.9V286.71H569.588C568.314 286.71 567.74 287.102 567.74 287.802V288.096C567.74 288.81 568.3 289.216 569.168 289.216ZM576.809 290.168C575.479 290.168 574.597 289.608 573.953 288.754L574.751 288.11C575.311 288.81 575.983 289.216 576.893 289.216C577.845 289.216 578.405 288.782 578.405 288.04C578.405 287.48 578.097 287.046 577.145 286.906L576.571 286.822C575.241 286.626 574.247 286.08 574.247 284.736C574.247 283.308 575.353 282.608 576.823 282.608C577.985 282.608 578.755 283.042 579.343 283.77L578.601 284.442C578.279 283.994 577.663 283.56 576.739 283.56C575.815 283.56 575.325 283.994 575.325 284.68C575.325 285.38 575.815 285.66 576.711 285.8L577.271 285.884C578.867 286.122 579.483 286.822 579.483 287.914C579.483 289.314 578.461 290.168 576.809 290.168ZM584.2 290.168C582.24 290.168 580.952 288.684 580.952 286.388C580.952 284.092 582.24 282.608 584.2 282.608C586.132 282.608 587.322 284.092 587.322 286.136V286.668H582.128V287.004C582.128 288.25 582.926 289.188 584.27 289.188C585.18 289.188 585.88 288.74 586.258 287.942L587.056 288.516C586.594 289.496 585.558 290.168 584.2 290.168ZM584.2 283.546C582.982 283.546 582.128 284.47 582.128 285.73V285.828H586.118V285.674C586.118 284.4 585.348 283.546 584.2 283.546Z" fill="white"/>
<path d="M27.046 13.168C25.478 13.168 24.372 12.524 23.588 11.46L24.456 10.732C25.142 11.642 25.954 12.132 27.088 12.132C28.488 12.132 29.244 11.404 29.244 10.284C29.244 9.36 28.726 8.898 27.438 8.604L26.64 8.422C24.862 8.016 23.882 7.232 23.882 5.734C23.882 3.998 25.198 3.06 27.116 3.06C28.586 3.06 29.622 3.62 30.35 4.656L29.468 5.3C28.936 4.558 28.194 4.096 27.06 4.096C25.814 4.096 25.044 4.642 25.044 5.692C25.044 6.616 25.646 7.036 26.878 7.316L27.676 7.498C29.58 7.932 30.406 8.772 30.406 10.228C30.406 12.02 29.146 13.168 27.046 13.168ZM35.0632 13.168C33.1032 13.168 31.8152 11.684 31.8152 9.388C31.8152 7.092 33.1032 5.608 35.0632 5.608C36.9952 5.608 38.1852 7.092 38.1852 9.136V9.668H32.9912V10.004C32.9912 11.25 33.7892 12.188 35.1332 12.188C36.0432 12.188 36.7432 11.74 37.1212 10.942L37.9192 11.516C37.4572 12.496 36.4212 13.168 35.0632 13.168ZM35.0632 6.546C33.8452 6.546 32.9912 7.47 32.9912 8.73V8.828H36.9812V8.674C36.9812 7.4 36.2112 6.546 35.0632 6.546ZM42.7692 13.168C40.8092 13.168 39.5212 11.684 39.5212 9.388C39.5212 7.092 40.8092 5.608 42.7692 5.608C44.7012 5.608 45.8912 7.092 45.8912 9.136V9.668H40.6972V10.004C40.6972 11.25 41.4952 12.188 42.8392 12.188C43.7492 12.188 44.4492 11.74 44.8272 10.942L45.6252 11.516C45.1632 12.496 44.1272 13.168 42.7692 13.168ZM42.7692 6.546C41.5512 6.546 40.6972 7.47 40.6972 8.73V8.828H44.6872V8.674C44.6872 7.4 43.9172 6.546 42.7692 6.546ZM52.3792 13V11.824H52.3232C51.8892 12.72 51.2032 13.168 50.2092 13.168C48.4032 13.168 47.2692 11.698 47.2692 9.388C47.2692 7.078 48.4032 5.608 50.2092 5.608C51.2032 5.608 51.9452 6.042 52.3232 6.952H52.3792V2.64H53.4992V13H52.3792ZM50.5172 12.16C51.5392 12.16 52.3792 11.628 52.3792 10.69V8.002C52.3792 7.204 51.5392 6.616 50.5172 6.616C49.2572 6.616 48.4732 7.484 48.4732 8.772V10.004C48.4732 11.292 49.2572 12.16 50.5172 12.16ZM65.5056 11.964V13H59.0936V11.796L62.2856 8.856C63.1956 8.016 63.8956 7.036 63.8956 6.098V5.93C63.8956 4.852 63.2936 4.11 62.0896 4.11C60.8856 4.11 60.3256 4.838 60.0596 5.762L59.0096 5.356C59.3876 4.208 60.2556 3.06 62.1456 3.06C64.0496 3.06 65.1416 4.236 65.1416 5.902C65.1416 7.414 64.2456 8.478 62.9996 9.598L60.3676 11.964H65.5056Z" fill="white"/>
<rect x="675" y="240" width="164" height="46" fill="white"/>
<g clip-path="url(#clip3_15_2483)">
<path d="M691.148 268V258.228H694.704C697.252 258.228 698.918 259.866 698.918 263.114C698.918 266.362 697.252 268 694.704 268H691.148ZM692.996 266.362H694.704C696.076 266.362 696.958 265.55 696.958 263.884V262.344C696.958 260.678 696.076 259.866 694.704 259.866H692.996V266.362ZM701.744 259.628C701.002 259.628 700.694 259.25 700.694 258.732V258.452C700.694 257.934 701.002 257.556 701.744 257.556C702.472 257.556 702.794 257.934 702.794 258.452V258.732C702.794 259.25 702.472 259.628 701.744 259.628ZM700.848 268V260.692H702.64V268H700.848ZM707.271 268.168C705.885 268.168 704.975 267.664 704.247 266.824L705.339 265.76C705.871 266.376 706.515 266.754 707.341 266.754C708.195 266.754 708.559 266.432 708.559 265.914C708.559 265.494 708.307 265.228 707.663 265.144L706.935 265.046C705.367 264.85 704.499 264.164 704.499 262.834C704.499 261.42 705.605 260.524 707.271 260.524C708.699 260.524 709.427 260.944 710.127 261.672L709.077 262.722C708.657 262.274 708.041 261.938 707.327 261.938C706.557 261.938 706.221 262.246 706.221 262.694C706.221 263.184 706.487 263.408 707.173 263.52L707.915 263.618C709.511 263.842 710.281 264.556 710.281 265.774C710.281 267.188 709.091 268.168 707.271 268.168ZM712.024 268V257.64H713.816V263.884H713.886L714.852 262.568L716.49 260.692H718.52L716 263.52L718.786 268H716.658L714.782 264.724L713.816 265.774V268H712.024ZM726.468 268.168C724.312 268.168 723.024 266.67 723.024 264.332C723.024 262.022 724.27 260.524 726.412 260.524C728.694 260.524 729.744 262.204 729.744 264.206V264.794H724.886V264.976C724.886 266.026 725.488 266.74 726.664 266.74C727.546 266.74 728.078 266.32 728.526 265.746L729.492 266.824C728.89 267.65 727.826 268.168 726.468 268.168ZM726.44 261.868C725.502 261.868 724.886 262.568 724.886 263.576V263.688H727.882V263.562C727.882 262.554 727.364 261.868 726.44 261.868ZM733.272 268H731.48V260.692H733.272V261.91H733.342C733.636 261.126 734.252 260.524 735.386 260.524C736.884 260.524 737.724 261.56 737.724 263.38V268H735.932V263.562C735.932 262.526 735.582 261.994 734.728 261.994C733.986 261.994 733.272 262.386 733.272 263.17V268ZM742.755 268.168C740.599 268.168 739.381 266.684 739.381 264.332C739.381 261.994 740.599 260.524 742.755 260.524C744.225 260.524 745.191 261.224 745.625 262.372L744.155 263.03C743.987 262.414 743.525 261.966 742.755 261.966C741.761 261.966 741.257 262.666 741.257 263.688V265.018C741.257 266.04 741.761 266.726 742.755 266.726C743.609 266.726 744.029 266.236 744.295 265.578L745.667 266.236C745.191 267.524 744.169 268.168 742.755 268.168ZM749.001 268H747.209V260.692H749.001V262.204H749.071C749.253 261.434 749.841 260.692 751.003 260.692H751.395V262.386H750.835C749.631 262.386 749.001 262.722 749.001 263.52V268ZM756.18 264.556L757.454 260.692H759.134L756.194 269.302C755.83 270.352 755.312 270.8 754.108 270.8H753.03V269.372H754.346L754.682 268.35L752.064 260.692H753.842L755.116 264.556L755.592 266.404H755.676L756.18 264.556ZM760.476 270.8V260.692H762.268V261.896H762.324C762.59 261.056 763.374 260.524 764.34 260.524C766.188 260.524 767.21 261.896 767.21 264.332C767.21 266.782 766.188 268.168 764.34 268.168C763.374 268.168 762.604 267.608 762.324 266.782H762.268V270.8H760.476ZM763.766 266.684C764.69 266.684 765.334 266.012 765.334 264.976V263.716C765.334 262.68 764.69 261.994 763.766 261.994C762.912 261.994 762.268 262.456 762.268 263.17V265.494C762.268 266.25 762.912 266.684 763.766 266.684ZM771.23 268C769.998 268 769.34 267.328 769.34 266.138V262.12H768.262V260.692H768.822C769.354 260.692 769.522 260.44 769.522 259.936V258.69H771.132V260.692H772.63V262.12H771.132V266.572H772.518V268H771.23ZM775.241 259.628C774.499 259.628 774.191 259.25 774.191 258.732V258.452C774.191 257.934 774.499 257.556 775.241 257.556C775.969 257.556 776.291 257.934 776.291 258.452V258.732C776.291 259.25 775.969 259.628 775.241 259.628ZM774.345 268V260.692H776.137V268H774.345ZM781.272 268.168C779.186 268.168 777.884 266.684 777.884 264.332C777.884 261.994 779.186 260.524 781.272 260.524C783.372 260.524 784.674 261.994 784.674 264.332C784.674 266.684 783.372 268.168 781.272 268.168ZM781.272 266.726C782.21 266.726 782.798 266.124 782.798 265.018V263.66C782.798 262.568 782.21 261.966 781.272 261.966C780.348 261.966 779.76 262.568 779.76 263.66V265.018C779.76 266.124 780.348 266.726 781.272 266.726ZM788.214 268H786.422V260.692H788.214V261.91H788.284C788.578 261.126 789.194 260.524 790.328 260.524C791.826 260.524 792.666 261.56 792.666 263.38V268H790.874V263.562C790.874 262.526 790.524 261.994 789.67 261.994C788.928 261.994 788.214 262.386 788.214 263.17V268ZM800.564 268C799.332 268 798.674 267.328 798.674 266.138V262.12H797.596V260.692H798.156C798.688 260.692 798.856 260.44 798.856 259.936V258.69H800.466V260.692H801.964V262.12H800.466V266.572H801.852V268H800.564ZM806.521 268.168C804.435 268.168 803.133 266.684 803.133 264.332C803.133 261.994 804.435 260.524 806.521 260.524C808.621 260.524 809.923 261.994 809.923 264.332C809.923 266.684 808.621 268.168 806.521 268.168ZM806.521 266.726C807.459 266.726 808.047 266.124 808.047 265.018V263.66C808.047 262.568 807.459 261.966 806.521 261.966C805.597 261.966 805.009 262.568 805.009 263.66V265.018C805.009 266.124 805.597 266.726 806.521 266.726ZM814.57 268.168C812.484 268.168 811.182 266.684 811.182 264.332C811.182 261.994 812.484 260.524 814.57 260.524C816.67 260.524 817.972 261.994 817.972 264.332C817.972 266.684 816.67 268.168 814.57 268.168ZM814.57 266.726C815.508 266.726 816.096 266.124 816.096 265.018V263.66C816.096 262.568 815.508 261.966 814.57 261.966C813.646 261.966 813.058 262.568 813.058 263.66V265.018C813.058 266.124 813.646 266.726 814.57 266.726ZM822.479 268H821.513C820.295 268 819.721 267.356 819.721 266.236V257.64H821.513V266.572H822.479V268Z" fill="black"/>
<line x1="676" y1="239" x2="676" y2="287" stroke="#0F62FE" stroke-width="4"/>
</g>
<rect x="674.5" y="239.5" width="165" height="47" stroke="#0F62FE"/>
<rect x="90" y="310" width="183" height="40" rx="20" fill="#0F62FE"/>
<path d="M102.046 334.168C100.478 334.168 99.372 333.524 98.588 332.46L99.456 331.732C100.142 332.642 100.954 333.132 102.088 333.132C103.488 333.132 104.244 332.404 104.244 331.284C104.244 330.36 103.726 329.898 102.438 329.604L101.64 329.422C99.862 329.016 98.882 328.232 98.882 326.734C98.882 324.998 100.198 324.06 102.116 324.06C103.586 324.06 104.622 324.62 105.35 325.656L104.468 326.3C103.936 325.558 103.194 325.096 102.06 325.096C100.814 325.096 100.044 325.642 100.044 326.692C100.044 327.616 100.646 328.036 101.878 328.316L102.676 328.498C104.58 328.932 105.406 329.772 105.406 331.228C105.406 333.02 104.146 334.168 102.046 334.168ZM110.063 334.168C108.103 334.168 106.815 332.684 106.815 330.388C106.815 328.092 108.103 326.608 110.063 326.608C111.995 326.608 113.185 328.092 113.185 330.136V330.668H107.991V331.004C107.991 332.25 108.789 333.188 110.133 333.188C111.043 333.188 111.743 332.74 112.121 331.942L112.919 332.516C112.457 333.496 111.421 334.168 110.063 334.168ZM110.063 327.546C108.845 327.546 107.991 328.47 107.991 329.73V329.828H111.981V329.674C111.981 328.4 111.211 327.546 110.063 327.546ZM117.769 334.168C115.809 334.168 114.521 332.684 114.521 330.388C114.521 328.092 115.809 326.608 117.769 326.608C119.701 326.608 120.891 328.092 120.891 330.136V330.668H115.697V331.004C115.697 332.25 116.495 333.188 117.839 333.188C118.749 333.188 119.449 332.74 119.827 331.942L120.625 332.516C120.163 333.496 119.127 334.168 117.769 334.168ZM117.769 327.546C116.551 327.546 115.697 328.47 115.697 329.73V329.828H119.687V329.674C119.687 328.4 118.917 327.546 117.769 327.546ZM127.379 334V332.824H127.323C126.889 333.72 126.203 334.168 125.209 334.168C123.403 334.168 122.269 332.698 122.269 330.388C122.269 328.078 123.403 326.608 125.209 326.608C126.203 326.608 126.945 327.042 127.323 327.952H127.379V323.64H128.499V334H127.379ZM125.517 333.16C126.539 333.16 127.379 332.628 127.379 331.69V329.002C127.379 328.204 126.539 327.616 125.517 327.616C124.257 327.616 123.473 328.484 123.473 329.772V331.004C123.473 332.292 124.257 333.16 125.517 333.16ZM135.634 328.372H136.698C138.014 328.372 138.686 327.686 138.686 326.748V326.65C138.686 325.628 137.972 325.11 136.936 325.11C135.928 325.11 135.326 325.586 134.92 326.328L134.052 325.656C134.542 324.872 135.396 324.06 136.964 324.06C138.616 324.06 139.932 324.942 139.932 326.524C139.932 327.784 139.092 328.54 138.056 328.806V328.862C139.106 329.072 140.114 329.856 140.114 331.326C140.114 333.006 138.784 334.168 136.796 334.168C135.102 334.168 134.234 333.342 133.632 332.502L134.514 331.83C135.018 332.6 135.592 333.118 136.782 333.118C138.154 333.118 138.882 332.46 138.882 331.312V331.2C138.882 330.052 138.154 329.394 136.782 329.394H135.634V328.372ZM145.954 329.632C145.954 326.93 147.06 324.578 148.488 323.36H149.552C147.998 324.76 147.004 327.084 147.004 329.044V330.248C147.004 332.208 148.04 334.574 149.552 335.918H148.488C147.102 334.742 145.954 332.362 145.954 329.632ZM151.813 334H150.693V326.776H151.813V327.952H151.869C152.191 327.21 152.695 326.608 153.815 326.608C154.767 326.608 155.635 327.042 156.027 328.078H156.055C156.321 327.294 157.021 326.608 158.253 326.608C159.723 326.608 160.605 327.616 160.605 329.366V334H159.485V329.562C159.485 328.288 158.995 327.616 157.903 327.616C157.021 327.616 156.209 328.064 156.209 328.988V334H155.089V329.562C155.089 328.274 154.599 327.616 153.535 327.616C152.653 327.616 151.813 328.064 151.813 328.988V334ZM165.654 334.168C163.694 334.168 162.406 332.684 162.406 330.388C162.406 328.092 163.694 326.608 165.654 326.608C167.586 326.608 168.776 328.092 168.776 330.136V330.668H163.582V331.004C163.582 332.25 164.38 333.188 165.724 333.188C166.634 333.188 167.334 332.74 167.712 331.942L168.51 332.516C168.048 333.496 167.012 334.168 165.654 334.168ZM165.654 327.546C164.436 327.546 163.582 328.47 163.582 329.73V329.828H167.572V329.674C167.572 328.4 166.802 327.546 165.654 327.546ZM173.64 334H172.24C171.47 334 171.05 333.51 171.05 332.81V327.756H169.86V326.776H170.532C171.008 326.776 171.162 326.608 171.162 326.118V324.774H172.17V326.776H173.752V327.756H172.17V333.02H173.64V334ZM181.455 334H180.825C179.999 334 179.663 333.496 179.579 332.824H179.509C179.201 333.706 178.431 334.168 177.423 334.168C175.897 334.168 175.001 333.328 175.001 331.984C175.001 330.626 175.981 329.87 178.081 329.87H179.509V329.156C179.509 328.134 178.949 327.574 177.801 327.574C176.933 327.574 176.359 327.994 175.967 328.652L175.295 328.022C175.687 327.252 176.555 326.608 177.857 326.608C179.593 326.608 180.629 327.518 180.629 329.044V333.02H181.455V334ZM177.605 333.216C178.711 333.216 179.509 332.642 179.509 331.9V330.71H178.025C176.751 330.71 176.177 331.102 176.177 331.802V332.096C176.177 332.81 176.737 333.216 177.605 333.216ZM187.696 334V332.824H187.64C187.206 333.72 186.52 334.168 185.526 334.168C183.72 334.168 182.586 332.698 182.586 330.388C182.586 328.078 183.72 326.608 185.526 326.608C186.52 326.608 187.262 327.042 187.64 327.952H187.696V323.64H188.816V334H187.696ZM185.834 333.16C186.856 333.16 187.696 332.628 187.696 331.69V329.002C187.696 328.204 186.856 327.616 185.834 327.616C184.574 327.616 183.79 328.484 183.79 329.772V331.004C183.79 332.292 184.574 333.16 185.834 333.16ZM197.099 334H196.469C195.643 334 195.307 333.496 195.223 332.824H195.153C194.845 333.706 194.075 334.168 193.067 334.168C191.541 334.168 190.645 333.328 190.645 331.984C190.645 330.626 191.625 329.87 193.725 329.87H195.153V329.156C195.153 328.134 194.593 327.574 193.445 327.574C192.577 327.574 192.003 327.994 191.611 328.652L190.939 328.022C191.331 327.252 192.199 326.608 193.501 326.608C195.237 326.608 196.273 327.518 196.273 329.044V333.02H197.099V334ZM193.249 333.216C194.355 333.216 195.153 332.642 195.153 331.9V330.71H193.669C192.395 330.71 191.821 331.102 191.821 331.802V332.096C191.821 332.81 192.381 333.216 193.249 333.216ZM201.716 334H200.316C199.546 334 199.126 333.51 199.126 332.81V327.756H197.936V326.776H198.608C199.084 326.776 199.238 326.608 199.238 326.118V324.774H200.246V326.776H201.828V327.756H200.246V333.02H201.716V334ZM209.531 334H208.901C208.075 334 207.739 333.496 207.655 332.824H207.585C207.277 333.706 206.507 334.168 205.499 334.168C203.973 334.168 203.077 333.328 203.077 331.984C203.077 330.626 204.057 329.87 206.157 329.87H207.585V329.156C207.585 328.134 207.025 327.574 205.877 327.574C205.009 327.574 204.435 327.994 204.043 328.652L203.371 328.022C203.763 327.252 204.631 326.608 205.933 326.608C207.669 326.608 208.705 327.518 208.705 329.044V333.02H209.531V334ZM205.681 333.216C206.787 333.216 207.585 332.642 207.585 331.9V330.71H206.101C204.827 330.71 204.253 331.102 204.253 331.802V332.096C204.253 332.81 204.813 333.216 205.681 333.216ZM214.483 336.8V326.776H215.603V327.952H215.659C216.037 327.042 216.779 326.608 217.773 326.608C219.579 326.608 220.713 328.078 220.713 330.388C220.713 332.698 219.579 334.168 217.773 334.168C216.779 334.168 216.093 333.72 215.659 332.824H215.603V336.8H214.483ZM217.465 333.16C218.725 333.16 219.509 332.292 219.509 331.004V329.772C219.509 328.484 218.725 327.616 217.465 327.616C216.443 327.616 215.603 328.204 215.603 329.002V331.69C215.603 332.628 216.443 333.16 217.465 333.16ZM228.506 334H227.876C227.05 334 226.714 333.496 226.63 332.824H226.56C226.252 333.706 225.482 334.168 224.474 334.168C222.948 334.168 222.052 333.328 222.052 331.984C222.052 330.626 223.032 329.87 225.132 329.87H226.56V329.156C226.56 328.134 226 327.574 224.852 327.574C223.984 327.574 223.41 327.994 223.018 328.652L222.346 328.022C222.738 327.252 223.606 326.608 224.908 326.608C226.644 326.608 227.68 327.518 227.68 329.044V333.02H228.506V334ZM224.656 333.216C225.762 333.216 226.56 332.642 226.56 331.9V330.71H225.076C223.802 330.71 223.228 331.102 223.228 331.802V332.096C223.228 332.81 223.788 333.216 224.656 333.216ZM231.247 334H230.127V326.776H231.247V328.106H231.317C231.569 327.42 232.227 326.776 233.403 326.776H233.837V327.896H233.179C231.975 327.896 231.247 328.414 231.247 329.1V334ZM238.341 334H236.941C236.171 334 235.751 333.51 235.751 332.81V327.756H234.561V326.776H235.233C235.709 326.776 235.863 326.608 235.863 326.118V324.774H236.871V326.776H238.453V327.756H236.871V333.02H238.341V334ZM240.836 325.082C240.36 325.082 240.15 324.83 240.15 324.452V324.27C240.15 323.892 240.36 323.64 240.836 323.64C241.312 323.64 241.522 323.892 241.522 324.27V324.452C241.522 324.83 241.312 325.082 240.836 325.082ZM240.276 334V326.776H241.396V334H240.276ZM246.794 334H245.394C244.624 334 244.204 333.51 244.204 332.81V327.756H243.014V326.776H243.686C244.162 326.776 244.316 326.608 244.316 326.118V324.774H245.324V326.776H246.906V327.756H245.324V333.02H246.794V334ZM249.289 325.082C248.813 325.082 248.603 324.83 248.603 324.452V324.27C248.603 323.892 248.813 323.64 249.289 323.64C249.765 323.64 249.975 323.892 249.975 324.27V324.452C249.975 324.83 249.765 325.082 249.289 325.082ZM248.729 334V326.776H249.849V334H248.729ZM254.981 334.168C253.049 334.168 251.719 332.684 251.719 330.388C251.719 328.092 253.049 326.608 254.981 326.608C256.913 326.608 258.243 328.092 258.243 330.388C258.243 332.684 256.913 334.168 254.981 334.168ZM254.981 333.174C256.185 333.174 257.039 332.432 257.039 330.906V329.87C257.039 328.344 256.185 327.602 254.981 327.602C253.777 327.602 252.923 328.344 252.923 329.87V330.906C252.923 332.432 253.777 333.174 254.981 333.174ZM261.227 334H260.107V326.776H261.227V327.952H261.283C261.633 327.14 262.249 326.608 263.327 326.608C264.811 326.608 265.749 327.616 265.749 329.366V334H264.629V329.562C264.629 328.274 264.069 327.616 262.991 327.616C262.095 327.616 261.227 328.064 261.227 328.988V334ZM270.425 329.632C270.425 332.362 269.277 334.742 267.891 335.918H266.827C268.339 334.574 269.375 332.208 269.375 330.248V329.044C269.375 327.084 268.381 324.76 266.827 323.36H267.891C269.319 324.578 270.425 326.93 270.425 329.632Z" fill="white"/>
<rect width="59" height="8" transform="matrix(0 -1 1 0 294 272)" fill="white" style="mix-blend-mode:multiply"/>
<rect width="59" height="0" transform="matrix(0 -1 1 0 298 272)" fill="white" style="mix-blend-mode:multiply"/>
<path d="M298 272V213" stroke="black"/>
<path d="M33.346 33H27.648V23.228H29.496V31.362H33.346V33ZM34.5876 23.228H36.4076V29.234C36.4076 30.76 36.9396 31.53 38.3396 31.53C39.7396 31.53 40.2716 30.76 40.2716 29.234V23.228H42.0916V28.996C42.0916 31.866 41.0696 33.168 38.3256 33.168C35.5816 33.168 34.5876 31.866 34.5876 28.996V23.228ZM50.4196 33L47.6336 28.576L46.3316 30.116V33H44.4836V23.228H46.3316V28.044H46.4016L47.7876 26.21L50.2096 23.228H52.3376L48.9356 27.302L52.6176 33H50.4196ZM57.0469 33.168C55.3809 33.168 54.2329 32.51 53.4069 31.544L54.6529 30.34C55.3249 31.124 56.1509 31.544 57.1589 31.544C58.2929 31.544 58.8809 30.998 58.8809 30.172C58.8809 29.514 58.5729 29.108 57.5509 28.926L56.6269 28.786C54.6529 28.478 53.7009 27.54 53.7009 25.944C53.7009 24.194 55.0589 23.06 57.2429 23.06C58.7129 23.06 59.8049 23.564 60.5889 24.502L59.3289 25.692C58.8529 25.09 58.1809 24.684 57.1449 24.684C56.0949 24.684 55.5489 25.104 55.5489 25.832C55.5489 26.574 55.9689 26.882 56.9069 27.05L57.8169 27.218C59.7909 27.568 60.7149 28.45 60.7149 30.06C60.7149 31.908 59.3849 33.168 57.0469 33.168ZM66.084 35.8V25.692H67.876V26.896H67.932C68.198 26.056 68.982 25.524 69.948 25.524C71.796 25.524 72.818 26.896 72.818 29.332C72.818 31.782 71.796 33.168 69.948 33.168C68.982 33.168 68.212 32.608 67.932 31.782H67.876V35.8H66.084ZM69.374 31.684C70.298 31.684 70.942 31.012 70.942 29.976V28.716C70.942 27.68 70.298 26.994 69.374 26.994C68.52 26.994 67.876 27.456 67.876 28.17V30.494C67.876 31.25 68.52 31.684 69.374 31.684ZM76.4446 33.168C74.9606 33.168 74.1206 32.314 74.1206 31.012C74.1206 29.514 75.2546 28.772 77.2426 28.772H78.4886V28.24C78.4886 27.428 78.0826 26.952 77.1306 26.952C76.2906 26.952 75.8146 27.372 75.4646 27.876L74.4006 26.924C74.9326 26.084 75.7866 25.524 77.2566 25.524C79.2306 25.524 80.2806 26.462 80.2806 28.128V31.572H81.0086V33H80.0146C79.2446 33 78.7686 32.496 78.6566 31.74H78.5726C78.3346 32.678 77.5366 33.168 76.4446 33.168ZM77.0466 31.866C77.8446 31.866 78.4886 31.502 78.4886 30.816V29.85H77.3406C76.4026 29.85 75.9406 30.172 75.9406 30.746V30.984C75.9406 31.572 76.3466 31.866 77.0466 31.866ZM85.0129 33.168C83.6269 33.168 82.7169 32.664 81.9889 31.824L83.0809 30.76C83.6129 31.376 84.2569 31.754 85.0829 31.754C85.9369 31.754 86.3009 31.432 86.3009 30.914C86.3009 30.494 86.0489 30.228 85.4049 30.144L84.6769 30.046C83.1089 29.85 82.2409 29.164 82.2409 27.834C82.2409 26.42 83.3469 25.524 85.0129 25.524C86.4409 25.524 87.1689 25.944 87.8689 26.672L86.8189 27.722C86.3989 27.274 85.7829 26.938 85.0689 26.938C84.2989 26.938 83.9629 27.246 83.9629 27.694C83.9629 28.184 84.2289 28.408 84.9149 28.52L85.6569 28.618C87.2529 28.842 88.0229 29.556 88.0229 30.774C88.0229 32.188 86.8329 33.168 85.0129 33.168ZM92.0635 33.168C90.6775 33.168 89.7675 32.664 89.0395 31.824L90.1315 30.76C90.6635 31.376 91.3075 31.754 92.1335 31.754C92.9875 31.754 93.3515 31.432 93.3515 30.914C93.3515 30.494 93.0995 30.228 92.4555 30.144L91.7275 30.046C90.1595 29.85 89.2915 29.164 89.2915 27.834C89.2915 26.42 90.3975 25.524 92.0635 25.524C93.4915 25.524 94.2195 25.944 94.9195 26.672L93.8695 27.722C93.4495 27.274 92.8335 26.938 92.1195 26.938C91.3495 26.938 91.0135 27.246 91.0135 27.694C91.0135 28.184 91.2795 28.408 91.9655 28.52L92.7075 28.618C94.3035 28.842 95.0735 29.556 95.0735 30.774C95.0735 32.188 93.8835 33.168 92.0635 33.168ZM96.8158 35.8V25.692H98.6078V26.896H98.6638C98.9298 26.056 99.7138 25.524 100.68 25.524C102.528 25.524 103.55 26.896 103.55 29.332C103.55 31.782 102.528 33.168 100.68 33.168C99.7138 33.168 98.9438 32.608 98.6638 31.782H98.6078V35.8H96.8158ZM100.106 31.684C101.03 31.684 101.674 31.012 101.674 29.976V28.716C101.674 27.68 101.03 26.994 100.106 26.994C99.2518 26.994 98.6078 27.456 98.6078 28.17V30.494C98.6078 31.25 99.2518 31.684 100.106 31.684ZM105.37 33V22.64H107.162V26.91H107.232C107.526 26.126 108.142 25.524 109.276 25.524C110.774 25.524 111.614 26.56 111.614 28.38V33H109.822V28.562C109.822 27.526 109.472 26.994 108.618 26.994C107.876 26.994 107.162 27.386 107.162 28.17V33H105.37ZM115.553 33H113.761V25.692H115.553V27.204H115.623C115.805 26.434 116.393 25.692 117.555 25.692H117.947V27.386H117.387C116.183 27.386 115.553 27.722 115.553 28.52V33ZM121.073 33.168C119.589 33.168 118.749 32.314 118.749 31.012C118.749 29.514 119.883 28.772 121.871 28.772H123.117V28.24C123.117 27.428 122.711 26.952 121.759 26.952C120.919 26.952 120.443 27.372 120.093 27.876L119.029 26.924C119.561 26.084 120.415 25.524 121.885 25.524C123.859 25.524 124.909 26.462 124.909 28.128V31.572H125.637V33H124.643C123.873 33 123.397 32.496 123.285 31.74H123.201C122.963 32.678 122.165 33.168 121.073 33.168ZM121.675 31.866C122.473 31.866 123.117 31.502 123.117 30.816V29.85H121.969C121.031 29.85 120.569 30.172 120.569 30.746V30.984C120.569 31.572 120.975 31.866 121.675 31.866ZM129.641 33.168C128.255 33.168 127.345 32.664 126.617 31.824L127.709 30.76C128.241 31.376 128.885 31.754 129.711 31.754C130.565 31.754 130.929 31.432 130.929 30.914C130.929 30.494 130.677 30.228 130.033 30.144L129.305 30.046C127.737 29.85 126.869 29.164 126.869 27.834C126.869 26.42 127.975 25.524 129.641 25.524C131.069 25.524 131.797 25.944 132.497 26.672L131.447 27.722C131.027 27.274 130.411 26.938 129.697 26.938C128.927 26.938 128.591 27.246 128.591 27.694C128.591 28.184 128.857 28.408 129.543 28.52L130.285 28.618C131.881 28.842 132.651 29.556 132.651 30.774C132.651 32.188 131.461 33.168 129.641 33.168ZM137.347 33.168C135.191 33.168 133.903 31.67 133.903 29.332C133.903 27.022 135.149 25.524 137.291 25.524C139.573 25.524 140.623 27.204 140.623 29.206V29.794H135.765V29.976C135.765 31.026 136.367 31.74 137.543 31.74C138.425 31.74 138.957 31.32 139.405 30.746L140.371 31.824C139.769 32.65 138.705 33.168 137.347 33.168ZM137.319 26.868C136.381 26.868 135.765 27.568 135.765 28.576V28.688H138.761V28.562C138.761 27.554 138.243 26.868 137.319 26.868ZM152.422 33.616C152.422 35.142 151.386 35.968 148.586 35.968C146.122 35.968 145.184 35.324 145.184 34.246C145.184 33.434 145.674 32.972 146.486 32.846V32.692C145.884 32.538 145.548 32.062 145.548 31.474C145.548 30.718 146.192 30.34 146.892 30.186V30.13C146.01 29.724 145.562 28.968 145.562 28.002C145.562 26.518 146.612 25.524 148.586 25.524C149.034 25.524 149.496 25.58 149.86 25.706V25.468C149.86 24.754 150.224 24.404 150.896 24.404H152.03V25.776H150.476V25.972C151.232 26.392 151.61 27.106 151.61 28.002C151.61 29.472 150.574 30.452 148.586 30.452C148.166 30.452 147.788 30.41 147.466 30.326C147.186 30.452 146.948 30.662 146.948 30.984C146.948 31.348 147.256 31.53 147.9 31.53H149.86C151.652 31.53 152.422 32.3 152.422 33.616ZM150.742 33.826C150.742 33.364 150.406 33.084 149.496 33.084H147.004C146.738 33.28 146.626 33.546 146.626 33.84C146.626 34.4 147.046 34.736 148.166 34.736H149.062C150.224 34.736 150.742 34.442 150.742 33.826ZM148.586 29.234C149.44 29.234 149.902 28.842 149.902 28.114V27.876C149.902 27.134 149.44 26.756 148.586 26.756C147.732 26.756 147.27 27.134 147.27 27.876V28.114C147.27 28.842 147.732 29.234 148.586 29.234ZM156.489 33.168C154.333 33.168 153.045 31.67 153.045 29.332C153.045 27.022 154.291 25.524 156.433 25.524C158.715 25.524 159.765 27.204 159.765 29.206V29.794H154.907V29.976C154.907 31.026 155.509 31.74 156.685 31.74C157.567 31.74 158.099 31.32 158.547 30.746L159.513 31.824C158.911 32.65 157.847 33.168 156.489 33.168ZM156.461 26.868C155.523 26.868 154.907 27.568 154.907 28.576V28.688H157.903V28.562C157.903 27.554 157.385 26.868 156.461 26.868ZM163.294 33H161.502V25.692H163.294V26.91H163.364C163.658 26.126 164.274 25.524 165.408 25.524C166.906 25.524 167.746 26.56 167.746 28.38V33H165.954V28.562C165.954 27.526 165.604 26.994 164.75 26.994C164.008 26.994 163.294 27.386 163.294 28.17V33ZM172.846 33.168C170.69 33.168 169.402 31.67 169.402 29.332C169.402 27.022 170.648 25.524 172.79 25.524C175.072 25.524 176.122 27.204 176.122 29.206V29.794H171.264V29.976C171.264 31.026 171.866 31.74 173.042 31.74C173.924 31.74 174.456 31.32 174.904 30.746L175.87 31.824C175.268 32.65 174.204 33.168 172.846 33.168ZM172.818 26.868C171.88 26.868 171.264 27.568 171.264 28.576V28.688H174.26V28.562C174.26 27.554 173.742 26.868 172.818 26.868ZM179.651 33H177.859V25.692H179.651V27.204H179.721C179.903 26.434 180.491 25.692 181.653 25.692H182.045V27.386H181.485C180.281 27.386 179.651 27.722 179.651 28.52V33ZM185.171 33.168C183.687 33.168 182.847 32.314 182.847 31.012C182.847 29.514 183.981 28.772 185.969 28.772H187.215V28.24C187.215 27.428 186.809 26.952 185.857 26.952C185.017 26.952 184.541 27.372 184.191 27.876L183.127 26.924C183.659 26.084 184.513 25.524 185.983 25.524C187.957 25.524 189.007 26.462 189.007 28.128V31.572H189.735V33H188.741C187.971 33 187.495 32.496 187.383 31.74H187.299C187.061 32.678 186.263 33.168 185.171 33.168ZM185.773 31.866C186.571 31.866 187.215 31.502 187.215 30.816V29.85H186.067C185.129 29.85 184.667 30.172 184.667 30.746V30.984C184.667 31.572 185.073 31.866 185.773 31.866ZM193.572 33C192.34 33 191.682 32.328 191.682 31.138V27.12H190.604V25.692H191.164C191.696 25.692 191.864 25.44 191.864 24.936V23.69H193.474V25.692H194.972V27.12H193.474V31.572H194.86V33H193.572ZM197.583 24.628C196.841 24.628 196.533 24.25 196.533 23.732V23.452C196.533 22.934 196.841 22.556 197.583 22.556C198.311 22.556 198.633 22.934 198.633 23.452V23.732C198.633 24.25 198.311 24.628 197.583 24.628ZM196.687 33V25.692H198.479V33H196.687ZM203.614 33.168C201.528 33.168 200.226 31.684 200.226 29.332C200.226 26.994 201.528 25.524 203.614 25.524C205.714 25.524 207.016 26.994 207.016 29.332C207.016 31.684 205.714 33.168 203.614 33.168ZM203.614 31.726C204.552 31.726 205.14 31.124 205.14 30.018V28.66C205.14 27.568 204.552 26.966 203.614 26.966C202.69 26.966 202.102 27.568 202.102 28.66V30.018C202.102 31.124 202.69 31.726 203.614 31.726ZM210.557 33H208.765V25.692H210.557V26.91H210.627C210.921 26.126 211.537 25.524 212.671 25.524C214.169 25.524 215.009 26.56 215.009 28.38V33H213.217V28.562C213.217 27.526 212.867 26.994 212.013 26.994C211.271 26.994 210.557 27.386 210.557 28.17V33Z" fill="black"/>
<rect width="87" height="9" transform="matrix(0 -1 1 0 435 330)" fill="white" style="mix-blend-mode:multiply"/>
<rect width="87" height="0" transform="matrix(0 -1 1 0 439.5 330)" fill="white" style="mix-blend-mode:multiply"/>
<path d="M439.5 330V243" stroke="black"/>
<rect width="19" height="12" transform="translate(421 237)" fill="white" style="mix-blend-mode:multiply"/>
<rect width="19" height="0" transform="translate(421 243)" fill="white" style="mix-blend-mode:multiply"/>
<path d="M421 243H440" stroke="black"/>
<rect width="19" height="12" transform="translate(279 207)" fill="white" style="mix-blend-mode:multiply"/>
<rect width="19" height="0" transform="translate(279 213)" fill="white" style="mix-blend-mode:multiply"/>
<path d="M279 213H298" stroke="black"/>
<rect width="19" height="12" transform="translate(279 266)" fill="white" style="mix-blend-mode:multiply"/>
<rect width="19" height="0" transform="translate(279 272)" fill="white" style="mix-blend-mode:multiply"/>
<path d="M279 272H298" stroke="black"/>
<rect width="19" height="12" transform="translate(421 324)" fill="white" style="mix-blend-mode:multiply"/>
<rect width="19" height="0" transform="translate(421 330)" fill="white" style="mix-blend-mode:multiply"/>
<path d="M421 330H440" stroke="black"/>
<rect width="56" height="8" transform="translate(618 259)" fill="white" style="mix-blend-mode:multiply"/>
<rect width="49" height="0" transform="translate(618 263)" fill="white" style="mix-blend-mode:multiply"/>
<path d="M618 263H667" stroke="black"/>
<rect width="8" height="8" transform="translate(666 259)" fill="white" style="mix-blend-mode:multiply"/>
<path d="M666 259L674 263L666 267V259Z" fill="black"/>
<rect x="896" y="240" width="112" height="46" fill="white"/>
<g clip-path="url(#clip4_15_2483)">
<path d="M918.084 268L915.298 263.576L913.996 265.116V268H912.148V258.228H913.996V263.044H914.066L915.452 261.21L917.874 258.228H920.002L916.6 262.302L920.282 268H918.084ZM924.283 268.168C922.127 268.168 920.839 266.67 920.839 264.332C920.839 262.022 922.085 260.524 924.227 260.524C926.509 260.524 927.559 262.204 927.559 264.206V264.794H922.701V264.976C922.701 266.026 923.303 266.74 924.479 266.74C925.361 266.74 925.893 266.32 926.341 265.746L927.307 266.824C926.705 267.65 925.641 268.168 924.283 268.168ZM924.255 261.868C923.317 261.868 922.701 262.568 922.701 263.576V263.688H925.697V263.562C925.697 262.554 925.179 261.868 924.255 261.868ZM932.419 264.556L933.693 260.692H935.373L932.433 269.302C932.069 270.352 931.551 270.8 930.347 270.8H929.269V269.372H930.585L930.921 268.35L928.303 260.692H930.081L931.355 264.556L931.831 266.404H931.915L932.419 264.556ZM944.72 268V266.782H944.65C944.384 267.608 943.6 268.168 942.634 268.168C940.8 268.168 939.778 266.782 939.778 264.332C939.778 261.896 940.8 260.524 942.634 260.524C943.6 260.524 944.398 261.056 944.65 261.896H944.72V257.64H946.512V268H944.72ZM943.208 266.684C944.062 266.684 944.72 266.25 944.72 265.494V263.17C944.72 262.456 944.062 261.994 943.208 261.994C942.284 261.994 941.654 262.68 941.654 263.716V264.976C941.654 266.012 942.284 266.684 943.208 266.684ZM950.544 268.168C949.06 268.168 948.22 267.314 948.22 266.012C948.22 264.514 949.354 263.772 951.342 263.772H952.588V263.24C952.588 262.428 952.182 261.952 951.23 261.952C950.39 261.952 949.914 262.372 949.564 262.876L948.5 261.924C949.032 261.084 949.886 260.524 951.356 260.524C953.33 260.524 954.38 261.462 954.38 263.128V266.572H955.108V268H954.114C953.344 268 952.868 267.496 952.756 266.74H952.672C952.434 267.678 951.636 268.168 950.544 268.168ZM951.146 266.866C951.944 266.866 952.588 266.502 952.588 265.816V264.85H951.44C950.502 264.85 950.04 265.172 950.04 265.746V265.984C950.04 266.572 950.446 266.866 951.146 266.866ZM959.673 268.168C957.517 268.168 956.229 266.67 956.229 264.332C956.229 262.022 957.475 260.524 959.617 260.524C961.899 260.524 962.949 262.204 962.949 264.206V264.794H958.091V264.976C958.091 266.026 958.693 266.74 959.869 266.74C960.751 266.74 961.283 266.32 961.731 265.746L962.697 266.824C962.095 267.65 961.031 268.168 959.673 268.168ZM959.645 261.868C958.707 261.868 958.091 262.568 958.091 263.576V263.688H961.087V263.562C961.087 262.554 960.569 261.868 959.645 261.868ZM966.477 268H964.685V260.692H966.477V261.91H966.547C966.827 261.14 967.415 260.524 968.507 260.524C969.501 260.524 970.271 261.014 970.621 261.994H970.649C970.915 261.182 971.727 260.524 972.889 260.524C974.317 260.524 975.129 261.56 975.129 263.38V268H973.337V263.562C973.337 262.512 972.959 261.994 972.161 261.994C971.461 261.994 970.803 262.386 970.803 263.17V268H969.011V263.562C969.011 262.512 968.633 261.994 967.835 261.994C967.149 261.994 966.477 262.386 966.477 263.17V268ZM980.171 268.168C978.085 268.168 976.783 266.684 976.783 264.332C976.783 261.994 978.085 260.524 980.171 260.524C982.271 260.524 983.573 261.994 983.573 264.332C983.573 266.684 982.271 268.168 980.171 268.168ZM980.171 266.726C981.109 266.726 981.697 266.124 981.697 265.018V263.66C981.697 262.568 981.109 261.966 980.171 261.966C979.247 261.966 978.659 262.568 978.659 263.66V265.018C978.659 266.124 979.247 266.726 980.171 266.726ZM987.114 268H985.322V260.692H987.114V261.91H987.184C987.478 261.126 988.094 260.524 989.228 260.524C990.726 260.524 991.566 261.56 991.566 263.38V268H989.774V263.562C989.774 262.526 989.424 261.994 988.57 261.994C987.828 261.994 987.114 262.386 987.114 263.17V268Z" fill="black"/>
<line x1="897" y1="239" x2="897" y2="287" stroke="#0F62FE" stroke-width="4"/>
</g>
<rect x="895.5" y="239.5" width="113" height="47" stroke="#0F62FE"/>
<rect width="56" height="8" transform="translate(839 259)" fill="white" style="mix-blend-mode:multiply"/>
<rect width="49" height="0" transform="translate(839 263)" fill="white" style="mix-blend-mode:multiply"/>
<path d="M839 263H888" stroke="black"/>
<rect width="8" height="8" transform="translate(887 259)" fill="white" style="mix-blend-mode:multiply"/>
<path d="M887 259L895 263L887 267V259Z" fill="black"/>
<rect width="24" height="8" transform="translate(440 282)" fill="white" style="mix-blend-mode:multiply"/>
<rect width="24" height="0" transform="translate(440 286)" fill="white" style="mix-blend-mode:multiply"/>
<path d="M440 286H464" stroke="black"/>
</g>
<defs>
<clipPath id="clip0_15_2483">
<rect width="1076" height="456" fill="white"/>
</clipPath>
<clipPath id="clip1_15_2483">
<rect width="1009" height="48" fill="white" transform="translate(33 63)"/>
</clipPath>
<clipPath id="clip2_15_2483">
<rect width="552" height="48" fill="white" transform="translate(66 129)"/>
</clipPath>
<clipPath id="clip3_15_2483">
<rect width="166" height="48" fill="white" transform="translate(674 239)"/>
</clipPath>
<clipPath id="clip4_15_2483">
<rect width="114" height="48" fill="white" transform="translate(895 239)"/>
</clipPath>
</defs>
</svg>
