<svg xmlns="http://www.w3.org/2000/svg" width="542" height="351" viewBox="0 0 542 351"><defs><style>.cls-1,.cls-14,.cls-16,.cls-3{fill:#231f20;}.cls-1,.cls-7,.cls-8{stroke:#231f20;}.cls-1,.cls-11,.cls-2,.cls-4,.cls-6,.cls-7,.cls-8,.cls-9{stroke-miterlimit:10;}.cls-11,.cls-2,.cls-4,.cls-5,.cls-6,.cls-7,.cls-8,.cls-9{fill:none;}.cls-2,.cls-3,.cls-5{stroke:#010101;}.cls-3,.cls-5{stroke-linejoin:round;}.cls-4{stroke:#a7a9ac;stroke-width:0.5px;}.cls-6{stroke:#42be65;}.cls-8{stroke-dasharray:3;}.cls-11,.cls-9{stroke:#da1e28;}.cls-10,.cls-15{fill:#fff;}.cls-11{stroke-width:2px;}.cls-12,.cls-15,.cls-17{font-size:12px;}.cls-12,.cls-13,.cls-15{font-family:IBMPlexSans-SemiBold, IBM Plex Sans;font-weight:600;}.cls-13,.cls-14,.cls-15,.cls-16{isolation:isolate;}.cls-13,.cls-16,.cls-20{font-size:11px;}.cls-13{fill:#010101;}.cls-14{font-size:9px;}.cls-14,.cls-16{font-family:IBMPlexSans-Text, IBM Plex Sans;}.cls-17,.cls-18,.cls-19,.cls-20{font-family:IBMPlexSans, IBM Plex Sans;}.cls-18{font-size:10px;}.cls-19{font-size:9.5px;}</style></defs><g id="Layer_1" data-name="Layer 1"><circle class="cls-1" cx="70.15" cy="14.24" r="4.74"/><path class="cls-1" d="M78.44,26.87v2.37H61.86V26.87a7.13,7.13,0,0,1,7.11-7.08h2.37A7.13,7.13,0,0,1,78.44,26.87Z"/><line class="cls-2" x1="69.15" y1="48.15" x2="69.15" y2="67.16"/><rect class="cls-3" x="14.55" y="70.37" width="112.18" height="30.27"/><rect class="cls-4" x="20.65" y="142.29" width="92.5" height="16"/><rect class="cls-5" x="14.5" y="96.55" width="112.24" height="242.74"/><rect class="cls-4" x="20.65" y="184.7188" width="92.87" height="15.79"/><rect class="cls-4" x="20.65" y="227.0425" width="92.87" height="15.79"/><rect class="cls-4" x="20.65" y="269.3662" width="92.87" height="15.79"/><rect class="cls-4" x="20.65" y="311.69" width="92.87" height="15.79"/><rect class="cls-2" x="228.74" y="126.29" width="262" height="30.23"/><rect class="cls-2" x="228.98" y="184.47" width="261.76" height="26.23"/><rect class="cls-6" x="209.79" y="103.75" width="307.9" height="128.54"/><line class="cls-7" x1="127.24" y1="168.02" x2="209.74" y2="168.02"/><line class="cls-8" x1="335.49" y1="232.3734" x2="335.49" y2="291.9295"/><path class="cls-9" d="M344.26,314.77l-3.33-3.33a5.9,5.9,0,0,1-4.95,2.7h-1.42a5.9,5.9,0,0,1-4.95-2.7l-3.33,3.33-.36-.36,3.43-3.42a5.7988,5.7988,0,0,1-.68-2.75v-2.47l-3.9,1.3-.16-.48,4.06-1.35v-4.05a5.7586,5.7586,0,0,1,.68-2.74l-3.43-3.43.36-.36,3.33,3.33a6,6,0,0,1,3.29-2.46v-2.1h.51v2a5.4726,5.4726,0,0,1,1.15-.12h1.42a5.4743,5.4743,0,0,1,1.15.12v-2h.51v2.1a6,6,0,0,1,3.29,2.46l3.33-3.33.36.36-3.43,3.43a5.76,5.76,0,0,1,.68,2.74v4.05l4.06,1.35-.16.48-3.9-1.3v2.47a5.8,5.8,0,0,1-.68,2.75l3.43,3.42Zm-8.74-1.14h.46a5.39,5.39,0,0,0,5.38-5.39v-6.8h-5.84Zm-6.34-12.19v6.8a5.39,5.39,0,0,0,5.38,5.39h.46V301.44Zm0-.5h12.18a5.4,5.4,0,0,0-5.38-5.14h-1.42a5.4,5.4,0,0,0-5.38,5.14Z"/><rect class="cls-10" x="481.7805" y="138.5828" width="19.239" height="27.2052"/><path class="cls-6" d="M492.3828,155.9643a1.14,1.14,0,0,1-.87,1.1v1.54a.27.27,0,0,1-.54,0v-1.55a1.14,1.14,0,1,1,1.41-1.1Zm6.7-6.44v13.63a.27.27,0,0,1-.27.27h-15.14a.27.27,0,0,1-.27-.27h0v-13.63a.27.27,0,0,1,.27-.27h3.51v-5a4.06,4.06,0,0,1,8.12,0v5h3.51a.27.27,0,0,1,.26.27Zm-11.35-.27h7v-5a3.51,3.51,0,0,0-7,0Zm-3.79.54v13.09h14.6v-13.09Z"/><rect class="cls-10" x="481.1205" y="193.4617" width="19.239" height="27.2052"/><path class="cls-6" d="M491.7228,210.8432a1.14,1.14,0,0,1-.87,1.1v1.54a.27.27,0,0,1-.54,0v-1.55a1.14,1.14,0,1,1,1.41-1.1Zm6.7-6.44v13.63a.27.27,0,0,1-.27.27h-15.14a.27.27,0,0,1-.27-.27h0v-13.63a.27.27,0,0,1,.27-.27h3.51v-5a4.06,4.06,0,0,1,8.12,0v5h3.51a.27.27,0,0,1,.26.27Zm-11.35-.27h7v-5a3.51,3.51,0,0,0-7,0Zm-3.79.54v13.09h14.6v-13.09Z"/><line class="cls-11" x1="348.5913" y1="260.0691" x2="357.6" y2="270.2338"/><line class="cls-11" x1="357.6" y1="260.0691" x2="348.5913" y2="270.2338"/></g><g id="text"><text class="cls-12" transform="translate(209.6802 79.2502)">Protected by Confidential Computing on <tspan x="0" y="14.3999">Hyper Protect Virtual Server for VPC</tspan></text><text class="cls-13" transform="translate(60.35 44.93)">User</text><text class="cls-13" transform="translate(263.4902 331.9365)">Internal/External malicious actor</text><text class="cls-14" transform="translate(21.92 323.27)">$1234</text><text class="cls-14" transform="translate(22.4 237.27)">1111222233334444</text><text class="cls-14" transform="translate(22.82 280.27)">123</text><text class="cls-15" transform="translate(48.5326 89.25)">PayNow</text><text class="cls-16" transform="translate(19.82 134.24)">Name</text><text class="cls-17" transform="translate(19.9656 116.6556)">Payment Form</text><text class="cls-18" transform="translate(22.2214 153.2101)">Peter Smith</text><text class="cls-19" transform="translate(21.2214 194.1065)">petersmith@xxx.xxx</text><text class="cls-17" transform="translate(317.2549 200.7555)">Server memory</text><text class="cls-17" transform="translate(280.3253 145.215)">PayNow Node.js application</text><text class="cls-20" transform="translate(19.8201 261.6513)">CVV</text><text class="cls-20" transform="translate(19.8197 219.1375)">Credit card number</text><text class="cls-20" transform="translate(20.0574 303.7982)">Payment amount</text><text class="cls-20" transform="translate(20.0574 176.8868)">Email address</text></g></svg>