<svg xmlns="http://www.w3.org/2000/svg" xmlns:xlink="http://www.w3.org/1999/xlink" viewBox="0 0 400 125">
  <defs>
    <style>
      .a {
        isolation: isolate;
      }

      .b {
        fill: #f1f4f9;
      }

      .b, .bn {
        mix-blend-mode: multiply;
      }

      .c {
        fill: url(#a);
      }

      .d {
        fill: url(#b);
      }

      .e {
        fill: url(#c);
      }

      .ab, .ac, .at, .av, .ay, .az, .f, .n, .o, .p, .q, .r, .s, .w, .y {
        opacity: 0.8;
      }

      .f {
        fill: url(#d);
      }

      .g {
        fill: #51565c;
      }

      .h {
        fill: #697078;
      }

      .i {
        fill: url(#e);
      }

      .j {
        fill: #9ea4ac;
      }

      .k {
        fill: #b8bec6;
      }

      .l {
        fill: #dce1e6;
      }

      .m {
        fill: #868c96;
      }

      .n {
        fill: url(#f);
      }

      .o {
        fill: url(#g);
      }

      .p {
        fill: url(#h);
      }

      .q {
        fill: url(#i);
      }

      .r {
        fill: url(#j);
      }

      .s {
        fill: url(#k);
      }

      .t {
        fill: #0f62fe;
      }

      .u {
        fill: #002d9c;
      }

      .v {
        fill: url(#l);
      }

      .w {
        fill: url(#m);
      }

      .aa, .ad, .au, .aw, .ax, .ba, .x, .z {
        opacity: 0.85;
      }

      .x {
        fill: url(#n);
      }

      .y {
        fill: url(#o);
      }

      .z {
        fill: url(#p);
      }

      .aa {
        fill: url(#q);
      }

      .ab {
        fill: url(#r);
      }

      .ac {
        fill: url(#s);
      }

      .ad {
        fill: url(#t);
      }

      .ae {
        fill: url(#u);
      }

      .af {
        fill: url(#v);
      }

      .ag {
        fill: url(#w);
      }

      .ah {
        fill: url(#x);
      }

      .ai {
        fill: url(#y);
      }

      .aj {
        fill: url(#z);
      }

      .ak {
        fill: url(#aa);
      }

      .al {
        fill: url(#ab);
      }

      .am {
        fill: url(#ac);
      }

      .an {
        fill: url(#ad);
      }

      .ao {
        fill: url(#ae);
      }

      .ap {
        fill: #edf5ff;
      }

      .aq {
        fill: #0043ce;
      }

      .ar {
        fill: url(#af);
      }

      .as {
        fill: #283a90;
      }

      .at {
        fill: url(#ag);
      }

      .au {
        fill: url(#ah);
      }

      .av {
        fill: url(#ai);
      }

      .aw {
        fill: url(#aj);
      }

      .ax {
        fill: url(#ak);
      }

      .ay {
        fill: url(#al);
      }

      .az {
        fill: url(#am);
      }

      .ba {
        fill: url(#an);
      }

      .bb {
        fill: url(#ao);
      }

      .bc {
        fill: url(#ap);
      }

      .bd {
        fill: url(#aq);
      }

      .be {
        fill: url(#ar);
      }

      .bf {
        fill: url(#as);
      }

      .bg {
        fill: url(#at);
      }

      .bh {
        fill: url(#au);
      }

      .bi {
        fill: url(#av);
      }

      .bj {
        fill: url(#aw);
      }

      .bk {
        fill: url(#ax);
      }

      .bl {
        fill: url(#ay);
      }

      .bm {
        fill: url(#az);
      }

      .bn {
        opacity: 0.3;
        fill: url(#ba);
      }

      .bo {
        fill: url(#bb);
      }

      .bp {
        fill: url(#bc);
      }

      .bq {
        fill: url(#bd);
      }
    </style>
    <linearGradient id="a" x1="203.86285" y1="66.24601" x2="181.9044" y2="78.38134" gradientUnits="userSpaceOnUse">
      <stop offset="0" stop-color="#c0c6cc"/>
      <stop offset="1" stop-color="#dce1e6"/>
    </linearGradient>
    <linearGradient id="b" x1="242.50428" y1="58.22682" x2="222.00142" y2="88.81115" gradientUnits="userSpaceOnUse">
      <stop offset="0" stop-color="#c0c6cc"/>
      <stop offset="0.19875" stop-color="#c9cfd4"/>
      <stop offset="0.62962" stop-color="#d7dce1"/>
      <stop offset="1" stop-color="#dce1e6"/>
    </linearGradient>
    <linearGradient id="c" x1="212.81364" y1="35.4552" x2="212.81364" y2="81.99283" gradientUnits="userSpaceOnUse">
      <stop offset="0" stop-color="#dce1e6"/>
      <stop offset="0.10792" stop-color="#e0e5ea"/>
      <stop offset="0.56534" stop-color="#edf0f5"/>
      <stop offset="1" stop-color="#f1f4f9"/>
    </linearGradient>
    <linearGradient id="d" x1="152.86229" y1="91.31221" x2="183.28843" y2="91.31221" gradientUnits="userSpaceOnUse">
      <stop offset="0" stop-color="#fff"/>
      <stop offset="1" stop-color="#5881c1" stop-opacity="0.35"/>
    </linearGradient>
    <linearGradient id="e" x1="202.71546" y1="35.27635" x2="222.85082" y2="35.27635" gradientUnits="userSpaceOnUse">
      <stop offset="0" stop-color="#868c96"/>
      <stop offset="1" stop-color="#697078"/>
    </linearGradient>
    <linearGradient id="f" x1="223.92187" y1="51.7087" x2="233.99183" y2="51.7087" gradientUnits="userSpaceOnUse">
      <stop offset="0" stop-color="#fff" stop-opacity="0.2"/>
      <stop offset="1" stop-color="#5881c1" stop-opacity="0.35"/>
    </linearGradient>
    <linearGradient id="g" x1="243.44954" y1="42.39113" x2="234.0787" y2="62.12297" xlink:href="#d"/>
    <linearGradient id="h" x1="223.92187" y1="38.17919" x2="244.05723" y2="38.17919" xlink:href="#d"/>
    <linearGradient id="i" x1="192.12804" y1="65.08784" x2="202.198" y2="65.08784" xlink:href="#f"/>
    <linearGradient id="j" x1="214.40627" y1="60.97802" x2="201.86604" y2="68.16519" xlink:href="#d"/>
    <linearGradient id="k" x1="192.12804" y1="58.90833" x2="212.2634" y2="58.90833" xlink:href="#d"/>
    <linearGradient id="l" x1="300.31016" y1="-379.76545" x2="324.33931" y2="-379.76545" gradientTransform="matrix(0.49998, 0.86604, -0.57738, 0.99999, -211.23722, 184.92272)" xlink:href="#c"/>
    <linearGradient id="m" x1="-2112.59665" y1="5273.37087" x2="-2110.34835" y2="5266.53367" gradientTransform="translate(-2028.15346 5336.78607) rotate(180)" gradientUnits="userSpaceOnUse">
      <stop offset="0" stop-color="#cbdcf1"/>
      <stop offset="1" stop-color="#fff" stop-opacity="0.05"/>
    </linearGradient>
    <linearGradient id="n" x1="-2127.17624" y1="5273.30243" x2="-2130.53104" y2="5266.74823" gradientTransform="translate(-2028.15346 5336.78607) rotate(180)" gradientUnits="userSpaceOnUse">
      <stop offset="0" stop-color="#9cbde3"/>
      <stop offset="1" stop-color="#fff" stop-opacity="0.05"/>
    </linearGradient>
    <linearGradient id="o" x1="-2070.72773" y1="5263.9177" x2="-2068.47943" y2="5257.0805" xlink:href="#m"/>
    <linearGradient id="p" x1="-2085.30732" y1="5263.84926" x2="-2088.66212" y2="5257.29506" xlink:href="#n"/>
    <linearGradient id="q" x1="-2091.75238" y1="5243.64647" x2="-2089.50408" y2="5236.80927" xlink:href="#n"/>
    <linearGradient id="r" x1="-2106.33197" y1="5243.57803" x2="-2109.68677" y2="5237.02383" xlink:href="#m"/>
    <linearGradient id="s" x1="-2091.79807" y1="5292.68179" x2="-2089.54977" y2="5285.84458" xlink:href="#m"/>
    <linearGradient id="t" x1="-2106.36947" y1="5292.62061" x2="-2109.72428" y2="5286.06641" xlink:href="#n"/>
    <linearGradient id="u" x1="-2129.90165" y1="5283.38574" x2="-2127.65335" y2="5276.54854" gradientTransform="translate(-2028.15346 5336.78607) rotate(180)" gradientUnits="userSpaceOnUse">
      <stop offset="0" stop-color="#55aade" stop-opacity="0.5"/>
      <stop offset="1" stop-color="#bce4f9" stop-opacity="0"/>
    </linearGradient>
    <linearGradient id="v" x1="-2109.87124" y1="5283.3173" x2="-2113.22604" y2="5276.7631" xlink:href="#u"/>
    <linearGradient id="w" x1="68.83423" y1="35.12406" x2="56.53405" y2="41.92176" xlink:href="#a"/>
    <linearGradient id="x" x1="85.1714" y1="30.65554" x2="73.71935" y2="47.73868" xlink:href="#b"/>
    <linearGradient id="y" x1="89.63871" y1="54.51419" x2="77.33853" y2="61.31188" xlink:href="#a"/>
    <linearGradient id="z" x1="105.97587" y1="50.04567" x2="94.52383" y2="67.1288" xlink:href="#b"/>
    <linearGradient id="aa" x1="71.07728" y1="68.24911" x2="71.07728" y2="88.20887" gradientUnits="userSpaceOnUse">
      <stop offset="0" stop-color="#e6e7e8"/>
      <stop offset="0.07768" stop-color="#eaebec"/>
      <stop offset="0.35246" stop-color="#f1f2f3"/>
      <stop offset="1" stop-color="#f3f4f5"/>
    </linearGradient>
    <linearGradient id="ab" x1="71.20244" y1="19.20425" x2="71.20244" y2="39.16401" xlink:href="#c"/>
    <linearGradient id="ac" x1="92.00692" y1="38.59438" x2="92.00692" y2="58.55413" xlink:href="#c"/>
    <linearGradient id="ad" x1="71.07728" y1="68.24911" x2="71.07728" y2="88.20887" xlink:href="#c"/>
    <linearGradient id="ae" x1="68.70907" y1="84.16892" x2="56.40889" y2="90.96662" xlink:href="#a"/>
    <linearGradient id="af" x1="85.04623" y1="79.7004" x2="73.59419" y2="96.78354" xlink:href="#b"/>
    <linearGradient id="ag" x1="-2374.72483" y1="5266.09271" x2="-2372.47653" y2="5259.25551" xlink:href="#m"/>
    <linearGradient id="ah" x1="-2389.30442" y1="5266.02427" x2="-2392.65922" y2="5259.47007" xlink:href="#n"/>
    <linearGradient id="ai" x1="-2332.85592" y1="5259.45528" x2="-2330.60761" y2="5252.61808" xlink:href="#m"/>
    <linearGradient id="aj" x1="-2347.4355" y1="5259.38684" x2="-2350.7903" y2="5252.83264" xlink:href="#n"/>
    <linearGradient id="ak" x1="-2353.88057" y1="5243.64647" x2="-2351.63226" y2="5236.80927" xlink:href="#n"/>
    <linearGradient id="al" x1="-2368.46015" y1="5243.57803" x2="-2371.81495" y2="5237.02383" xlink:href="#m"/>
    <linearGradient id="am" x1="-2353.90288" y1="5294.88185" x2="-2351.65458" y2="5288.04465" xlink:href="#m"/>
    <linearGradient id="an" x1="-2368.47428" y1="5294.82068" x2="-2371.82909" y2="5288.26648" xlink:href="#n"/>
    <linearGradient id="ao" x1="-2392.02983" y1="5276.10758" x2="-2389.78153" y2="5269.27038" xlink:href="#u"/>
    <linearGradient id="ap" x1="-2371.99942" y1="5276.03913" x2="-2375.35422" y2="5269.48493" xlink:href="#u"/>
    <linearGradient id="aq" x1="330.93904" y1="32.924" x2="318.63886" y2="39.72169" xlink:href="#a"/>
    <linearGradient id="ar" x1="347.2762" y1="28.45548" x2="335.82416" y2="45.53861" xlink:href="#b"/>
    <linearGradient id="as" x1="351.76689" y1="61.79236" x2="339.46671" y2="68.59005" xlink:href="#a"/>
    <linearGradient id="at" x1="368.10405" y1="57.32384" x2="356.65201" y2="74.40697" xlink:href="#b"/>
    <linearGradient id="au" x1="333.20546" y1="68.24911" x2="333.20546" y2="88.20887" xlink:href="#aa"/>
    <linearGradient id="av" x1="333.30725" y1="17.00418" x2="333.30725" y2="36.96394" xlink:href="#c"/>
    <linearGradient id="aw" x1="354.1351" y1="45.87254" x2="354.1351" y2="65.8323" xlink:href="#c"/>
    <linearGradient id="ax" x1="333.20546" y1="68.24911" x2="333.20546" y2="88.20887" xlink:href="#c"/>
    <linearGradient id="ay" x1="330.83725" y1="84.16892" x2="318.53707" y2="90.96662" xlink:href="#a"/>
    <linearGradient id="az" x1="347.17441" y1="79.7004" x2="335.72237" y2="96.78354" xlink:href="#b"/>
    <linearGradient id="ba" x1="294.99296" y1="59.92635" x2="329.55882" y2="59.92635" gradientUnits="userSpaceOnUse">
      <stop offset="0" stop-color="#3b8ccb"/>
      <stop offset="1" stop-color="#edf4fa"/>
    </linearGradient>
    <linearGradient id="bb" x1="309.89598" y1="54.10411" x2="297.5958" y2="60.9018" xlink:href="#a"/>
    <linearGradient id="bc" x1="326.23314" y1="49.63559" x2="314.7811" y2="66.71872" xlink:href="#b"/>
    <linearGradient id="bd" x1="312.26811" y1="38.20301" x2="312.26811" y2="58.16277" xlink:href="#c"/>
  </defs>
  <title>GatewayArtboard 6 copy 3</title>
  <g class="a">
    <g>
      <polygon class="b" points="71.248 115.004 22.128 86.644 71.248 58.368 120.302 86.644 71.248 115.004"/>
      <polygon class="c" points="172.479 58.758 172.497 62.825 212.823 86.126 212.787 81.993 172.479 58.758"/>
      <polygon class="d" points="253.169 58.768 253.184 62.815 212.823 86.117 212.823 81.983 253.169 58.768"/>
      <polygon class="e" points="212.787 35.455 253.148 58.758 212.787 81.993 172.479 58.758 212.787 35.455"/>
      <polygon class="f" points="168.065 82.536 183.288 91.325 168.065 100.089 152.862 91.325 168.065 82.536"/>
      <polygon class="g" points="202.715 35.274 202.72 46.781 212.785 52.598 212.776 41.074 202.715 35.274"/>
      <polygon class="h" points="222.856 35.276 222.86 46.779 212.785 52.595 212.785 41.071 222.856 35.276"/>
      <polygon class="i" points="212.776 29.468 222.851 35.285 212.776 41.084 202.715 35.285 212.776 29.468"/>
      <polygon class="j" points="192.126 35.325 192.13 53.1 202.196 58.916 202.187 41.125 192.126 35.325"/>
      <polygon class="k" points="212.266 35.328 212.27 53.1 202.196 58.916 202.196 41.123 212.266 35.328"/>
      <polygon class="l" points="202.187 29.52 212.261 35.336 202.187 41.136 192.126 35.336 202.187 29.52"/>
      <polygon class="g" points="181.518 47.686 181.523 59.194 191.588 65.01 191.579 53.486 181.518 47.686"/>
      <polygon class="h" points="201.659 47.689 201.662 59.191 191.588 65.008 191.588 53.483 201.659 47.689"/>
      <polygon class="m" points="191.579 41.881 201.653 47.697 191.579 53.497 181.518 47.697 191.579 41.881"/>
      <polygon class="g" points="213.319 37.804 213.323 49.312 223.389 55.128 223.38 43.604 213.319 37.804"/>
      <polygon class="h" points="233.459 37.807 233.463 49.31 223.389 55.126 223.389 43.602 233.459 37.807"/>
      <polygon class="m" points="223.38 31.999 233.454 37.815 223.38 43.615 213.319 37.815 220.271 33.796 223.38 31.999"/>
      <polygon class="n" points="223.922 38.177 223.926 59.424 233.992 65.241 233.983 43.976 223.922 38.177"/>
      <polygon class="o" points="244.063 38.179 244.066 59.424 233.992 65.241 233.992 43.974 244.063 38.179"/>
      <polygon class="p" points="233.983 32.371 244.057 38.188 233.983 43.987 223.922 38.188 233.983 32.371"/>
      <polygon class="g" points="202.72 47.673 202.724 59.181 212.79 64.997 212.781 53.473 202.72 47.673"/>
      <polygon class="h" points="222.861 47.676 222.864 59.179 212.79 64.995 212.79 53.471 222.861 47.676"/>
      <polygon class="m" points="212.781 41.868 222.855 47.684 212.781 53.484 202.72 47.684 212.781 41.868"/>
      <polygon class="g" points="213.321 53.946 213.325 65.454 223.391 71.27 223.382 59.746 213.321 53.946"/>
      <polygon class="h" points="233.462 53.948 233.465 65.451 223.391 71.267 223.391 59.743 233.462 53.948"/>
      <polygon class="m" points="223.382 48.14 233.456 53.957 223.382 59.756 213.321 53.957 223.382 48.14"/>
      <polygon class="q" points="192.128 58.906 192.133 65.454 202.198 71.27 202.189 64.705 192.128 58.906"/>
      <polygon class="r" points="212.269 58.908 212.272 65.454 202.198 71.27 202.198 64.703 212.269 58.908"/>
      <polygon class="s" points="202.189 53.1 212.263 58.917 202.189 64.716 192.128 58.917 202.189 53.1"/>
      <polygon class="j" points="202.724 60.137 202.729 71.645 212.794 77.461 212.785 65.937 202.724 60.137"/>
      <polygon class="k" points="222.865 60.139 222.869 71.642 212.794 77.458 212.794 65.934 222.865 60.139"/>
      <polygon class="l" points="212.785 54.331 222.86 60.148 212.785 65.947 202.724 60.148 212.785 54.331"/>
      <path class="t" d="M183.09647,79.36451a1.01683,1.01683,0,0,1,.91726,0,.27955.27955,0,0,1,0,.52917,1.01952,1.01952,0,0,1-.91726,0A.27967.27967,0,0,1,183.09647,79.36451Z"/>
      <path class="t" d="M186.34074,77.57874a1.01685,1.01685,0,0,1,.91727,0,.27955.27955,0,0,1,0,.52917,1.0196,1.0196,0,0,1-.91727,0A.27967.27967,0,0,1,186.34074,77.57874Z"/>
      <path class="t" d="M189.585,75.793a1.01691,1.01691,0,0,1,.91727,0,.27956.27956,0,0,1,0,.52918,1.0196,1.0196,0,0,1-.91727,0A.27968.27968,0,0,1,189.585,75.793Z"/>
      <path class="t" d="M176.60791,82.93605a1.01691,1.01691,0,0,1,.91727,0,.27955.27955,0,0,1,0,.52917,1.01954,1.01954,0,0,1-.91727,0A.27967.27967,0,0,1,176.60791,82.93605Z"/>
      <path class="t" d="M179.85219,81.15028a1.01683,1.01683,0,0,1,.91726,0,.27955.27955,0,0,1,0,.52917,1.01952,1.01952,0,0,1-.91726,0A.27967.27967,0,0,1,179.85219,81.15028Z"/>
      <g>
        <g>
          <ellipse class="u" cx="166.05098" cy="74.57093" rx="9.20223" ry="15.93873" transform="translate(-15.03838 93.0207) rotate(-30.00146)"/>
          <polygon class="u" points="156.106 61.91 158.078 60.77 158.692 61.465 155.735 62.582 156.106 61.91"/>
          <polygon class="u" points="172.115 89.474 174.192 88.27 173.477 87.791 171.343 89.371 172.115 89.474"/>
          <ellipse class="u" cx="164.18561" cy="75.64796" rx="9.20223" ry="15.93873" transform="translate(-15.82686 92.23228) rotate(-30.00146)"/>
          <ellipse class="t" cx="164.18561" cy="75.64796" rx="8.68565" ry="15.04399" transform="translate(-15.82686 92.23228) rotate(-30.00146)"/>
        </g>
        <ellipse class="v" cx="164.18561" cy="75.64796" rx="8.49546" ry="14.71457" transform="translate(-15.82686 92.23228) rotate(-30.00146)"/>
        <ellipse class="g" cx="164.18561" cy="75.64796" rx="0.88653" ry="1.53552" transform="translate(-15.82686 92.23228) rotate(-30.00146)"/>
        <polygon class="g" points="164.184 75.9 163.996 75.189 169.598 76.088 169.787 76.799 164.184 75.9"/>
        <g>
          <polygon class="j" points="164.43 67.853 163.941 67.571 163.941 64.778 164.43 65.06 164.43 67.853"/>
          <polygon class="j" points="164.43 86.518 163.941 86.236 163.941 83.443 164.43 83.725 164.43 86.518"/>
          <rect class="j" x="158.27075" y="64.03904" width="0.39953" height="3.42055" transform="translate(-11.6442 88.03967) rotate(-29.99854)"/>
          <rect class="j" x="169.70094" y="83.83633" width="0.39953" height="3.42055" transform="translate(-20.0112 96.4066) rotate(-29.99854)"/>
          <polygon class="j" points="157.313 71.397 157.313 71.962 154.894 70.566 154.894 70.001 157.313 71.397"/>
          <polygon class="j" points="173.477 80.73 173.477 81.295 171.059 79.899 171.059 79.334 173.477 80.73"/>
          <rect class="j" x="157.48309" y="78.60138" width="1.97486" height="0.69201" transform="translate(-18.24258 89.8137) rotate(-30.00049)"/>
          <rect class="j" x="168.91328" y="72.00254" width="1.97486" height="0.69201" transform="translate(-13.4117 94.64477) rotate(-30.00049)"/>
        </g>
      </g>
      <g>
        <polygon class="w" points="92.013 76.097 92.005 67.301 74.712 57.308 74.727 66.133 92.013 76.097"/>
        <polygon class="x" points="92.019 76.093 92.013 67.305 109.322 57.312 109.322 66.137 92.019 76.093"/>
        <polygon class="y" points="50.144 85.55 50.136 76.754 32.843 66.761 32.858 75.586 50.144 85.55"/>
        <polygon class="z" points="50.15 85.546 50.144 76.758 67.453 66.765 67.453 75.59 50.15 85.546"/>
        <polygon class="aa" points="71.169 105.821 71.161 97.025 53.867 87.032 53.883 95.857 71.169 105.821"/>
        <polygon class="ab" points="71.175 105.817 71.169 97.029 88.477 87.036 88.477 95.861 71.175 105.817"/>
        <polygon class="ac" points="71.214 56.786 71.206 47.99 53.913 37.997 53.929 46.822 71.214 56.786"/>
        <polygon class="ad" points="71.212 56.775 71.206 47.987 88.515 37.994 88.515 46.819 71.212 56.775"/>
        <polygon class="ae" points="109.318 66.082 109.31 57.286 92.017 47.293 92.032 56.118 109.318 66.082"/>
        <polygon class="af" points="74.714 66.078 74.708 57.29 92.017 47.297 92.017 56.122 74.714 66.078"/>
        <path class="m" d="M120.32457,79.45141l-.04422-40.88761v-.03058L71.64735,10.499a.50348.50348,0,1,0-.92819.0009L22.0466,38.50636l-.02645.01529V79.43984L70.71668,51.326a.4999.4999,0,0,0,.93315-.0009l48.595,28.08043Zm-98.19864-.195V38.58281L70.7782,10.58767a.49026.49026,0,0,0,.33445.20581l.01746,39.85617a.49849.49849,0,0,0-.45052.49282.47578.47578,0,0,0,.015.07407Zm49.546-28.04076a.48223.48223,0,0,0,.01477-.07314.49718.49718,0,0,0-.429-.48848l-.021-39.8571a.49108.49108,0,0,0,.35165-.20958l48.5862,28.00707.04339,40.67356Z"/>
        <polygon class="ag" points="53.903 29.199 53.911 37.996 71.206 47.99 71.191 39.164 53.903 29.199"/>
        <polygon class="ah" points="88.511 29.203 88.517 37.992 71.206 47.986 71.206 39.16 88.511 29.203"/>
        <polygon class="j" points="32.845 57.962 32.852 66.759 50.148 76.753 50.132 67.927 32.845 57.962"/>
        <polygon class="k" points="67.452 57.966 67.458 66.755 50.148 76.749 50.148 67.923 67.452 57.966"/>
        <polygon class="ai" points="74.708 48.589 74.715 57.386 92.011 67.38 91.995 58.554 74.708 48.589"/>
        <polygon class="aj" points="109.315 48.593 109.322 57.382 92.011 67.376 92.011 58.55 109.315 48.593"/>
        <polygon class="ak" points="71.066 68.249 88.376 78.244 71.066 88.209 53.778 78.244 71.066 68.249"/>
        <polygon class="al" points="71.191 19.204 88.502 29.199 71.191 39.164 53.903 29.199 71.191 19.204"/>
        <polygon class="am" points="91.995 38.594 109.306 48.589 91.995 58.554 74.708 48.589 91.995 38.594"/>
        <polygon class="l" points="50.132 47.986 67.443 57.98 50.132 67.946 32.845 57.98 50.132 47.986"/>
        <polygon class="an" points="71.066 68.249 88.376 78.244 71.066 88.209 53.778 78.244 71.066 68.249"/>
        <polygon class="ao" points="53.778 78.244 53.786 87.041 71.081 97.035 71.066 88.209 53.778 78.244"/>
        <polygon class="ap" points="33.752 60.569 33.753 61.052 43.29 66.693 43.287 66.203 33.752 60.569"/>
        <polygon class="aq" points="33.752 60.569 33.752 61.052 42.422 66.18 42.419 65.69 33.752 60.569"/>
        <polygon class="ap" points="54.827 31.548 54.829 32.032 64.366 37.673 64.363 37.183 54.827 31.548"/>
        <polygon class="aq" points="54.827 31.548 54.828 32.032 61.959 36.245 61.956 35.755 54.827 31.548"/>
        <polygon class="ar" points="88.386 78.248 88.392 87.037 71.081 97.031 71.081 88.205 88.386 78.248"/>
        <path class="m" d="M120.3349,78.864l-.01715-39.9282a.49708.49708,0,0,0,.42407-.4875.50356.50356,0,0,0-1.00712,0,.4846.4846,0,0,0,.02644.13063L71.55087,66.31939a.49473.49473,0,0,0-.38977-.19744.50152.50152,0,0,0-.45454.29354l-48.09292-27.723a.49019.49019,0,0,0,.0721-.24427.50356.50356,0,0,0-1.00712,0,.49783.49783,0,0,0,.353.47314l.02055,39.97778a.49674.49674,0,0,0-.37355.4773.50356.50356,0,0,0,.50356.50353.49488.49488,0,0,0,.38523-.19075l48.12846,27.81019a.503.503,0,1,0,.96874.18967.48973.48973,0,0,0-.08833-.26836l48.22288-27.84a.49828.49828,0,0,0,.43915.27073.50351.50351,0,0,0,.50351-.50353A.49644.49644,0,0,0,120.3349,78.864Zm-97.70815.73731a.49241.49241,0,0,0,.059-.22479.50355.50355,0,0,0-.50356-.50354c-.00857,0-.01575.00447-.02422.00488l-.02077-39.93511c.0156.00144.029.00909.045.00909a.49713.49713,0,0,0,.37205-.17118L70.67856,66.52148a.4799.4799,0,0,0-.021.104.49672.49672,0,0,0,.41838.48638l.04174,40.08249a.49176.49176,0,0,0-.36477.216Zm48.88992,27.73147a.49993.49993,0,0,0-.29163-.13424V67.11613a.48723.48723,0,0,0,.38512-.70878L119.798,38.67944a.4966.4966,0,0,0,.41384.267l.01725,39.89984a.50255.50255,0,0,0-.49441.50167.48825.48825,0,0,0,.02675.13231Z"/>
        <polygon class="as" points="45.009 66.765 45.013 72.238 45.458 72.515 45.446 67.014 45.009 66.765"/>
        <polygon class="as" points="45.939 67.288 45.943 72.761 46.387 73.038 46.376 67.537 45.939 67.288"/>
        <polygon class="as" points="46.869 67.818 46.872 73.291 47.317 73.568 47.306 68.067 46.869 67.818"/>
        <polygon class="as" points="47.798 68.356 47.802 73.828 48.247 74.105 48.236 68.604 47.798 68.356"/>
        <polygon class="as" points="86.875 57.525 86.879 62.998 87.324 63.275 87.312 57.774 86.875 57.525"/>
        <polygon class="as" points="87.805 58.048 87.809 63.521 88.253 63.798 88.242 58.297 87.805 58.048"/>
        <polygon class="as" points="88.735 58.578 88.738 64.051 89.183 64.328 89.172 58.827 88.735 58.578"/>
        <polygon class="as" points="89.665 59.116 89.668 64.588 90.113 64.866 90.102 59.365 89.665 59.116"/>
        <polygon class="as" points="66.156 38.087 66.16 43.56 66.604 43.837 66.593 38.336 66.156 38.087"/>
        <polygon class="as" points="67.086 38.61 67.089 44.083 67.534 44.36 67.523 38.859 67.086 38.61"/>
        <polygon class="as" points="68.016 39.14 68.019 44.613 68.464 44.89 68.453 39.389 68.016 39.14"/>
        <polygon class="as" points="68.945 39.678 68.949 45.15 69.394 45.427 69.382 39.926 68.945 39.678"/>
        <polygon class="as" points="65.942 87.047 65.946 92.52 66.391 92.797 66.379 87.296 65.942 87.047"/>
        <polygon class="as" points="66.872 87.57 66.876 93.042 67.321 93.32 67.309 87.819 66.872 87.57"/>
        <polygon class="as" points="67.802 88.1 67.806 93.573 68.251 93.85 68.239 88.349 67.802 88.1"/>
        <polygon class="as" points="68.732 88.638 68.736 94.11 69.181 94.387 69.169 88.886 68.732 88.638"/>
        <polygon class="ap" points="75.648 51.049 75.65 51.533 85.187 57.173 85.184 56.683 75.648 51.049"/>
        <polygon class="aq" points="75.648 51.049 75.649 51.533 82.78 55.745 82.777 55.255 75.648 51.049"/>
        <polygon class="ap" points="54.698 81.09 54.699 81.574 64.236 87.215 64.233 86.725 54.698 81.09"/>
        <polygon class="aq" points="54.698 81.09 54.699 81.574 63.368 86.701 63.365 86.211 54.698 81.09"/>
      </g>
      <g>
        <polygon class="b" points="333.332 58.368 382.621 86.825 333.332 115.199 284.109 86.825 333.332 58.368"/>
        <polygon class="at" points="354.141 83.375 354.133 74.579 336.84 64.586 336.855 73.411 354.141 83.375"/>
        <polygon class="au" points="354.147 83.371 354.141 74.583 371.45 64.59 371.45 73.415 354.147 83.371"/>
        <polygon class="av" points="312.272 90.013 312.264 81.216 294.971 71.224 294.986 80.049 312.272 90.013"/>
        <polygon class="aw" points="312.278 90.009 312.272 81.22 329.581 71.228 329.581 80.053 312.278 90.009"/>
        <polygon class="ax" points="333.297 105.821 333.289 97.025 315.996 87.032 316.011 95.857 333.297 105.821"/>
        <polygon class="ay" points="333.303 105.817 333.297 97.029 350.606 87.036 350.606 95.861 333.303 105.817"/>
        <polygon class="az" points="333.319 54.586 333.311 45.79 316.018 35.797 316.033 44.622 333.319 54.586"/>
        <polygon class="ba" points="333.317 54.575 333.311 45.787 350.62 35.794 350.62 44.619 333.317 54.575"/>
        <polygon class="bb" points="371.446 73.36 371.438 64.564 354.145 54.571 354.16 63.396 371.446 73.36"/>
        <polygon class="bc" points="336.842 73.356 336.836 64.568 354.145 54.575 354.145 63.4 336.842 73.356"/>
        <path class="m" d="M382.45275,79.45141l-.04422-40.88761v-.03058L333.77553,10.499a.50347.50347,0,1,0-.92819.0009L284.17478,38.50636l-.02645.01529V79.43984L332.84486,51.326a.4999.4999,0,0,0,.93315-.0009l48.595,28.08043Zm-98.19864-.195V38.58281l48.65227-27.99514a.49026.49026,0,0,0,.33445.20581l.01746,39.85617a.49848.49848,0,0,0-.45051.49282.47576.47576,0,0,0,.015.07407Zm49.546-28.04076a.48223.48223,0,0,0,.01477-.07314.49717.49717,0,0,0-.429-.48848l-.021-39.8571a.49108.49108,0,0,0,.35165-.20958l48.5862,28.00707.04339,40.67356Z"/>
        <polygon class="bd" points="316.008 26.999 316.016 35.796 333.311 45.79 333.296 36.964 316.008 26.999"/>
        <polygon class="be" points="350.616 27.003 350.622 35.792 333.311 45.786 333.311 36.96 350.616 27.003"/>
        <polygon class="j" points="294.973 62.424 294.981 71.221 312.276 81.215 312.26 72.389 294.973 62.424"/>
        <polygon class="k" points="329.58 62.428 329.587 71.217 312.276 81.211 312.276 72.385 329.58 62.428"/>
        <polygon class="bf" points="336.836 55.867 336.844 64.664 354.139 74.658 354.123 65.832 336.836 55.867"/>
        <polygon class="bg" points="371.443 55.871 371.45 64.66 354.139 74.654 354.139 65.828 371.443 55.871"/>
        <polygon class="bh" points="333.194 68.249 350.505 78.244 333.194 88.209 315.906 78.244 333.194 68.249"/>
        <polygon class="bi" points="333.296 17.004 350.606 26.999 333.296 36.964 316.008 26.999 333.296 17.004"/>
        <polygon class="bj" points="354.123 45.873 371.434 55.867 354.123 65.832 336.836 55.867 354.123 45.873"/>
        <polygon class="l" points="312.26 52.448 329.571 62.443 312.26 72.408 294.973 62.443 312.26 52.448"/>
        <polygon class="bk" points="333.194 68.249 350.505 78.244 333.194 88.209 315.906 78.244 333.194 68.249"/>
        <polygon class="bl" points="315.906 78.244 315.914 87.041 333.209 97.035 333.194 88.209 315.906 78.244"/>
        <polygon class="bm" points="350.514 78.248 350.52 87.037 333.209 97.031 333.209 88.205 350.514 78.248"/>
        <polygon class="as" points="307.137 71.228 307.141 76.7 307.586 76.977 307.574 71.476 307.137 71.228"/>
        <polygon class="as" points="308.067 71.751 308.071 77.223 308.516 77.5 308.504 71.999 308.067 71.751"/>
        <polygon class="as" points="308.997 72.281 309.001 77.753 309.446 78.03 309.434 72.529 308.997 72.281"/>
        <polygon class="as" points="309.927 72.818 309.931 78.29 310.375 78.568 310.364 73.067 309.927 72.818"/>
        <polygon class="as" points="349.003 64.804 349.007 70.276 349.452 70.553 349.44 65.052 349.003 64.804"/>
        <polygon class="as" points="349.933 65.327 349.937 70.799 350.382 71.076 350.37 65.575 349.933 65.327"/>
        <polygon class="as" points="350.863 65.857 350.867 71.329 351.312 71.606 351.3 66.105 350.863 65.857"/>
        <polygon class="as" points="351.793 66.394 351.797 71.866 352.241 72.144 352.23 66.643 351.793 66.394"/>
        <polygon class="as" points="328.261 35.887 328.264 41.36 328.709 41.637 328.698 36.136 328.261 35.887"/>
        <polygon class="as" points="329.19 36.41 329.194 41.883 329.639 42.16 329.627 36.659 329.19 36.41"/>
        <polygon class="as" points="330.12 36.94 330.124 42.413 330.569 42.69 330.557 37.189 330.12 36.94"/>
        <polygon class="as" points="331.05 37.478 331.054 42.95 331.499 43.227 331.487 37.726 331.05 37.478"/>
        <polygon class="as" points="328.07 87.047 328.074 92.52 328.519 92.797 328.508 87.296 328.07 87.047"/>
        <polygon class="as" points="329 87.57 329.004 93.042 329.449 93.32 329.437 87.819 329 87.57"/>
        <polygon class="as" points="329.93 88.1 329.934 93.573 330.379 93.85 330.367 88.349 329.93 88.1"/>
        <polygon class="as" points="330.86 88.638 330.864 94.11 331.309 94.387 331.297 88.886 330.86 88.638"/>
        <polygon class="bn" points="312.264 49.956 329.559 59.941 312.264 69.897 294.993 59.941 312.264 49.956"/>
        <polygon class="bo" points="294.965 48.179 294.973 56.976 312.268 66.97 312.253 58.144 294.965 48.179"/>
        <polygon class="bp" points="329.573 48.183 329.579 56.972 312.268 66.966 312.268 58.14 329.573 48.183"/>
        <polygon class="bq" points="312.256 38.203 329.567 48.198 312.256 58.163 294.969 48.198 312.256 38.203"/>
        <polygon class="as" points="307.137 57.051 307.141 62.524 307.586 62.801 307.574 57.3 307.137 57.051"/>
        <polygon class="as" points="308.067 57.574 308.071 63.047 308.516 63.324 308.504 57.823 308.067 57.574"/>
        <polygon class="as" points="308.997 58.105 309.001 63.577 309.446 63.854 309.434 58.353 308.997 58.105"/>
        <polygon class="as" points="309.927 58.642 309.931 64.114 310.375 64.392 310.364 58.891 309.927 58.642"/>
        <polygon class="ap" points="295.882 64.741 295.884 65.225 305.421 70.866 305.418 70.376 295.882 64.741"/>
        <polygon class="aq" points="295.882 64.741 295.883 65.225 300.57 68 300.567 67.51 295.882 64.741"/>
        <polygon class="ap" points="295.882 50.733 295.884 51.216 305.421 56.857 305.418 56.367 295.882 50.733"/>
        <polygon class="aq" points="295.882 50.733 295.883 51.216 301.082 54.285 301.079 53.795 295.882 50.733"/>
        <polygon class="ap" points="316.935 29.673 316.936 30.156 326.473 35.797 326.47 35.307 316.935 29.673"/>
        <polygon class="aq" points="316.935 29.673 316.936 30.156 321.705 32.98 321.703 32.49 316.935 29.673"/>
        <polygon class="ap" points="337.779 58.454 337.781 58.938 347.318 64.579 347.314 64.089 337.779 58.454"/>
        <polygon class="aq" points="337.779 58.454 337.78 58.938 340.581 60.597 340.579 60.107 337.779 58.454"/>
        <polygon class="ap" points="316.829 80.618 316.83 81.102 326.367 86.743 326.364 86.253 316.829 80.618"/>
        <polygon class="aq" points="316.829 80.618 316.829 81.102 323.048 84.786 323.046 84.296 316.829 80.618"/>
        <path class="m" d="M382.46308,78.864l-.01715-39.9282a.49708.49708,0,0,0,.42407-.4875.50356.50356,0,0,0-1.00712,0,.4846.4846,0,0,0,.02644.13063L333.67905,66.31939a.49473.49473,0,0,0-.38977-.19744.50153.50153,0,0,0-.45454.29354l-48.09292-27.723a.49019.49019,0,0,0,.0721-.24427.50356.50356,0,0,0-1.00712,0,.49783.49783,0,0,0,.353.47314l.02055,39.97778a.49674.49674,0,0,0-.37355.4773.50356.50356,0,0,0,.50356.50353.49488.49488,0,0,0,.38523-.19075l48.12846,27.81019a.503.503,0,1,0,.96874.18967.48973.48973,0,0,0-.08833-.26836l48.22288-27.84a.49829.49829,0,0,0,.43915.27073A.5035.5035,0,0,0,382.87,79.348.49644.49644,0,0,0,382.46308,78.864Zm-97.70814.73731a.49253.49253,0,0,0,.059-.22479.50355.50355,0,0,0-.50356-.50354c-.00857,0-.01575.00447-.02422.00488l-.02077-39.93511c.0156.00144.029.00909.045.00909a.49717.49717,0,0,0,.37206-.17118l48.12432,27.74085a.4799.4799,0,0,0-.021.104.49672.49672,0,0,0,.41839.48638l.04173,40.08249a.49177.49177,0,0,0-.36477.216Zm48.88991,27.73147a.49993.49993,0,0,0-.29163-.13424V67.11613a.48723.48723,0,0,0,.38512-.70878L381.9262,38.67944a.4966.4966,0,0,0,.41384.267l.01725,39.89984a.50255.50255,0,0,0-.49441.50167.48825.48825,0,0,0,.02675.13231Z"/>
      </g>
    </g>
  </g>
</svg>
